<svg fill="none" height="36" viewBox="0 0 34 36" width="34" xmlns="http://www.w3.org/2000/svg" xmlns:xlink="http://www.w3.org/1999/xlink"><mask id="a" fill="#000" height="35" maskUnits="userSpaceOnUse" width="34" x="-.05188" y=".375"><path d="m-.05188.375h34v35h-34z" fill="#fff"/><path d="m19.3655 1.90749c-.007-.13892.2055-.38363.3951-.45534.3935-.14872 1.0954-.07701 1.6503.16848.7803.34551 1.4709 1.18573 1.2106 1.47337-.1388.15339-.3026.11279-1.0854-.26991-.036-.01763-.0724-.03498-.109-.05206.3755.20986.6915.52693.8832.91717 2.5244-.13824 7.5963-.36185 7.5963-.36185s.0912 2.00153.0524 2.44116c-.1946 2.21372-.8973 4.27249-1.9978 6.04049.1856.029.4173.155.5889.3175.0779.0741.1434.1556.1866.239.0375.0725.064.084.1794.0782.3668-.0185.8995.1623 1.1938.4051.1727.1424.4303.5266.386.5756-.0106.0118.0722.0694.184.1282.6447.3387.9927 1.0734.9028 1.906-.0294.2716-.1492.654-.309 1.0257l1.1921.9262c.0053.0042.0092.0098.0114.0162l.4603 1.3464c.0083.0245-.0121.049-.0376.0451l-1.3697-.2048c-.0062-.001-.0122-.0038-.0171-.0078l-1.0328-.8723c-.5034.5296-1.0911.8125-1.8033.8726l-.3843.0325-.0854.1688c-.1726.3407-.6068.5999-.9001.537l-.1464-.0314-.2994.3178c-1.1473 1.2175-2.7103 1.5006-4.6463.8418l-.0481-.0168c-.0304-.0109-.0633-.0232-.0983-.0366-.0655-.025-.1379-.0538-.2127-.0846-.1823-.0748-.3797-.1609-.5277-.2304-.0956-.045-.1706-.0831-.2078-.1066l-.0969-.0616.03.1744c.2492 1.4491.0303 3.345-.4538 3.9307-.0765.0926-.2722.2774-.3365.3177-.0468.0294-.0305.072.1447.3768.3049.5306.3197.6056.1669.8525l-.1238.2004.203.2719c.1117.1495.3258.4483.4756.664.1498.2154.5259.7369.8357 1.1586.3097.4218.6334.8642.7192.9832l.156.2162.6134-.0245-.0363-.7609c-.0739-1.5554.1743-2.4714.8978-3.3139 1.3633-1.5876 3.2797-1.5622 4.474.0593.8554 1.1614.9209 2.0076.3452 4.4605-.3633 1.5475-1.5812 3.6103-2.5381 4.2988-.3749.2699-.6014.3714-1.2696.5692-1.3543.4011-2.8215-.5329-2.8973-1.8445-.0193-.3334-.0468-.379-.2254-.3723-.3203.012-.7319-.4183-.8251-.8623-.0181-.0854-.07-.2103-.1156-.2777-.2556-.3766-.8807-1.1887-1.2528-1.6275-.235-.2771-.5944-.7044-.7983-.9498-.7213-.8668-1.0355-1.2235-1.0713-1.2167-.02.0038-.1513.043-.292.0872-.5899.1851-.9231.0712-1.142-.3907-.0627-.1323-.1184-.245-.1238-.2503-.0053-.0054-.0248.0467-.0431.1158-.1103.4142-.3238.474-1.1136.3111l-.2061-.0426-.1392.1356c-.0215.0209-.0448.0452-.0683.071l-.0291.0323-.0331.0389c-.0375.0448-.0713.0887-.0931.1218-.5306.8093-1.5239 1.5019-2.4867 1.7341-.3301.0795-.346.0873-.4143.2023l-.0709.1196.1406.1643c.1402.1638.1413.1644.3225.1554 1.1587-.0574 2.0673.5691 2.3981 1.6531.2086.6837-.0749 1.7692-.5315 2.0351-.3251.3782-3.0139.6677-3.7633.3666-1.623-.1986-2.98001-3.5001-2.34608-5.7163.25046-.8755.92391-1.441 1.72991-1.4528.20577-.003.24917-.0157.46697-.138.6243-.3502 1.4663-.1232 1.7116.4616.0513.1223.07.1223.3559-.0006.308-.1326.5509-.3634.8874-.8437l.0967-.1381-.1916-.2141c-.4144-.463-.4107-.6347.0267-1.2122l.1845-.2436-.1586-.2736c-.8077-1.3939-.7533-2.6834.2056-4.876l.2068-.4729-.1262.0064c-.9546.0479-2.7612.7369-3.95093 1.5067-.16988.1099-.32233.2005-.33882.2014-.01634.0008-.02474.1144-.01851.2523.00606.1382-.00592.3074-.02661.3762-.03624.1203-.03298.1321.08168.3024.54386.8087.68402 1.9166.33586 2.657-.16178.3441-.61075.7714-.82263.7831-.05679.0029-.07763.0325-.10112.1433-.21795 1.0241-1.73193 1.4923-2.54834.7881l-.14546-.1256-.29822.0148c-.83633.0417-1.55598-.4925-1.74328-1.2942-.03998-.1711-.06768-.2167-.2094-.3447-.68185-.6168-.83975-1.3144-.54184-2.3946.27909-1.012 1.24438-1.8424 2.42202-2.0837.23024-.0471.26867-.0647.30289-.1392.10003-.2174.34583-.3765.6008-.3893.03469-.0017.06223-.004.08697-.0093.028-.0061.05242-.016.07918-.0338.01229-.008.02505-.0177.03889-.0294.04107-.0349.07865-.0739.11613-.1128.01141-.0119.02282-.0237.0343-.0354.7279-.7584 1.87272-1.3676 2.93166-1.5912-4.66094-1.5349-7.87153-5.1385-8.66881-10.2361-.11792-.75404-.17019-2.14512-.17019-2.14512 4.085-.22265 8.16986-.44795 12.25468-.67469l.0359-.03998c.3555-.70905 1.3166-1.26669 2.1118-1.26537.7612.00127 1.5581.42077 1.9183 1.08211l1.0218-.04029c.4071-.59266.7506-1.07419 1.4828-1.30785.3953-.12625.8143-.11694 1.2023-.00066-.3087-.11839-.6342-.21908-.9752-.30161-.5179-.12554-.6258-.1887-.635-.37165z" fill="#000"/><path d="m12.3546 3.01855c.2549-.48117 1.0917-1.13221 1.6916-1.31594.3545-.10874.605-.0168.617.2262.0087.17625-.0893.29417-.6178.74392-.2811.2391-.6629.59286-.8483.78576-.1613.16802-.2805.29185-.3709.38332-.0765.07763-.1325.13192-.1762.17004l-.0234.01991-.0224.01773c-.0102.00778-.0199.01447-.0289.02023-.0113.00731-.0218.01307-.0317.01758-.0108.00482-.0209.00824-.031.01073-.0073.00187-.0145.00311-.0218.0042-.0067.00093-.0135.00156-.0207.00202l-.025.00156c-.3897.0196-.4287-.44928-.0905-1.08726z" fill="#000"/></mask><path d="m19.3655 1.90749c-.007-.13892.2055-.38363.3951-.45534.3935-.14872 1.0954-.07701 1.6503.16848.7803.34551 1.4709 1.18573 1.2106 1.47337-.1388.15339-.3026.11279-1.0854-.26991-.036-.01763-.0724-.03498-.109-.05206.3755.20986.6915.52693.8832.91717 2.5244-.13824 7.5963-.36185 7.5963-.36185s.0912 2.00153.0524 2.44116c-.1946 2.21372-.8973 4.27249-1.9978 6.04049.1856.029.4173.155.5889.3175.0779.0741.1434.1556.1866.239.0375.0725.064.084.1794.0782.3668-.0185.8995.1623 1.1938.4051.1727.1424.4303.5266.386.5756-.0106.0118.0722.0694.184.1282.6447.3387.9927 1.0734.9028 1.906-.0294.2716-.1492.654-.309 1.0257l1.1921.9262c.0053.0042.0092.0098.0114.0162l.4603 1.3464c.0083.0245-.0121.049-.0376.0451l-1.3697-.2048c-.0062-.001-.0122-.0038-.0171-.0078l-1.0328-.8723c-.5034.5296-1.0911.8125-1.8033.8726l-.3843.0325-.0854.1688c-.1726.3407-.6068.5999-.9001.537l-.1464-.0314-.2994.3178c-1.1473 1.2175-2.7103 1.5006-4.6463.8418l-.0481-.0168c-.0304-.0109-.0633-.0232-.0983-.0366-.0655-.025-.1379-.0538-.2127-.0846-.1823-.0748-.3797-.1609-.5277-.2304-.0956-.045-.1706-.0831-.2078-.1066l-.0969-.0616.03.1744c.2492 1.4491.0303 3.345-.4538 3.9307-.0765.0926-.2722.2774-.3365.3177-.0468.0294-.0305.072.1447.3768.3049.5306.3197.6056.1669.8525l-.1238.2004.203.2719c.1117.1495.3258.4483.4756.664.1498.2154.5259.7369.8357 1.1586.3097.4218.6334.8642.7192.9832l.156.2162.6134-.0245-.0363-.7609c-.0739-1.5554.1743-2.4714.8978-3.3139 1.3633-1.5876 3.2797-1.5622 4.474.0593.8554 1.1614.9209 2.0076.3452 4.4605-.3633 1.5475-1.5812 3.6103-2.5381 4.2988-.3749.2699-.6014.3714-1.2696.5692-1.3543.4011-2.8215-.5329-2.8973-1.8445-.0193-.3334-.0468-.379-.2254-.3723-.3203.012-.7319-.4183-.8251-.8623-.0181-.0854-.07-.2103-.1156-.2777-.2556-.3766-.8807-1.1887-1.2528-1.6275-.235-.2771-.5944-.7044-.7983-.9498-.7213-.8668-1.0355-1.2235-1.0713-1.2167-.02.0038-.1513.043-.292.0872-.5899.1851-.9231.0712-1.142-.3907-.0627-.1323-.1184-.245-.1238-.2503-.0053-.0054-.0248.0467-.0431.1158-.1103.4142-.3238.474-1.1136.3111l-.2061-.0426-.1392.1356c-.0215.0209-.0448.0452-.0683.071l-.0291.0323-.0331.0389c-.0375.0448-.0713.0887-.0931.1218-.5306.8093-1.5239 1.5019-2.4867 1.7341-.3301.0795-.346.0873-.4143.2023l-.0709.1196.1406.1643c.1402.1638.1413.1644.3225.1554 1.1587-.0574 2.0673.5691 2.3981 1.6531.2086.6837-.0749 1.7692-.5315 2.0351-.3251.3782-3.0139.6677-3.7633.3666-1.623-.1986-2.98001-3.5001-2.34608-5.7163.25046-.8755.92391-1.441 1.72991-1.4528.20577-.003.24917-.0157.46697-.138.6243-.3502 1.4663-.1232 1.7116.4616.0513.1223.07.1223.3559-.0006.308-.1326.5509-.3634.8874-.8437l.0967-.1381-.1916-.2141c-.4144-.463-.4107-.6347.0267-1.2122l.1845-.2436-.1586-.2736c-.8077-1.3939-.7533-2.6834.2056-4.876l.2068-.4729-.1262.0064c-.9546.0479-2.7612.7369-3.95093 1.5067-.16988.1099-.32233.2005-.33882.2014-.01634.0008-.02474.1144-.01851.2523.00606.1382-.00592.3074-.02661.3762-.03624.1203-.03298.1321.08168.3024.54386.8087.68402 1.9166.33586 2.657-.16178.3441-.61075.7714-.82263.7831-.05679.0029-.07763.0325-.10112.1433-.21795 1.0241-1.73193 1.4923-2.54834.7881l-.14546-.1256-.29822.0148c-.83633.0417-1.55598-.4925-1.74328-1.2942-.03998-.1711-.06768-.2167-.2094-.3447-.68185-.6168-.83975-1.3144-.54184-2.3946.27909-1.012 1.24438-1.8424 2.42202-2.0837.23024-.0471.26867-.0647.30289-.1392.10003-.2174.34583-.3765.6008-.3893.03469-.0017.06223-.004.08697-.0093.028-.0061.05242-.016.07918-.0338.01229-.008.02505-.0177.03889-.0294.04107-.0349.07865-.0739.11613-.1128.01141-.0119.02282-.0237.0343-.0354.7279-.7584 1.87272-1.3676 2.93166-1.5912-4.66094-1.5349-7.87153-5.1385-8.66881-10.2361-.11792-.75404-.17019-2.14512-.17019-2.14512 4.085-.22265 8.16986-.44795 12.25468-.67469l.0359-.03998c.3555-.70905 1.3166-1.26669 2.1118-1.26537.7612.00127 1.5581.42077 1.9183 1.08211l1.0218-.04029c.4071-.59266.7506-1.07419 1.4828-1.30785.3953-.12625.8143-.11694 1.2023-.00066-.3087-.11839-.6342-.21908-.9752-.30161-.5179-.12554-.6258-.1887-.635-.37165z" fill="#fff"/><path d="m12.3546 3.01855c.2549-.48117 1.0917-1.13221 1.6916-1.31594.3545-.10874.605-.0168.617.2262.0087.17625-.0893.29417-.6178.74392-.2811.2391-.6629.59286-.8483.78576-.1613.16802-.2805.29185-.3709.38332-.0765.07763-.1325.13192-.1762.17004l-.0234.01991-.0224.01773c-.0102.00778-.0199.01447-.0289.02023-.0113.00731-.0218.01307-.0317.01758-.0108.00482-.0209.00824-.031.01073-.0073.00187-.0145.00311-.0218.0042-.0067.00093-.0135.00156-.0207.00202l-.025.00156c-.3897.0196-.4287-.44928-.0905-1.08726z" fill="#fff"/><path d="m19.3655 1.90749c-.007-.13892.2055-.38363.3951-.45534.3935-.14872 1.0954-.07701 1.6503.16848.7803.34551 1.4709 1.18573 1.2106 1.47337-.1388.15339-.3026.11279-1.0854-.26991-.036-.01763-.0724-.03498-.109-.05206.3755.20986.6915.52693.8832.91717 2.5244-.13824 7.5963-.36185 7.5963-.36185s.0912 2.00153.0524 2.44116c-.1946 2.21372-.8973 4.27249-1.9978 6.04049.1856.029.4173.155.5889.3175.0779.0741.1434.1556.1866.239.0375.0725.064.084.1794.0782.3668-.0185.8995.1623 1.1938.4051.1727.1424.4303.5266.386.5756-.0106.0118.0722.0694.184.1282.6447.3387.9927 1.0734.9028 1.906-.0294.2716-.1492.654-.309 1.0257l1.1921.9262c.0053.0042.0092.0098.0114.0162l.4603 1.3464c.0083.0245-.0121.049-.0376.0451l-1.3697-.2048c-.0062-.001-.0122-.0038-.0171-.0078l-1.0328-.8723c-.5034.5296-1.0911.8125-1.8033.8726l-.3843.0325-.0854.1688c-.1726.3407-.6068.5999-.9001.537l-.1464-.0314-.2994.3178c-1.1473 1.2175-2.7103 1.5006-4.6463.8418l-.0481-.0168c-.0304-.0109-.0633-.0232-.0983-.0366-.0655-.025-.1379-.0538-.2127-.0846-.1823-.0748-.3797-.1609-.5277-.2304-.0956-.045-.1706-.0831-.2078-.1066l-.0969-.0616.03.1744c.2492 1.4491.0303 3.345-.4538 3.9307-.0765.0926-.2722.2774-.3365.3177-.0468.0294-.0305.072.1447.3768.3049.5306.3197.6056.1669.8525l-.1238.2004.203.2719c.1117.1495.3258.4483.4756.664.1498.2154.5259.7369.8357 1.1586.3097.4218.6334.8642.7192.9832l.156.2162.6134-.0245-.0363-.7609c-.0739-1.5554.1743-2.4714.8978-3.3139 1.3633-1.5876 3.2797-1.5622 4.474.0593.8554 1.1614.9209 2.0076.3452 4.4605-.3633 1.5475-1.5812 3.6103-2.5381 4.2988-.3749.2699-.6014.3714-1.2696.5692-1.3543.4011-2.8215-.5329-2.8973-1.8445-.0193-.3334-.0468-.379-.2254-.3723-.3203.012-.7319-.4183-.8251-.8623-.0181-.0854-.07-.2103-.1156-.2777-.2556-.3766-.8807-1.1887-1.2528-1.6275-.235-.2771-.5944-.7044-.7983-.9498-.7213-.8668-1.0355-1.2235-1.0713-1.2167-.02.0038-.1513.043-.292.0872-.5899.1851-.9231.0712-1.142-.3907-.0627-.1323-.1184-.245-.1238-.2503-.0053-.0054-.0248.0467-.0431.1158-.1103.4142-.3238.474-1.1136.3111l-.2061-.0426-.1392.1356c-.0215.0209-.0448.0452-.0683.071l-.0291.0323-.0331.0389c-.0375.0448-.0713.0887-.0931.1218-.5306.8093-1.5239 1.5019-2.4867 1.7341-.3301.0795-.346.0873-.4143.2023l-.0709.1196.1406.1643c.1402.1638.1413.1644.3225.1554 1.1587-.0574 2.0673.5691 2.3981 1.6531.2086.6837-.0749 1.7692-.5315 2.0351-.3251.3782-3.0139.6677-3.7633.3666-1.623-.1986-2.98001-3.5001-2.34608-5.7163.25046-.8755.92391-1.441 1.72991-1.4528.20577-.003.24917-.0157.46697-.138.6243-.3502 1.4663-.1232 1.7116.4616.0513.1223.07.1223.3559-.0006.308-.1326.5509-.3634.8874-.8437l.0967-.1381-.1916-.2141c-.4144-.463-.4107-.6347.0267-1.2122l.1845-.2436-.1586-.2736c-.8077-1.3939-.7533-2.6834.2056-4.876l.2068-.4729-.1262.0064c-.9546.0479-2.7612.7369-3.95093 1.5067-.16988.1099-.32233.2005-.33882.2014-.01634.0008-.02474.1144-.01851.2523.00606.1382-.00592.3074-.02661.3762-.03624.1203-.03298.1321.08168.3024.54386.8087.68402 1.9166.33586 2.657-.16178.3441-.61075.7714-.82263.7831-.05679.0029-.07763.0325-.10112.1433-.21795 1.0241-1.73193 1.4923-2.54834.7881l-.14546-.1256-.29822.0148c-.83633.0417-1.55598-.4925-1.74328-1.2942-.03998-.1711-.06768-.2167-.2094-.3447-.68185-.6168-.83975-1.3144-.54184-2.3946.27909-1.012 1.24438-1.8424 2.42202-2.0837.23024-.0471.26867-.0647.30289-.1392.10003-.2174.34583-.3765.6008-.3893.03469-.0017.06223-.004.08697-.0093.028-.0061.05242-.016.07918-.0338.01229-.008.02505-.0177.03889-.0294.04107-.0349.07865-.0739.11613-.1128.01141-.0119.02282-.0237.0343-.0354.7279-.7584 1.87272-1.3676 2.93166-1.5912-4.66094-1.5349-7.87153-5.1385-8.66881-10.2361-.11792-.75404-.17019-2.14512-.17019-2.14512 4.085-.22265 8.16986-.44795 12.25468-.67469l.0359-.03998c.3555-.70905 1.3166-1.26669 2.1118-1.26537.7612.00127 1.5581.42077 1.9183 1.08211l1.0218-.04029c.4071-.59266.7506-1.07419 1.4828-1.30785.3953-.12625.8143-.11694 1.2023-.00066-.3087-.11839-.6342-.21908-.9752-.30161-.5179-.12554-.6258-.1887-.635-.37165z" mask="url(#a)" stroke="#f6fa5e" stroke-width="1.40356"/><path d="m12.3546 3.01855c.2549-.48117 1.0917-1.13221 1.6916-1.31594.3545-.10874.605-.0168.617.2262.0087.17625-.0893.29417-.6178.74392-.2811.2391-.6629.59286-.8483.78576-.1613.16802-.2805.29185-.3709.38332-.0765.07763-.1325.13192-.1762.17004l-.0234.01991-.0224.01773c-.0102.00778-.0199.01447-.0289.02023-.0113.00731-.0218.01307-.0317.01758-.0108.00482-.0209.00824-.031.01073-.0073.00187-.0145.00311-.0218.0042-.0067.00093-.0135.00156-.0207.00202l-.025.00156c-.3897.0196-.4287-.44928-.0905-1.08726z" mask="url(#a)" stroke="#f6fa5e" stroke-width="1.40356"/><g fill="#000"><path d="m14.0462 1.70261c-.5998.18373-1.4366.83477-1.6916 1.31594-.3382.63798-.2992 1.10686.0905 1.08726l.0251-.00156c.0071-.00046.014-.00109.0207-.00202.0073-.00109.0144-.00233.0217-.0042.0102-.00249.0203-.00591.031-.01073.01-.00451.0204-.01027.0317-.01758.0091-.00576.0187-.01245.029-.02023l.0224-.01773.0233-.01991c.0437-.03812.0997-.09241.1763-.17004.0904-.09147.2095-.2153.3708-.38331.1855-.19291.5672-.54667.8484-.78577.5284-.44975.6264-.56767.6177-.74392-.012-.243-.2624-.33494-.617-.2262z"/><path d="m19.7607 1.45215c-.1897.07171-.4022.31642-.3952.45534.0092.18295.1172.24611.6351.37165.5547.13426 1.0684.31658 1.5356.54495.7828.3827.9466.4233 1.0853.26991.2603-.28764-.4303-1.12786-1.2106-1.47337-.5549-.24549-1.2568-.3172-1.6502-.16848z"/><path d="m15.0056 4.99954c-1.0146.75341-.8766 3.61833.1965 4.07803.7256.31098 1.3159-.61324 1.326-2.07573.0014-.20768.0086-.30864-.0376-.36807-.0501-.0644-.1629-.07996-.4137-.12958-.777-.15417-.8181-.17657-.6255-.34427.2962-.25809.6895-.72666.6683-.7962-.0129-.04215-.0442-.09334-.0863-.14638-.0979-.12306-.2551-.25653-.381-.31161-.2606-.11387-.3928-.09474-.6467.09381z"/><path clip-rule="evenodd" d="m14.946 3.61002c-1.2944.41863-1.9803 2.60014-1.4705 4.6765.8257 3.36258 3.7314 2.84078 3.9893-.71655.1705-2.34921-1.1381-4.40659-2.5188-3.95995zm.7265.54806c1.1562.48086 1.698 3.13934.981 4.81277-.5877 1.37145-1.6519 1.43915-2.3609.15028-1.1532-2.09657-.1762-5.61005 1.3799-4.96305z" fill-rule="evenodd"/><path d="m20.5041 8.79242c-1.2579.07-1.6488-3.27966-.4836-4.14477.3284-.24409.6582-.19539.9522.14032.2302.26306.1644.39654-.4956 1.00559-.1103.10189-.1273.20441-.0374.22619.1968.04729.8598.18388.9367.19275.1507.01758.1748.10718.1557.57762-.0481 1.17499-.4564 1.97056-1.028 2.0023z"/><path clip-rule="evenodd" d="m18.7787 8.80704c-.9842-2.09751-.3148-5.18193 1.2379-5.56463 1.5164-.37367 2.7997 2.0384 2.396 4.50398-.2422 1.47991-1.0326 2.47071-1.9433 2.45481-.1301.5473-.6926 1.0285-1.4773 1.0678-1.8008.0904-2.0457-2.09715-.2744-2.45122.0202-.00405.0406-.00763.0611-.01074zm.5276.00311c.3327.05025.6515.18637.8494.38052.1594.1565.2598.33074.308.50979l.047-.00482c1.6942-.17439 2.0338-4.37034.4612-5.69795-1.5802-1.33414-2.9134 2.37069-1.7045 4.73686zm.5964 1.65465c.3993-.4414.1965-1.0288-.4267-1.23586-.7774-.25824-1.7777.23646-1.7427.86166.0439.7816 1.5636 1.0439 2.1694.3742z" fill-rule="evenodd"/><path d="m9.56388 7.44988c-.49066-.05461-.3186-.63409.27737-.93403.27455-.1383.26155-.13596.34675-.05896.2341.21173-.28094 1.0311-.62412.99299z"/><path d="m7.12786 7.84362c-.17035-.29247.04309-.74206.48785-1.02752.30523-.19602.51073-.0851.42579.22977-.21919.81159-.67407 1.20891-.91364.79775z"/><path d="m24.6476 6.91628c-.3364-.15323-.5693-.88828-.3109-.98225.2033-.07405.8083.46795.8218.7363.0114.22744-.2621.35905-.5109.24595z"/><path d="m26.6615 6.70036c-.4124-.17471-.7334-.60609-.5856-.78686.1294-.15821.736.02567.9698.29402.2953.33898.0366.67096-.3842.49284z"/><path d="m11.2911 8.13219c.0775-.19119.2567-.42656.3983-.52317.3338-.22822.4046.19928.1347.81393-.2495.56797-.7671.28562-.533-.29076z"/><path d="m8.61508 9.97364c-.57109.02866-.42548-.93822.20208-1.34114.19181-.12306.16801-.11932.30102-.04714.35578.19306-.06954 1.3665-.5031 1.38828z"/><path d="m25.2841 8.74839c-.3886-.44196-.4468-.56455-.3337-.70269.2623-.32078 1.385.42999 1.2411.82979-.1238.34349-.5459.28438-.9074-.1271z"/><path d="m10.5911 12.2278c-.3793-.1366-.3051-.8175.1444-1.3253.3522-.3979.6367-.2255.5514.3342-.1134.7448-.3688 1.1087-.6958.9911z"/><path d="m6.54541 22.9818c-.06596.3821-.16583.5142-.34504.4562-.16257-.0526-.19446-.2055-.11481-.5486.17221-.7405.58929-.6566.45985.0924z"/><path d="m5.75404 21.9999c-.0336.0812-.08198.1767-.15043.299-.07716.1378-.1957.3628-.26337.5-.17626.357-.2626.4247-.40712.3192-.20426-.149-.01291-.6955.42236-1.2069.21717-.2549.48848-.3293.46032-.126-.00917.0657-.028.133-.06176.2147z"/><path d="m5.46049 21.1068c-.02598.0468-.13348.147-.23911.2229-.10547.0759-.29557.2335-.42205.3502-.44368.409-.73925.255-.42516-.2214.38331-.5812 1.3945-.9085 1.08632-.3517z"/><path clip-rule="evenodd" d="m1.11831 6.99313c.79728 5.09767 4.00787 8.70117 8.66881 10.23617-1.05895.2235-2.20376.8327-2.93166 1.5911l-.06441.0665-.03375.0336c-.01945.0189-.03656.0348-.05227.0482-.01385.0116-.02661.0213-.0389.0294-.02675.0177-.05118.0277-.07918.0337-.02473.0053-.05227.0077-.08696.0094-.25498.0127-.50077.1719-.6008.3892-.03423.0745-.07265.0921-.30289.1392-1.17764.2413-2.14293 1.0717-2.42202 2.0837-.29791 1.0803-.14001 1.7778.54184 2.3946.14172.1281.16941.1737.20939.3448.1873.8016.90696 1.3358 1.74328 1.2941l.29823-.0147.14545.1255c.81642.7043 2.33039.236 2.54834-.7881.02349-.1108.04434-.1403.10112-.1433.21188-.0116.66085-.439.82264-.7831.34816-.7403.20799-1.8483-.33587-2.6569-.11465-.1704-.11792-.1822-.08167-.3025.02069-.0687.03267-.238.0266-.3761-.00622-.138.00218-.2516.01851-.2523.01649-.001.16895-.0915.33883-.2015 1.18973-.7697 2.99633-1.4588 3.95093-1.5067l.1262-.0063-.2068.4729c-.9589 2.1925-1.0133 3.482-.2056 4.8759l.1586.2737-.1845.2436c-.4374.5774-.4412.7492-.0267 1.2122l.1916.214-.0967.1382c-.3365.4802-.5794.7111-.8874.8436-.2859.1229-.3046.1229-.3559.0006-.2453-.5848-1.0873-.8117-1.7116-.4616-.2178.1223-.2612.1351-.46698.138-.80599.0119-1.47944.5773-1.7299 1.4529-.63394 2.2162.72307 5.5176 2.34608 5.7163.7494.301 3.4382.0115 3.7633-.3667.4566-.2659.7401-1.3514.5315-2.0351-.3308-1.084-1.2394-1.7105-2.3981-1.6531-.1812.0091-.1823.0084-.3225-.1554l-.1406-.1643.0709-.1196c.0683-.115.0842-.1227.4143-.2022.9628-.2323 1.9561-.9249 2.4867-1.7341.0218-.0332.0556-.077.0931-.1218l.0331-.0389.0291-.0324c.0235-.0258.0468-.0501.0683-.0709l.1392-.1357.2061.0426c.7898.1629 1.0033.1032 1.1136-.3111.0183-.0691.0378-.1212.0431-.1157.0054.0053.0611.1179.1238.2503.2189.4619.5521.5757 1.142.3906.1407-.0442.2719-.0834.292-.0871.0358-.0069.35.3499 1.0713 1.2167.2039.2453.5633.6726.7983.9497.3721.4389.9972 1.2509 1.2528 1.6276.0456.0673.0975.1922.1156.2776.0932.444.5048.8743.8251.8623.1786-.0066.2061.0389.2254.3723.0758 1.3116 1.5429 2.2456 2.8973 1.8446.6682-.1979.8947-.2993 1.2696-.5692.9569-.6886 2.1748-2.7514 2.5381-4.2988.5757-2.453.5102-3.2991-.3452-4.4606-1.1943-1.6215-3.1108-1.6468-4.474-.0593-.7235.8426-.9717 1.7586-.8978 3.3139l.0363.7609-.6134.0246-.156-.2163c-.0858-.119-.4095-.5614-.7192-.9831-.3098-.4218-.6859-.9432-.8357-1.1587-.1499-.2156-.3639-.5145-.4756-.664l-.203-.2719.1238-.2004c.1528-.2469.138-.3218-.1669-.8525-.1752-.3047-.1915-.3474-.1447-.3768.0643-.0402.26-.2251.3365-.3176.4841-.5857.703-2.4816.4538-3.9307l-.03-.1744.0969.0616c.0372.0235.1121.0616.2078.1065.148.0696.3454.1556.5277.2304.0748.0308.1472.0596.2127.0847.035.0133.0679.0256.0983.0365l.0481.0168c1.936.6588 3.499.3757 4.6463-.8418l.2994-.3178.1464.0315c.2933.0628.7275-.1964.9001-.5371l.0854-.1688.3843-.0325c.7122-.06 1.2999-.343 1.8033-.8725l1.0328.8722c.0049.0041.0109.0069.0171.0078l1.3697.2049c.0255.0039.0458-.0207.0376-.0451l-.4603-1.3465c-.0022-.0063-.0061-.0119-.0114-.0161l-1.1921-.9263c.1598-.3716.2796-.754.309-1.0256.0899-.8326-.2581-1.5674-.9028-1.9061-.1118-.0588-.1946-.1163-.184-.1281.0443-.049-.2133-.4333-.386-.5756-.2943-.2429-.827-.4236-1.1938-.4051-.1154.0057-.1419-.0058-.1794-.0783-.0432-.0834-.1087-.1649-.1867-.2389-.1715-.1626-.4032-.2886-.5888-.3175 1.1005-1.7681 1.8032-3.82684 1.9978-6.04056.0388-.43963-.0023-2.35092-.0524-2.44115-.0314-.05678-.1343-.0529-3.1502.11838l-4.4461.24347-.0173-.03516c-.0075-.01494-.0156-.03034-.0241-.04589-.4841-.87802-1.5666-1.32341-2.4955-1.02675-.6059.19337-1.0457.54449-1.3609 1.08679-.0308.05305-.0555.10408-.0745.15199l-.0474.06908-1.0115.04978-.0103-.00949c-.0095-.01743-.0202-.03594-.0324-.05554l-.0155-.02474-.0196-.03018c-.488-.73458-1.519-1.13252-2.3516-.90757-.6376.17236-1.4044.78919-1.611 1.20128l-.036.03999-4.99692.27737c-5.66295.30802-6.81025.37243-7.11781.3897l-.139855.00762c-.053515.14732.052275 1.39108.170195 2.14511zm25.46399-3.07805.7279-.03733.5199-.02769c.0115.68045-.1061 1.98254-.2511 2.73035-.5029 2.59315-1.7994 4.73699-3.9651 6.55679-.5754.421-1.1232.758-1.5543 1.0087.61-.8448.967-1.9108 1.0139-3.1211l.0158-.4133.3571-.5299c.4486-.66567.5784-.95736.4425-.995-.0208-.00591-.0973.06969-.17.16801-1.4331 1.93679-4.6223 3.07879-7.7152 2.76259-.9601-.098-2.4189-.5688-2.3834-.769.1246-.701-.0179-1.2979-.3065-1.28343-.0541.0028-.0888.01214-.1106.05353-.0331.0633-.0358.2014-.0308.505.0171 1.0572-.418 1.8484-1.2842 2.3346-.1836.1031-.2231.1398-.2277.212-.0158.2427.3456.1566 1.0261-.2446.0123-.0071.0812.0909.1534.2178.5712 1.0055 1.4964 1.8323 2.5489 2.3783-5.2332-.6535-9.23132-4.7224-9.69226-10.14526l-.02365-.27909 3.46246-.17377c3.88215-.19477 3.88075-.19181 3.85515-.13876l-.001.00218c-.0211.04496-.1431.48303-.2368.84986-.0049.01976.0041.05491.02.07809.0278.0403.0655.02443.1137-.049.0353-.05398.0764-.13908.1237-.25575.0224-.05492.0612-.13706.1087-.23102.0705-.13954.1601-.30522.2424-.44632.0869-.14919.1548-.26789.2066-.36325.0298-.03096.063-.06596.0997-.10516 1.0774-1.14886 2.2386-1.19025 3.148-.11232.0313.03702.0598.06969.0857.09832.0421.098.1007.20706.1765.32171.0866.13099.1812.2878.2101.34847.1046.21873.1898.07343.1446-.24642l-.028-.19804.3641-.0182c.362-.0182.3641-.01789.3479.05554-.0444.20037-.0431.30911.0039.32436.0756.02473.1036-.01027.2903-.36341l.0547-.10329.0496-.09288.0973-.18077c.9273-1.25682 2.3059-1.42079 3.1012-.41552.0268.05072.0635.11061.1114.18326.1734.26338.533.89311.5353.93729.0028.05741.0935.06799.1327.01572.0255-.03407.0274-.13333.0059-.32265l-.0308-.27349zm-7.2337 12.07762c.5829-.1578 1.1099-.4037 1.5718-.7254.5976-.2883 2.0873-1.14 3.0779-1.8455 2.128-1.7197 3.5432-4.05627 4.0704-6.7202.1665-.84146.267-2.2481.2317-2.87737.4317-.02419.8653-.05786 1.2951-.09145v.6182c.0597 4.55532-2.0927 8.64162-5.8114 11.03292-.0901.0579-.1514.0979-.196.1278-.0685.0455-.0982.0672-.1326.0922l-.0424.0308-.0495.035c-.0282.0196-.0636.0439-.1106.0755-.6577.443-.9791.6064-.9791.6064s-.4011.1778-.8681.362c.4065-.2953.7195-.6683.9158-1.1109.2229-.5027.213-.794-.0233-.6841-.0212.0098-.0837.125-.1391.2558-.7615 1.8012-3.3408 2.3349-6.3333 1.3103-.7147-.2445-.8662-.2476-.8547-.0172.0123.2467 1.2676.7398 2.3114.9247-6.6385.1736-12.66917-4.8707-13.27666-11.59787-.02007-.22199-.04605-.47245-.05787-.55662l-.02147-.15292 1.35577-.06814.02753.36341c.45923 6.06194 5.5279 10.65274 11.5059 10.58584.8614.2169 1.74.2413 2.5328.0268zm12.24 2.3557.0073.0064c.0043.0037.0096.0065.0152.0078l.5213.1167c-.0035-.1808.127-.3129.3225-.2956l-.1768-.5635c-.4146.0724-.5564.2903-.6895.7282zm-.9451-4.2533c.552.451.5898 1.3221.2928 2.1474l-.3903-.3032c.2196-.5185.1442-.6448-.1892-.1997-.6356.8492-.9572.986-1.4788.6294-.1478-.1011-.1607-.1573-.0916-.3987.0737-.2573.0619-.6394-.0288-.9292-.0316-.1012-.0496-.1535-.0443-.2034.0065-.0607.0474-.1177.1404-.2543.5111-.7503 1.2291-.9463 1.7898-.4883zm-.4759 3.3946-.5639-.4763c-.3667.0813-.7701-.0237-1.0815-.297l-.129-.1133-.1975.1018c-.9403.4839-2.3206-.2062-2.5607-1.2802-.1207-.5401.0825-.6322.2769-.1255.1531.3988.1702.4276.3666.6177.7378.7145 1.9133.682 2.0931-.0577.1865-.7669-.4415-1.5401-1.5595-1.92-.1466-.0498-.2566-.1035-.3316-.1621-.4555.4949-.9486.953-1.4757 1.3698.0019.0222.0035.0465.005.0728l.0034.069c.0361.8359.575 1.5585 1.3174 1.7659.3827.1069.4035.1078.399.0186-.01-.198.1854-.1813.2836.0243.4731.9922 1.0896 1.3071 2.069 1.0569.4065-.1037.7762-.3455 1.0854-.6647zm-18.1182-.1153c.4558.0833 1.16.174 1.5919.2155l.112.0051.0988.0052.0851.0052.0748.0053c.0126-.0023.012-.0067-.0039-.0132-.0103-.0042-.0271-.0093-.0507-.0154-2.1033-.5403-3.6434-1.2606-5.18131-2.4234-2.96122-2.2389-4.97208-5.8456-5.26563-9.44495l-.04932-.60562c-.6877.03442-1.37486.05259-2.06344.06082l.01338.25591c.32405 6.23544 4.39461 10.80774 10.63832 11.94954zm14.7434-3.949c.3453-.4036.6666-.8292.962-1.2748.0286.0218.0627.0434.1019.0644.1255.0671.2934.1821.3887.2606.0452.0372.0741.0661.0747.0783.0006.0123-.0687.0512-.1543.0865-.3517.1451-.7041.4909-.8267.8116-.026.068-.038.106-.0631.1195-.0327.0176-.0879-.0067-.2262-.0604-.0954-.037-.1811-.0657-.257-.0857zm-1.542 3.4744c-.3648-.3668-.6086-1.0015-.6374-1.4556-1.133.8266-2.4091 1.4685-3.7936 1.8826.0835.031.1795.0699.2889.117.107.0461.2269.0999.3604.162l.0804.0374c1.4166.6651 2.7248.788 3.5554.3345l.1907-.1042-.0146-.2684c-.012-.2181-.0022-.2954.0518-.4121l.0665-.1437zm2.8227-3.6582c.4891-.3612 1.1845-.3932 1.6302-.0753.2472.1765.2774.218.1634.2242-.4302.0233-1.0733.4624-1.3321.9093l-.094.1624-.1621-.1758c-.1374-.1489-.2744-.2525-.6357-.4807-.0712-.0451.1886-.3855.4303-.5641zm-.5829 11.3248c.4515.2387 1.0104.8624 1.2713 1.4188.0581.1237.1172.2682.1315.3211l.0258.0961-.1286-.1252c-.9756-.9488-2.2547-.8178-3.0647.3136-.486.6791-.544.9851-.4977 2.6254.0187.6596.0227 1.2654.0089 1.3464-.0938.5521-.3161.9732-.8181 1.5501-.5403.621-.7236 1.2915-.4705 1.7215.0786.1333.0406.1174-.2878-.1203-.7892-.5712-.9387-1.1944-.4861-2.0256.7529-1.3831.8285-1.6842.7616-3.0362-.0658-1.3276.0145-2.0028.3101-2.6134.6767-1.3974 2.1342-2.0587 3.2443-1.4723zm-.6042-6.8612c.1422.2556.5405.6473.7797.7669.0971.0485.1769.093.1772.0986.0016.0318-.2991.2948-.3573.3126-.1665.0507-.6887-.2468-1.2421-.7074-.4609-.3836-.4964-.4278-.5239-.652-.0288-.2344-.0114-.2436.2703-.1415.2547.0924.6365.1635.7256.1353.0241-.0076.0471.0026.0781.0406.0244.03.0538.0773.0924.1469zm-4.9308 13.7361c-.348-.6002.4732-1.8087 1.2559-1.848.0872-.0044.1641-.0039.2087.0004l.0143.0016.0122.0023.0046.0011c.0064.0019.0098.0041.0097.0064-.0349.4179-.2077.8636-.6634 1.7102-.0248.0462-.0488.0913-.0712.1339-.0296.056-.0565.108-.0795.1532-.0492.0968-.0803.1626-.08.1707.0075.1484-.4894-.1212-.6113-.3318zm-1.426-10.4901c.0217-.0288.0593-.0533.0839-.0546.0355-.0017.0474.0722.0585.3622.0389 1.0113-.1637 2.0188-.5195 2.5844l-.0191.0304-.0019.0032-.0342.054c-.0076.0114-.0146.0216-.0213.0306-.0032.0044-.0063.0085-.0094.0123-.0022.0027-.0043.0053-.0065.0077l-.0102.0102c-.0106.0095-.0206.0148-.031.0154-.0447.0027-.0947-.0804-.2131-.2773-.0105-.0175-.0215-.0358-.0332-.0551-.1943-.3222-.5587-.7931-.6118-.7903-.0963.0048.1899.7618.5467 1.446.1442.2764.1451.2876.0207.2473-.8706-.282-2.1764.4993-2.6139 1.5638l-.1191.29-.1819-.3066c-.427-.72-.7431-1.1383-.8559-1.1327-.0406.002-.0587.0191-.0473.0446.0471.1069.1503.4403.1395.4518-.0714.0779-.7738-.1338-1.1129-.3354-1.5653-.9308-2.1405-2.6271-1.5243-4.4959l.1139-.3454.2422.1852c1.6795 1.2832 4.3161 1.6835 6.0192.9139.2754-.1243.6775-.3735.7419-.4597zm-6.5277 4.1319c.7349.6401 1.3729.9082 2.083.8755.0695-.0032.1123-.0075.1321.0117.0323.0315.0034.1259-.07.3915l-.091.3291-.1094-.0036c-.6868-.0227-1.6487-.4186-2.1348-.8787-.511-.4836-.5146-.4939-.2954-.8252l.1356-.2051zm-.3185 5.6282c.1975.167.4579.5567.5624.8421.0772.2107.1253.4894.1106.6424-.0336.3533-.2372.8523-.3719.9114-.2783.2558-1.0755.398-2.2909.4487-.6238-.0028-.9544-.0767-1.4939-.3208-.64282-.3744-.99518-.8287-1.33898-1.7262-.73786-1.9264-.46919-3.8103.60469-4.241.03951-.0159.0714-.0288.09645-.0381.02333-.0086.04091-.0142.05351-.0162.00591-.001.01058-.0013.01431-.0006.00343.0006.00592.0018.00778.0038.01132.0121-.00609.0508-.03938.1248l-.00604.0134c-.187.4171-.21873 1.1985-.06721 1.6575.27722.8401 1.21577 1.2796 1.92767.9026.1423-.0752.1969-.0905.2321-.064.0871.065.0494.1132-.1267.1621-.5749.1593-1.1925.7741-1.4365 1.4301-.0353.0946-.0538.1948-.0415.2228.0114.0256.0182.0388.0655.0046.0546-.0396.1631-.1427.3956-.3636l.0002-.0001c.5429-.5157.6435-.6011.8201-.6963.7333-.3953 1.7896-.3496 2.3221.1006zm-3.1192-3.6969c.2991-.1635.6926-.109.9158.1268l.0154.0164.0019.0021c.0351.0368.0613.0643.0749.0858.0094.0144.0133.0263.0108.0364-.0084.0333-.0843.0497-.2593.0876l-.0355.0076c-.416.0902-.5271.1476-.64.331-.411.6666-.014 1.6727.647 1.6394.2554-.0128-.0076.1562-.3112.2-1.1289.1628-1.4797-1.9542-.4198-2.5331zm-1.62119-5.2023.02147.0451.02676.0598.02349.0552.02473.0605c.01136.0285.02272.0577.03407.0876.0823.2167.16039.4619.18746.6117.0084.0467.01556.0868.02131.1226.00638.0389.0112.0728.01463.1047.01213.1117.00793.1988-.00685.3878-.03018.3863-.1593.668-.42485.9266-.06192.0602-.10345.0992-.13286.1187-.05336.0353-.06705.0059-.08991-.0798-.01525-.0573-.05243-.1673-.08277-.2444-.05118-.1307-.05087-.1486.00389-.2598.201-.4082.17813-.953-.03951-.9421-.08883.0045-.12212.0703-.19664.3875-.04589.1958-.10936.3839-.18185.5431-.0473.1037-.09832.1952-.15075.2688-.09038.1269-.20239.3799-.20006.4522.00202.0625.21904-.0512.33587-.1762l.09692-.1037.02753.1248c.15013.6791-.32793 1.234-1.10234 1.2794-.62367.0365-.87491-.1671-1.23567-1.0009-.09334-.2163-.12663-.2387-.21235-.1436-.07794.0863-.07063.6103.01042.7406.13643.2202-.75776-.0333-1.01756-.2882-.37383-.3667-.46872-.8009-.33836-1.5487l.00591-.0338.02583-.1491c.00591-.0349.01089-.0655.01493-.0924.00685-.0441.01105-.0781.01276-.1037.00078-.0115.00093-.0214.00062-.0297-.00031-.0059-.00093-.011-.00171-.0154l-.00156-.006-.00186-.0049c-.00109-.0025-.00234-.0043-.00374-.006-.0133-.0146-.04185.0021-.08797.029-.00296.0018-.006.0035-.0091.0054-.11092.0647-.2528.32-.32125.5784-.05802.2185-.07498.212-.27955-.1066-.28484-.4437-.32996-.848-.16475-1.4715.25965-.9796.90509-1.6047 1.95906-1.897.03967-.0111.08214-.024.11776-.0355l.02038-.0067.02443-.0087.01369-.005.01446-.0059c.04605-.0203.05445.0036.06348.1831.02255.4524.29059 1.0192.63113 1.3348.76181.7063 1.5804.7844 2.3293.2223.07436-.0558.13986-.0966.14561-.0907.01961.0204.04605.0654.07592.1263zm-.42345-.8543c.08914-.0613.16926-.1117.17781-.1122.08447-.0042-.0644.3601-.1985.4857-.49626.4643-1.17982.4284-1.77098-.0929-.47401-.4183-.67313-1.2812-.38627-1.6744l.05741-.0785.00793.1941c.03967.9739 1.37723 1.7831 2.1126 1.2782zm7.71534-7.4242c.4861.1052.9687.4065 1.584.9891.2053.1946.3824.3535.3934.3529.0971-.0049-.0919-.4549-.2904-.6912l-.1498-.1786.1174-.0327c.6154-.1714 1.2917.1648 1.8153.9026.1761.2481.2568.3466.2344.4068-.0185.0499-.1077.0735-.2722.1341-1.6785.6184-3.8562.1232-5.2928-1.2036l-.1844-.1704.075-.0687c.4183-.3836 1.3103-.5831 1.9701-.4403zm15.1541 4.639c.1495-.4089.3203-.5836.6748-.7277l-.9091-.6806-.3304-.2472-.4048-.303c-.2001.41-.3107.5623-.493.6715z" fill-rule="evenodd"/><path d="m14.0462 1.70261c-.5998.18373-1.4366.83477-1.6916 1.31594-.3382.63798-.2992 1.10686.0905 1.08726l.0251-.00156c.0071-.00046.014-.00109.0207-.00202.0073-.00109.0144-.00233.0217-.0042.0102-.00249.0203-.00591.031-.01073.01-.00451.0204-.01027.0317-.01758.0091-.00576.0187-.01245.029-.02023l.0224-.01773.0233-.01991c.0437-.03812.0997-.09241.1763-.17004.0904-.09147.2095-.2153.3708-.38331.1855-.19291.5672-.54667.8484-.78577.5284-.44975.6264-.56767.6177-.74392-.012-.243-.2624-.33494-.617-.2262z"/><path d="m19.7607 1.45215c-.1897.07171-.4022.31642-.3952.45534.0092.18295.1172.24611.6351.37165.5547.13426 1.0684.31658 1.5356.54495.7828.3827.9466.4233 1.0853.26991.2603-.28764-.4303-1.12786-1.2106-1.47337-.5549-.24549-1.2568-.3172-1.6502-.16848z"/></g></svg>