<svg fill="none" height="104" viewBox="0 0 104 104" width="104" xmlns="http://www.w3.org/2000/svg"><path d="m51.2293.866699.0088 51.083001 17.2208-47.99928-17.2044 48.00528 32.3558-39.1261-32.3424 39.1376 43.5881-25.5338-43.5793 25.5491 49.5633-8.8617-49.5603 8.8792 49.5603 8.8792-49.5633-8.8617 43.5793 25.5492-43.5881-25.5338 32.3424 39.1375-32.3558-39.1261 17.2044 48.0057-17.2208-47.9996-.0088 51.0826-.0087-51.0826-17.2208 47.9996 17.2043-48.0057-32.3557 39.1261 32.3423-39.1375-43.58811 25.5338 43.57941-25.5492-49.56316 8.8617 49.56006-8.8792-49.56006-8.8792 49.56316 8.8617-43.57941-25.5491 43.58811 25.5338-32.3423-39.1376 32.3557 39.1261-17.2043-48.00528 17.2208 47.99928z" fill="#05070f" stroke="#05070f" stroke-width="4"/></svg>