<svg fill="none" height="104" viewBox="0 0 104 104" width="104" xmlns="http://www.w3.org/2000/svg"><path d="m51.2293.866699.004 51.082401 7.8765-50.45287-7.8687 50.45407 15.5552-48.58096-15.5477 48.58346 22.8508-45.5129-22.8438 45.5165 29.5839-41.3241-29.5775 41.3288 35.5884-36.1178-35.5828 36.1235 40.7166-30.0222-40.7119 30.0287 44.8422-23.1873-44.8386 23.1945 47.8636-15.7815-47.8612 15.7891 49.7067-7.9871-49.7055 7.995 50.3255.004-50.3255.004 49.7055 7.995-49.7067-7.987 47.8612 15.7891-47.8636-15.7815 44.8386 23.1945-44.8422-23.1874 40.7119 30.0288-40.7166-30.0223 35.5828 36.1236-35.5884-36.1179 29.5775 41.3289-29.5839-41.3242 22.8438 45.5166-22.8508-45.5129 15.5477 48.5837-15.5552-48.5812 7.8687 50.4542-7.8765-50.453-.004 51.082-.0039-51.082-7.8766 50.453 7.8688-50.4542-15.5553 48.5812 15.5477-48.5837-22.8508 45.5129 22.8438-45.5166-29.5838 41.3242 29.5774-41.3289-35.5884 36.1179 35.5828-36.1236-40.7166 30.0223 40.712-30.0288-44.84225 23.1874 44.83865-23.1945-47.86372 15.7815 47.86122-15.7891-49.70658 7.987 49.70538-7.995-50.325584-.004 50.325584-.004-49.70538-7.995 49.70658 7.9871-47.86122-15.7891 47.86372 15.7815-44.83865-23.1945 44.84225 23.1873-40.712-30.0287 40.7166 30.0222-35.5828-36.1235 35.5884 36.1178-29.5774-41.3288 29.5838 41.3241-22.8438-45.5165 22.8508 45.5129-15.5477-48.58346 15.5553 48.58096-7.8688-50.45407 7.8766 50.45287z" fill="#05070f" stroke="#05070f" stroke-width="4"/></svg>