<svg fill="none" height="184" viewBox="0 0 184 184" width="184" xmlns="http://www.w3.org/2000/svg" xmlns:xlink="http://www.w3.org/1999/xlink"><mask id="a" fill="#000" height="165" maskUnits="userSpaceOnUse" width="122" x="30.853" y="9.20593"><path d="m30.853 9.20593h122v165h-122z" fill="#fff"/><path clip-rule="evenodd" d="m97.3145 23.9812c-12.2601-6.9401-25.2251-10.1956-33.8044-9.7319-10.8177.5847-26.0052 10.5554-27.5321 25.0867-.1701 1.619-.1706 3.2947.0234 5.0203.8784 7.8138 5.7454 16.6517 16.9165 25.894l.0443.0366c.7526.6218 1.5338 1.2454 2.3442 1.8706 6.3509 4.9001 11.6738 9.5952 16.1375 14.1078 22.6741 22.9227 23.1775 41.1387 23.6326 57.6027.0352 1.274.0701 2.538.115 3.792.1451 4.056.3943 8.016 1.0941 11.927l.0145.081c.1306.75.239 1.646.3525 2.584.3885 3.213.8365 6.917 2.4369 6.917 1.4515 0 2.8565-2.601 4.1995-5.088.586-1.084 1.159-2.147 1.72-2.963 2.585-3.759 5.007-7.384 7.262-10.901 20.688-32.264 27.287-55.4754 15.903-90.8475-2.056-6.39-5.26-12.1063-9.206-17.146-.085-.108-.17-.2157-.255-.3231l.014-.0039c-.994-1.2695-2.045-2.4812-3.142-3.6413-3.935-4.2537-8.395-7.9458-13.074-11.0741-.087-.0583-.175-.1163-.262-.1742-1.623-1.0762-3.2725-2.0848-4.9345-3.0257zm32.1595 16.9817c.532-3.8783 4.107-6.5914 7.985-6.0599 3.879.5316 6.592 4.1066 6.06 7.9849-.531 3.8784-4.106 6.5914-7.985 6.0599-3.878-.5316-6.591-4.1066-6.06-7.9849zm15.391 10.6733c-1.987-.2724-3.819 1.1179-4.092 3.1054-.272 1.9875 1.118 3.8195 3.106 4.0919 1.987.2724 3.819-1.1179 4.091-3.1054.273-1.9875-1.117-3.8195-3.105-4.0919z" fill="#000" fill-rule="evenodd"/></mask><path d="m63.5101 14.2493.2191 4.0529zm33.8044 9.7319 1.9994-3.5321zm-61.3365 15.3548-4.0366-.4242zm.0234 5.0203-4.0335.4534zm16.9165 25.894-2.5872 3.1273.0009.0007zm.0443.0366-2.5864 3.128.0012.001zm2.3442 1.8706-2.4794 3.2136zm16.1375 14.1078-2.8857 2.8544zm23.6326 57.6027-4.0573.112zm.115 3.792-4.0562.145zm1.0941 11.927-3.9954.715.0006.003zm.0145.081 3.9989-.696-.002-.011-.002-.011zm.3525 2.584 4.0294-.487zm6.6364 1.829 3.571 1.929.031-.057.028-.057zm0 0-3.5714-1.929-.0304.057-.0286.057zm1.72-2.963 3.345 2.3zm7.262-10.901 3.417 2.191.97-1.512-.467-1.734zm0 0-3.416-2.191-.97 1.512.467 1.734zm15.903-90.8475-3.863 1.2435zm-9.206-17.146-3.196 2.5023zm-.255-.3231-1.111-3.9037-5.849 1.6648 3.781 4.7626zm.014-.0039 1.111 3.9037 5.807-1.6528-3.722-4.7533zm-3.142-3.6413-2.979 2.7563.015.0163.015.0161zm-13.074-11.0741 2.256-3.3743zm-.262-.1742 2.243-3.383zm27.225 13.956-4.021-.5512zm14.045 1.925-4.021-.5511zm-7.985 6.0599-.551 4.0212zm9.331 2.6884.551-4.0213zm-81.1358-33.334c7.5939-.4105 19.7889 2.5333 31.5858 9.2112l3.9989-7.0643c-12.7232-7.2024-26.4582-10.76971-36.0229-10.2527zm-23.7146 21.4579c.6232-5.9311 4.0656-11.158 8.8202-15.0598 4.7921-3.9326 10.4912-6.1601 14.8944-6.3981l-.4382-8.1058c-6.4144.3467-13.7179 3.3969-19.6058 8.2287-5.9252 4.8625-10.8401 11.8865-11.7438 20.4867zm.0202 4.1427c-.1611-1.4328-.1598-2.8142-.0202-4.1427l-8.0732-.8483c-.2006 1.9096-.2003 3.8795.0265 5.8979zm15.4704 23.2202c-10.6734-8.8305-14.7481-16.7947-15.4704-23.2202l-8.0669.9069c1.0345 9.2023 6.6938 18.9138 18.3628 28.5679zm.0434.0358-.0443-.0366-5.1727 6.2561.0442.0366zm2.2372 1.7852c-.7758-.5985-1.5216-1.194-2.2384-1.7862l-5.1704 6.2581c.7885.6514 1.6049 1.3032 2.45 1.9552zm16.5437 14.467c-4.6076-4.6581-10.0696-9.4718-16.5437-14.467l-4.9588 6.4271c6.2277 4.8049 11.4115 9.3814 15.7312 13.7486zm24.8042 60.345c-.2266-8.199-.4612-17.407-3.6738-27.499-3.2353-10.163-9.401-20.988-21.1304-32.846l-5.7713 5.7087c10.9448 11.0643 16.3679 20.8083 19.1666 29.6003 2.8214 8.863 3.066 16.995 3.2944 25.26zm.114 3.759c-.0442-1.235-.0787-2.482-.114-3.759l-8.1145.224c.0351 1.271.0705 2.551.1161 3.825zm1.0333 11.358c-.6483-3.624-.8901-7.355-1.0333-11.358l-8.1124.29c.147 4.109.4037 8.298 1.1549 12.497zm.014.077-.015-.081-7.9892 1.436.0145.081zm.387 2.815c-.11-.906-.231-1.918-.383-2.793l-7.9975 1.393c.1086.623.2043 1.405.3216 2.375zm-1.5925 3.346c1.4405 0 2.1985.919 2.3445 1.131.112.163.038.119-.1-.39-.267-.983-.446-2.386-.652-4.087l-8.0589.975c.1828 1.511.4223 3.567.8766 5.239.2223.819.5846 1.901 1.2432 2.86.6917 1.007 2.1061 2.389 4.3466 2.389zm.628-2.958c-.7113 1.317-1.262 2.321-1.7677 3.014-.2478.34-.352.416-.3013.376.0442-.035.5537-.432 1.441-.432v8.117c1.6135 0 2.8425-.722 3.6005-1.323.764-.605 1.367-1.335 1.82-1.957.895-1.228 1.719-2.768 2.35-3.938zm-.0589.113h-.0001l7.2605 3.63zm2.0064-3.447c-.711 1.033-1.395 2.31-1.9474 3.333l7.1424 3.858c.619-1.146 1.082-1.994 1.494-2.592zm7.19-10.793c-2.227 3.473-4.624 7.06-7.19 10.793l6.689 4.599c2.603-3.787 5.051-7.449 7.334-11.01zm-.503 3.246 7.839-2.11zm15.959-90.659c5.531 17.1852 6.608 31.1215 3.957 44.56-2.669 13.525-9.178 26.89-19.413 42.853l6.833 4.382c10.452-16.301 17.586-30.674 20.544-45.664 2.974-15.0755 1.659-30.4311-4.194-48.618zm-8.539-15.8872c3.684 4.7049 6.644 10.0011 8.539 15.8872l7.727-2.487c-2.219-6.894-5.666-13.0303-9.875-18.4049zm-.238-.3017c.08.1004.159.201.238.3017l6.392-5.0047c-.091-.1152-.181-.23-.272-.3443zm2.082-6.4314-.014.004 2.222 7.8075.014-.004zm-4.98 3.0512c1.017 1.0751 1.984 2.1916 2.895 3.355l6.392-5.0048c-1.077-1.3755-2.211-2.6824-3.389-3.9275zm-12.381-10.4886c4.447 2.9729 8.657 6.4628 12.351 10.4562l5.959-5.5126c-4.176-4.5141-8.887-8.4083-13.798-11.6921zm-.249-.1654c.083.0549.166.1101.249.1654l4.512-6.7485c-.092-.0611-.183-.1221-.275-.1829zm-4.691-2.8765c1.5817.8954 3.1496 1.8543 4.692 2.8765l4.485-6.766c-1.705-1.1303-3.436-2.1885-5.1781-3.1748zm42.695 3.3684c-6.099-.836-11.721 3.4307-12.557 9.5299l8.043 1.1024c.227-1.6575 1.755-2.817 3.412-2.5898zm9.53 12.5573c.836-6.0992-3.43-11.7213-9.53-12.5573l-1.102 8.0425c1.658.2272 2.817 1.755 2.59 3.4125zm-12.557 9.5299c6.099.836 11.721-3.4307 12.557-9.5299l-8.042-1.1023c-.227 1.6574-1.755 2.8169-3.413 2.5897zm-9.53-12.5573c-.836 6.0992 3.431 11.7213 9.53 12.5573l1.102-8.0425c-1.657-.2271-2.817-1.755-2.589-3.4124zm19.341 14.8811c-.032.2333-.247.3966-.48.3646l1.102-8.0425c-4.208-.5768-8.087 2.3672-8.664 6.5755zm-.364-.4805c.233.032.396.2471.364.4805l-8.042-1.1024c-.577 4.2084 2.367 8.0875 6.575 8.6643zm-.481.3646c.032-.2333.247-.3966.481-.3646l-1.103 8.0424c4.209.5769 8.088-2.3671 8.665-6.5754zm.365.4805c-.233-.032-.397-.2471-.365-.4805l8.043 1.1024c.577-4.2084-2.367-8.0875-6.576-8.6644z" fill="#f6fa5e" mask="url(#a)"/><path d="m99.2203 169.395c-1.436-3.253-2.3452-6.513-2.9347-9.808-.6998-3.911-.949-7.871-1.0941-11.927-.6249-17.465.6812-36.698-23.7476-61.3947-4.4637-4.5126-9.7866-9.2077-16.1375-14.1078-.8263-.6375-1.6222-1.2733-2.3885-1.9072-35.7801-29.602-6.8885-55.0561 10.5922-56.001 9.7424-.5266 25.1402 3.7429 38.7389 12.7576 6.177 4.0947 11.983 9.1685 16.719 15.2166 3.946 5.0397 7.15 10.756 9.206 17.146 11.385 35.3722 4.785 58.5835-15.903 90.8475-2.255 3.517-4.677 7.141-7.262 10.901-1.847 2.687-3.777 5.443-5.7887 8.277z" fill="#fff" stroke="#21242c" stroke-linecap="round" stroke-linejoin="round" stroke-width="1.66777"/><path d="m99.2207 169.395c-1.436-3.253-2.3452-6.513-2.9347-9.808-.6998-3.911-.949-7.872-1.0941-11.927 1.2098-1.251 4.7445-3.573 5.9541-1.071 1.21 2.501 3.092.695 5.512 0 2.419-.695 5.076 1.682 5.614 3.628-2.255 3.517-4.678 7.141-7.263 10.901-1.847 2.686-3.777 5.442-5.7883 8.277z" fill="#fff" stroke="#21242c" stroke-linecap="round" stroke-linejoin="round" stroke-width="1.66777"/><path d="m99.2203 169.395c-1.436-3.253-2.3452-6.513-2.9347-9.808 2.047-.067 6.6574.145 8.7234 1.53-1.847 2.687-3.777 5.443-5.7887 8.278z" fill="#21242c"/><g stroke="#21242c" stroke-linecap="round" stroke-width="1.66777"><path d="m55.0657 71.8306c-.8263-.6375-1.6222-1.2734-2.3885-1.9073 4.7717-14.6393 20.9011-41.2384 49.1138-42.9062 6.177 4.0947 12.2 8.8314 16.936 14.8794-27.3513 7.7829-42.6007 31.7253-47.3724 43.4923-4.4636-4.5126-9.938-8.6581-16.2889-13.5582z" fill="#fff" stroke-linejoin="round"/><path d="m88.8286 84.1868c5.2813 5.4202 15.8994 22.9592 16.1214 49.7552m14.037-27.657c-1.223 9.784-3.103 16.677-3.891 18.901m-1.529 5.142-1.251 3.614" stroke-linejoin="round"/><path d="m63.5101 14.2493c9.8049-.53 25.3381 3.7979 39.0009 12.9318-28.2133 1.6677-44.7771 28.4665-49.5488 43.1058-35.8483-29.6176-6.94-55.0923 10.5479-56.0376z" fill="#fff" stroke-linejoin="round"/><path d="m40.0464 41.2416c7.7829 2.3627 14.315-7.7829 15.8438-10.9794m2.2237-4.0305 1.3898-4.3084m-1.3898 52.3957c4.818-13.0641 21.4308-39.8874 49.3381-42.667" stroke-linejoin="round"/><path d="m63.9517 71.2615 6.532 5.6982m-3.0575-12.0913 6.671 6.3931m-2.0847-12.7863 6.5321 5.1423m-1.5288-11.6743 6.2542 6.532m-1.2509-10.9794 6.2542 5.4202m0-9.7286 6.2541 5.0033m1.1118-8.7558 4.7258 4.7253m2.779-8.0608 4.309 4.7253" stroke-linejoin="round"/><circle cx="118.293" cy="65.6178" fill="#fff" r="10.1803" stroke-linejoin="round"/><circle cx="101.719" cy="76.9596" fill="#fff" r="10.1803" stroke-linejoin="round"/></g><circle cx="105.853" cy="76.96" fill="#21242c" r="6.04566"/><circle cx="122.427" cy="65.6177" fill="#21242c" r="6.04566"/><circle cx="115.287" cy="77.7092" fill="#fff" r="4.95118" stroke="#21242c" stroke-linecap="round" stroke-linejoin="round" stroke-width="1.66777"/><path d="m103.977 91.8309c-.417 5.8372 5.838 8.3391 9.59 6.3931" stroke="#21242c" stroke-linecap="round" stroke-linejoin="round" stroke-width="1.66777"/><path d="m79.0285 21.7404c.2701-2.7356-9.8133-5.9582-14.141-3.1901-2.07 1.324-.087 3.5527 6.9959 4.6402 3.8215.5868 6.985.1711 7.1451-1.4501z" fill="#fff"/><path d="m88.8579 74.6896c-2.1579-2.9154.2144-9.2338 5.4429-10.0274" stroke="#21242c" stroke-linecap="round" stroke-linejoin="round" stroke-width="1.66777"/><path d="m111.875 53.7183c1.107-3.454 7.622-5.2168 11.318-1.4352" stroke="#21242c" stroke-linecap="round" stroke-linejoin="round" stroke-width="1.66777"/><circle cx="136.497" cy="41.9254" fill="#fff" r="7.08801" stroke="#21242c" stroke-linecap="round" stroke-width="1.66777" transform="matrix(-.99073599 -.13580203 .13580203 -.99073599 266.035936 101.998973)"/><circle cx="144.372" cy="55.2348" fill="#fff" r="2.77961" stroke="#21242c" stroke-linecap="round" stroke-width="1.66777" transform="matrix(-.99073599 -.13580203 .13580203 -.99073599 279.905539 129.563915)"/></svg>