<svg fill="none" height="184" viewBox="0 0 184 184" width="184" xmlns="http://www.w3.org/2000/svg" xmlns:xlink="http://www.w3.org/1999/xlink"><mask id="a" height="28" maskUnits="userSpaceOnUse" width="29" x="84" y="51"><circle cx="98.4823" cy="64.8742" fill="#fff" r="12.9136" stroke="#21242c" stroke-linecap="round" stroke-linejoin="round" stroke-width="1.3941" transform="matrix(.28532205 -.9584317 .9584317 .28532205 8.205638 140.752719)"/></mask><mask id="b" height="28" maskUnits="userSpaceOnUse" width="28" x="103" y="56"><circle cx="116.963" cy="70.3753" fill="#fff" r="12.9136" stroke="#21242c" stroke-linecap="round" stroke-linejoin="round" stroke-width="1.3941" transform="matrix(.28532205 -.9584317 .9584317 .28532205 16.140959 162.396722)"/></mask><mask id="c" height="17" maskUnits="userSpaceOnUse" width="29" x="89" y="83"><path d="m90.6752 87.1626c-.5267 4.4118 3.5549 10.4638 11.8468 11.4539 9.824 1.173 13.98-4.5115 14.434-8.3159.59-4.9388-5.432-4.4793-12.689-5.3459-7.2576-.8665-13.065-2.2039-13.5918 2.2079z" fill="#040605" stroke="#040605" stroke-linecap="round" stroke-linejoin="round" stroke-width="1.3941"/></mask><mask id="d" height="22" maskUnits="userSpaceOnUse" width="22" x="47" y="90"><circle cx="9.75975" cy="9.75975" fill="#fff" r="9.75975" stroke="#21242c" stroke-linecap="round" stroke-linejoin="round" stroke-width="1.3941" transform="matrix(-.34023 -.940343 -.940343 .34023 70.4238 106.75)"/></mask><mask id="e" height="22" maskUnits="userSpaceOnUse" width="22" x="33" y="95"><circle cx="9.75975" cy="9.75975" fill="#fff" r="9.75975" stroke="#21242c" stroke-linecap="round" stroke-linejoin="round" stroke-width="1.3941" transform="matrix(-.34023 -.940343 -.940343 .34023 56.7207 111.707)"/></mask><path d="m49.5094 138.159c.0012 0 .0024 0 .0036-.001.8939-.32 1.833-.659 2.8178-1.016h.0005l.0066-.002.0274-.01.0015-.001 16.4782-5.962.1437-.052c4.7455-1.717 8.5015-3.076 11.2974-4.534 2.8763-1.5 5.0093-3.24 6.2384-5.863 1.0616-2.265 1.1864-4.631.7548-7.283l21.7257 6.468h.002l.007.002.002.001.016.004.009.003c1.589.473 3.102.924 4.541 1.346.002.001.003.001.004.002l2.624.782c.63.195 1.166.37 1.63.539 1.008.367 1.48.638 1.747.865.209.178.653.757 1.469 2.286.771 1.446 1.74 3.464 3.071 6.237 4.788 9.982 14.808 15.445 24.933 16.696l.126.015c1.111.138 2.129.264 2.897.265.399 0 .918-.028 1.425-.202.571-.195 1.226-.616 1.58-1.414l-1.834-.812 1.834.812c.39-.881.175-1.701-.073-2.217-.23-.478-.572-.884-.863-1.195-.572-.611-1.433-1.352-2.411-2.194l-.093-.079c-3.347-2.882-4.884-6.793-4.751-12.921.135-6.238 2.001-14.499 5.261-25.725.725-2.332 1.487-4.8943 2.32-7.6927l.003-.007 1.884-6.3308.045-.1511c2.284-7.6717 4.057-13.6281 4.814-18.4485.771-4.9102.541-8.9415-1.457-12.633-1.997-3.6915-5.247-6.0884-9.779-8.1287-4.45-2.0029-10.406-3.7761-18.078-6.0599l-.151-.045-26.407-7.8614-.151-.0449c-7.6716-2.2839-13.628-4.0571-18.4485-4.8138-4.9102-.7707-8.9415-.5412-12.633 1.4566s-6.0884 5.2472-8.1287 9.7795c-1.9264 4.2794-3.6403 9.9528-5.8003 17.2055l-3.086.999c-.5192-2.3095-2.5825-4.0348-5.0488-4.0348-2.858 0-5.1748 2.3168-5.1748 5.1748 0 2.0077 1.1434 3.7484 2.8145 4.6064-.1306 3.114.9544 6.2722 1.913 8.8316.1836.4903.3635.9593.5364 1.4104.4479 1.168.8499 2.2163 1.1534 3.2055.2183.7117.3478 1.283.4086 1.738-.8311.2979-1.6996.6121-2.6067.9403l-.0028.001-.0008.0003-.0036.0013v-.0001l-.0018.0008-.0101.0036-.001.0004-16.4686 5.9585-.1438.0521c-4.7455 1.7169-8.5014 3.0758-11.2973 4.5342-2.8762 1.5004-5.0093 3.2401-6.2383 5.8627-1.229 2.6222-1.2011 5.3752-.5137 8.5452.6682 3.082 2.0272 6.838 3.7443 11.583l.052.144 1.4294 3.951.003.008c.63 1.741 1.2089 3.341 1.7558 4.798 2.4816 7.006 3.9372 12.099 4.2436 15.947.2977 3.739-.5036 6.034-2.3194 7.79l-.0764.074c-.5714.552-1.1169 1.079-1.4837 1.52-.188.225-.4479.565-.6197.982-.1875.455-.3519 1.225.0612 2.029.3717.723 1.0024 1.071 1.5134 1.214.4464.125.8737.118 1.1544.101.5346-.031 1.2172-.156 1.8923-.28l.1066-.019c6.5633-1.2 12.9766-5.161 15.7694-11.964.7455-1.817 1.2795-3.116 1.708-4.045.2129-.461.3805-.788.5157-1.017.1155-.196.1762-.266.1798-.271.0716-.066.2711-.212.8524-.463.2751-.118.5954-.244.9783-.387zm-23.9296 14.987h.0128c-.0087.001-.0128 0-.0128 0zm27.5919-91.7832c0 .046-.0028.0913-.0082.1359l-1.7329.5609c-.0633.0205-.1251.044-.1855.0703-.1893-.2-.3054-.47-.3054-.7671 0-.6164.4996-1.116 1.116-1.116.6163 0 1.116.4996 1.116 1.116zm-11.2397 19.3176c4.0368 0 7.3092-3.2724 7.3092-7.3092s-3.2724-7.3093-7.3092-7.3093-7.3093 3.2725-7.3093 7.3093 3.2725 7.3092 7.3093 7.3092z" fill="#fff" stroke="#31f7c8" stroke-linecap="round" stroke-linejoin="round" stroke-width="4.05882"/><path d="m104.773 37.5864 26.408 7.8614c15.599 4.6438 23.398 6.9658 26.802 13.2545 3.403 6.2887 1.081 14.0883-3.563 29.6876l-1.884 6.3308c-.837 2.8117-1.599 5.3703-2.322 7.6943-6.525 22.466-7.767 33.987.111 40.768 2.114 1.82 3.171 2.73 2.907 3.326-.263.595-1.483.445-3.923.143-9.625-1.189-18.936-6.353-23.352-15.559-2.644-5.51-3.966-8.266-5.056-9.192-1.089-.927-2.974-1.48-6.742-2.587-1.444-.424-2.964-.877-4.565-1.353l-26.4075-7.862c-15.5993-4.644-23.3989-6.966-26.8023-13.2543-3.4034-6.2887-1.0815-14.0883 3.5624-29.6875l1.8847-6.3309c4.6438-15.5992 6.9657-23.3988 13.2545-26.8022 6.2887-3.4034 14.0883-1.0815 29.6872 3.5623z" fill="#fff"/><g stroke="#040605" stroke-linecap="round" stroke-width="1.3941"><path d="m114.159 119.314c-1.444-.424-2.964-.877-4.565-1.353l-26.4075-7.862c-15.5993-4.644-23.3989-6.966-26.8023-13.2543-3.4034-6.2887-1.0815-14.0883 3.5624-29.6875l1.8847-6.3309c4.6438-15.5992 6.9657-23.3988 13.2545-26.8022 6.2887-3.4034 14.0883-1.0815 29.6872 3.5623l26.408 7.8614c15.599 4.6438 23.398 6.9658 26.802 13.2545 3.403 6.2887 1.081 14.0883-3.563 29.6876l-1.884 6.3308c-.837 2.8117-1.599 5.3703-2.322 7.6943-6.525 22.466-7.767 33.987.111 40.768 2.114 1.82 3.171 2.73 2.907 3.326-.263.595-1.483.445-3.923.143-9.625-1.189-18.936-6.353-23.352-15.559-2.644-5.51-3.966-8.266-5.056-9.192-1.089-.927-2.974-1.48-6.742-2.587zm0 0 13.125 3.913" stroke-linejoin="round"/><path d="m121.8 88.2018c.482 2.2486-.002 5.1519-1.265 7.2664"/><circle cx="98.4823" cy="64.8742" fill="#fff" r="12.9136" stroke-linejoin="round" transform="matrix(.28532205 -.9584317 .9584317 .28532205 8.205638 140.752719)"/></g><g mask="url(#a)"><circle cx="89.7472" cy="69.0845" fill="#040605" r="10.1206" transform="matrix(.28532205 -.9584317 .9584317 .28532205 -2.07243 135.389731)"/></g><circle cx="116.963" cy="70.3752" fill="#fff" r="12.9136" stroke="#040605" stroke-linecap="round" stroke-linejoin="round" stroke-width="1.3941" transform="matrix(.28532205 -.9584317 .9584317 .28532205 16.141054 162.396651)"/><g mask="url(#b)"><circle cx="108.228" cy="74.5855" fill="#040605" r="10.1206" transform="matrix(.28532205 -.9584317 .9584317 .28532205 5.863057 157.033759)"/></g><path d="m90.6752 87.1626c-.5267 4.4118 3.7439 11.0189 11.8238 11.9836 10.41 1.2428 14.003-5.0412 14.457-8.8456.59-4.9388-5.432-4.4793-12.689-5.3459-7.2576-.8665-13.065-2.2039-13.5918 2.2079z" fill="#040605" stroke="#040605" stroke-linecap="round" stroke-linejoin="round" stroke-width="1.3941"/><g mask="url(#c)"><path d="m95.2363 99.3018c-1.5177-8.2574 1.8591-13.817 9.4837-17.2005l6.848.8177 10.177 2.0226-.443 9.8001-8.309 6.6803z" fill="#fff" stroke="#040605" stroke-linecap="round" stroke-linejoin="round" stroke-width="1.3941"/></g><path d="m99.6421 84.3704c1.4399.1716 2.9959.3898 4.6249.5843 7.257.8666 13.279.4071 12.689 5.3459-.454 3.8044-5.259 10.5684-14.371 9.0056-7.257-.8665-12.4365-7.7318-11.9098-12.1436.4086-3.4215 3.9931-3.3851 8.9669-2.7922zm0 0c-4.7199-.3423-7.3654-.6143-12.0954-1.3355" stroke="#040605" stroke-linecap="round" stroke-linejoin="round" stroke-width="1.3941"/><path d="m51.7816 84.0065-16.4796 5.9626c-9.7349 3.5222-14.6023 5.2833-16.5323 9.4017-1.9301 4.1182-.169 8.9862 3.3533 18.7212l1.4294 3.95c.6349 1.755 1.2125 3.352 1.7571 4.801 4.969 14.026 6.1815 21.296 1.4282 25.892-1.2757 1.233-1.9135 1.85-1.7242 2.218.1894.369.9585.228 2.4968-.053 6.0679-1.109 11.7907-4.73 14.2568-10.738 1.4761-3.596 2.2142-5.394 2.8722-6.023.658-.628 1.8342-1.049 4.1866-1.891.9013-.322 1.8495-.665 2.849-1.027l16.4797-5.962c9.7348-3.522 14.6023-5.284 16.5323-9.402s.1689-8.986-3.3533-18.721l-1.4295-3.9505c-3.5222-9.7349-5.2833-14.6023-9.4017-16.5323-4.1185-1.93-8.9859-.1689-18.7208 3.3533z" fill="#fff"/><path d="m48.8259 136.248c.9013-.322 1.8495-.665 2.849-1.027l16.4797-5.962c9.7348-3.522 14.6023-5.284 16.5323-9.402s.1689-8.986-3.3533-18.721l-1.4295-3.9505c-3.5222-9.7349-5.2833-14.6023-9.4017-16.5323-4.1185-1.93-8.9859-.1689-18.7208 3.3533l-16.4796 5.9626c-9.7349 3.5222-14.6023 5.2833-16.5323 9.4017-1.9301 4.1182-.169 8.9862 3.3533 18.7212l1.4294 3.95c.6349 1.755 1.2125 3.352 1.7571 4.801 4.969 14.026 6.1815 21.296 1.4282 25.892-1.2757 1.233-1.9135 1.85-1.7242 2.218.1894.369.9585.228 2.4968-.053 6.0679-1.109 11.7907-4.73 14.2568-10.738 1.4761-3.596 2.2142-5.394 2.8722-6.023.658-.628 1.8342-1.049 4.1866-1.891zm0 0-8.1905 2.968" stroke="#040605" stroke-linecap="round" stroke-linejoin="round" stroke-width="1.3941"/><circle cx="9.75975" cy="9.75975" fill="#fff" r="9.75975" stroke="#040605" stroke-linecap="round" stroke-linejoin="round" stroke-width="1.3941" transform="matrix(-.34023 -.940343 -.940343 .34023 70.4238 106.75)"/><g mask="url(#d)"><circle cx="7.64886" cy="7.64886" fill="#040605" r="7.64886" transform="matrix(-.34023 -.940343 -.940343 .34023 74.2368 100.438)"/></g><circle cx="9.75975" cy="9.75975" fill="#fff" r="9.75975" stroke="#040605" stroke-linecap="round" stroke-linejoin="round" stroke-width="1.3941" transform="matrix(-.34023 -.940343 -.940343 .34023 56.7207 111.707)"/><g mask="url(#e)"><circle cx="7.64886" cy="7.64886" fill="#040605" r="7.64886" transform="matrix(-.34023 -.940343 -.940343 .34023 60.5342 105.396)"/></g><path d="m51.0071 115.507c.7073 1.153.9563 2.426.4932 3.535m-2.6985 2.232c1.4669-.53 2.3203-1.326 2.6985-2.232m0 0c3.3235 1.725 8.3653.334 10.0483-3.635" stroke="#040605" stroke-linecap="round" stroke-width="1.3941"/><circle cx="41.9317" cy="73.371" fill="#fff" r="5.27985" stroke="#040605" stroke-linecap="round" stroke-linejoin="round" stroke-width="1.3941"/><circle cx="52.0556" cy="61.3627" fill="#fff" r="3.1454" stroke="#040605" stroke-linecap="round" stroke-linejoin="round" stroke-width="1.3941"/></svg>