<svg fill="none" height="91" viewBox="0 0 225 91" width="225" xmlns="http://www.w3.org/2000/svg" xmlns:xlink="http://www.w3.org/1999/xlink"><clipPath id="a"><path d="m49.2217.165527h126.336v35.9478h-126.336z"/></clipPath><g clip-path="url(#a)"><g fill="#17313b"><path d="m87.8459.165771h-5.7517v35.947829h5.7517z"/><path d="m107.977 24.646c0 5.5014-4.626 5.94-6.002 5.94-3.4382 0-4.0637-3.2181-4.0637-5.1592v-13.758h-5.7516v13.7292c0 3.4079 1.0698 6.2204 2.9448 8.0954 1.6565 1.658 4.1383 2.5638 6.8275 2.5638 1.906 0 4.607-.5938 6.045-1.9066v1.9627h5.751v-24.4445h-5.751z"/><path d="m125.231 3.0415h-5.751v8.6275h-4.314v5.7516h4.314v18.6929h5.751v-18.6929h4.314v-5.7516h-4.314z"/><path d="m147.659 28.8048c-1.253 1.1258-2.906 1.7499-4.721 1.7499-4 0-6.938-2.9377-6.938-6.971s2.844-6.8473 6.938-6.8473c1.783 0 3.468.5938 4.752 1.7197l.873.7506 3.878-3.8766-.971-.8757c-2.281-2.0605-5.311-3.2166-8.534-3.2166-7.189 0-12.41 5.188-12.41 12.3157 0 7.0975 5.346 12.471 12.41 12.471 3.283 0 6.345-1.1561 8.598-3.2497l.937-.8757-3.938-3.8737z"/><path d="m172.97 13.8c-1.657-1.6564-3.598-2.5623-6.287-2.5623-1.906 0-4.066.5938-5.504 1.9052v-12.977129h-5.752v35.947829h5.752v-13.4661c0-5.5014 3.908-5.9386 5.284-5.9386 3.438 0 3.343 3.2195 3.343 5.1578v14.2469h5.752v-14.2167c0-3.4078-.712-6.2204-2.588-8.0969z"/></g><path d="m142.748 19.489c2.298 0 4.16 1.8592 4.16 4.1585 0 2.2963-1.862 4.1584-4.16 4.1584-2.297 0-4.157-1.8621-4.157-4.1584.001-2.2978 1.862-4.1585 4.157-4.1585z" fill="#ff3d2e"/><path d="m74.042 27.085c-2.1871 2.2503-5.1578 3.4697-8.2838 3.4697-6.4074 0-11.0662-5.0327-11.0662-11.9405 0-6.9393 4.6588-11.97202 11.0662-11.97202 3.0958 0 6.0334 1.21791 8.2536 3.43802l.8742.8757 3.845-3.84496-.8441-.87569c-3.1878-3.28275-7.5015-5.06289-12.1287-5.06289-9.4399 0-16.536 7.50159-16.536 17.47204 0 9.9403 7.1277 17.4117 16.536 17.4117 4.6588 0 8.9725-1.8118 12.1604-5.0945l.844-.8757-3.8133-3.9068z" fill="#17313b"/></g><g fill="#ff3d2e"><path d="m40.3238 64.2675c-.1683-.5294-.4926-.9956-.9304-1.3374-.4378-.3419-.9687-.5435-1.5231-.5783l-9.9818-.689-3.697-9.3265c-.2019-.5136-.5533-.9547-1.0087-1.2663-.4554-.3115-.9938-.4793-1.5456-.4814-.5518.0021-1.0902.1699-1.5456.4814-.4554.3116-.8068.7527-1.0087 1.2663l-3.7642 9.3769-9.91463.6386c-.5537.0371-1.08352.2395-1.52092.5811-.4374.3415-.76225.8064-.93254 1.3346-.17486.5362-.18508 1.1126-.02933 1.6547.15575.5422.47033 1.0252.90317 1.3869l7.62925 6.4529-2.26862 8.9232c-.15696.6036-.12871 1.2405.08107 1.8279s.59139 1.0981 1.09525 1.4658c.4891.351 1.0717.5481 1.6735.566.6017.018 1.1951-.144 1.7042-.4652l7.8813-4.9909h.0336l8.4863 5.3606c.4353.2829.9428.4346 1.462.4369.4239-.0033.8413-.1038 1.2203-.2937s.7094-.4642.9658-.8017c.2564-.3376.4321-.7295.5133-1.1455.0813-.416.0662-.8452-.0443-1.2544l-2.4031-9.7634 7.5957-6.3185c.4328-.3617.7474-.8447.9031-1.3869.1558-.5421.1456-1.1185-.0293-1.6547z"/><path d="m85.7008 64.2675c-.1683-.5294-.4926-.9956-.9304-1.3374-.4378-.3419-.9687-.5435-1.5231-.5783l-9.9819-.689-3.697-9.3265c-.2018-.5136-.5532-.9547-1.0086-1.2663-.4554-.3115-.9939-.4793-1.5456-.4814-.5518.0021-1.0903.1699-1.5457.4814-.4554.3116-.8068.7527-1.0086 1.2663l-3.7642 9.3769-9.9147.6386c-.5537.0371-1.0835.2395-1.5209.5811-.4374.3415-.7622.8064-.9325 1.3346-.1749.5362-.1851 1.1126-.0294 1.6547.1558.5422.4704 1.0252.9032 1.3869l7.6292 6.4529-2.2686 8.9232c-.1569.6036-.1287 1.2405.0811 1.8279s.5914 1.0981 1.0952 1.4658c.4891.351 1.0718.5481 1.6735.566.6017.018 1.1951-.144 1.7042-.4652l7.8814-4.9909h.0336l8.4862 5.3606c.4353.2829.9429.4346 1.462.4369.4239-.0033.8414-.1038 1.2204-.2937s.7094-.4642.9658-.8017c.2564-.3376.432-.7295.5133-1.1455s.0661-.8452-.0444-1.2544l-2.403-9.7634 7.5956-6.3185c.4329-.3617.7474-.8447.9032-1.3869.1557-.5421.1455-1.1185-.0293-1.6547z"/><path d="m131.077 64.2675c-.168-.5294-.492-.9956-.93-1.3374-.438-.3419-.969-.5435-1.523-.5783l-9.982-.689-3.697-9.3265c-.202-.5136-.553-.9547-1.009-1.2663-.455-.3115-.994-.4793-1.545-.4814-.552.0021-1.091.1699-1.546.4814-.455.3116-.807.7527-1.009 1.2663l-3.764 9.3769-9.9145.6386c-.5537.0371-1.0835.2395-1.5209.5811-.4374.3415-.7623.8064-.9326 1.3346-.1748.5362-.1851 1.1126-.0293 1.6547.1557.5422.4703 1.0252.9032 1.3869l7.6291 6.4529-2.2685 8.9232c-.157.6036-.1287 1.2405.0815 1.8279.209.5874.591 1.0981 1.095 1.4658.489.351 1.072.5481 1.673.566.602.018 1.195-.144 1.705-.4652l7.881-4.9909h.033l8.487 5.3606c.435.2829.943.4346 1.462.4369.424-.0033.841-.1038 1.22-.2937s.709-.4642.966-.8017c.256-.3376.432-.7295.513-1.1455s.066-.8452-.044-1.2544l-2.403-9.7634 7.595-6.3185c.433-.3617.748-.8447.904-1.3869.155-.5421.145-1.1185-.03-1.6547z"/><path d="m176.454 64.2674c-.169-.5294-.493-.9956-.931-1.3375-.437-.3418-.968-.5434-1.523-.5783l-9.982-.6889-3.697-9.3265c-.202-.5136-.553-.9547-1.008-1.2663-.456-.3116-.994-.4793-1.546-.4814-.552.0021-1.09.1698-1.546.4814-.455.3116-.806.7527-1.008 1.2663l-3.764 9.3769-9.915.6385c-.554.0372-1.084.2396-1.521.5811-.437.3416-.762.8065-.933 1.3347-.174.5362-.185 1.1126-.029 1.6547s.47 1.0252.903 1.3869l7.63 6.4529-2.269 8.9232c-.157.6036-.129 1.2405.081 1.8279s.591 1.0981 1.095 1.4658c.489.351 1.072.5481 1.674.566.601.018 1.195-.144 1.704-.4652l7.881-4.991h.034l8.486 5.3607c.435.2829.943.4345 1.462.4369.424-.0033.842-.1038 1.221-.2937s.709-.4642.965-.8018c.257-.3375.432-.7294.514-1.1454.081-.4161.066-.8452-.045-1.2544l-2.403-9.7634 7.596-6.3185c.433-.3617.747-.8448.903-1.3869s.146-1.1185-.029-1.6547z"/><path d="m221.83 64.2672c-.168-.5293-.492-.9955-.93-1.3374-.438-.3418-.969-.5434-1.523-.5783l-9.982-.689-3.697-9.3265c-.202-.5135-.553-.9546-1.009-1.2662-.455-.3116-.994-.4793-1.545-.4814-.552.0021-1.091.1698-1.546.4814s-.807.7527-1.009 1.2662l-3.764 9.3769-9.915.6386c-.553.0372-1.083.2396-1.52.5811-.438.3415-.763.8065-.933 1.3346-.175.5363-.185 1.1127-.029 1.6548.155.5421.47 1.0252.903 1.3868l7.629 6.453-2.269 8.9231c-.157.6037-.128 1.2406.081 1.828.21.5874.592 1.0981 1.096 1.4657.489.351 1.071.5481 1.673.5661s1.195-.144 1.704-.4652l7.882-4.991h.033l8.487 5.3607c.435.2828.942.4345 1.462.4369.424-.0034.841-.1038 1.22-.2937.379-.19.709-.4642.966-.8018.256-.3375.432-.7294.513-1.1454.081-.4161.066-.8452-.044-1.2545l-2.403-9.7634 7.595-6.3185c.433-.3616.748-.8447.903-1.3868.156-.5421.146-1.1185-.029-1.6548z"/></g></svg>