<svg fill="none" height="56" viewBox="0 0 241 56" width="241" xmlns="http://www.w3.org/2000/svg"><g fill="#fff"><path d="m60.035 36.2887-4.9837 5.3363c-.1084.1168-.2395.2102-.3852.2747s-.303.0986-.4623.1003h-23.625c-.1126-.0007-.2226-.0342-.3165-.0962-.094-.0621-.1679-.1501-.2128-.2534-.0449-.1032-.0588-.2173-.04-.3283.0187-.1111.0693-.2143.1455-.2971l4.9838-5.3437c.1084-.1168.2395-.2103.3852-.2747.1457-.0645.303-.0986.4623-.1003h23.625c.1141-.0007.2258.0323.3213.0947s.1705.1515.2156.2563c.0452.1047.0586.2205.0385.3328-.0202.1122-.0729.2161-.1517.2986zm-4.9837-10.7625c-.108-.1172-.239-.211-.3848-.2756-.1458-.0645-.3033-.0983-.4627-.0994h-23.625c-.1126-.0002-.2228.0325-.3171.094-.0943.0616-.1685.1494-.2135.2526s-.0589.2173-.0399.3283.07.214.1467.2964l4.9838 5.3513c.108.1172.239.211.3848.2756.1458.0645.3033.0983.4627.0994h23.625c.1126.0002.2228-.0325.3171-.094.0943-.0616.1685-.1494.2135-.2526s.0589-.2173.0399-.3283-.07-.214-.1468-.2964zm-24.4725-3.84h23.625c.1593-.0017.3166-.0358.4623-.1003.1457-.0644.2768-.1579.3852-.2747l4.9837-5.3362c.0763-.0828.1269-.186.1456-.2971.0188-.111.0049-.2251-.04-.3283-.0449-.1033-.1188-.1913-.2128-.2534-.0939-.062-.2039-.0955-.3165-.0962h-23.625c-.1593.0017-.3166.0358-.4623.1003s-.2768.1579-.3852.2747l-4.9838 5.3362c-.0762.0829-.1268.1861-.1455.2971-.0188.111-.0049.2251.04.3284s.1188.1913.2128.2533c.0939.0621.2039.0955.3165.0962z"/><path d="m88.6813 26.4h-12.63v-4.2h15.9188v-4.2h-15.9488c-1.1059 0-2.1666.4393-2.9486 1.2214-.782.782-1.2214 1.8426-1.2214 2.9486v4.26c0 .5476.1079 1.0899.3174 1.5958.2096.5059.5168.9656.904 1.3528.782.7821 1.8427 1.2214 2.9486 1.2214h12.63v4.2h-16.5v4.2h16.53c1.106 0 2.1666-.4393 2.9487-1.2214.782-.782 1.2213-1.8426 1.2213-2.9486v-4.26c0-.5476-.1078-1.0899-.3174-1.5958s-.5167-.9656-.9039-1.3528c-.3873-.3873-.847-.6944-1.3529-.904-.5059-.2095-1.0482-.3174-1.5958-.3174z"/><path d="m113.124 18h-12.664c-1.1059 0-2.1666.4393-2.9486 1.2214-.782.782-1.2214 1.8426-1.2214 2.9486v12.66c0 1.106.4394 2.1666 1.2214 2.9486.782.7821 1.8427 1.2214 2.9486 1.2214h12.664c.547 0 1.089-.1079 1.595-.3175s.965-.5168 1.352-.9041.694-.847.903-1.3529.317-1.0481.316-1.5955v-12.66c.001-.5474-.107-1.0896-.316-1.5955s-.516-.9656-.903-1.3529-.846-.6945-1.352-.9041-1.048-.3175-1.595-.3175zm-.034 16.8h-12.6v-12.6h12.6z"/><path d="m157.497 18h-12.375c-.547 0-1.089.1079-1.595.3174-.506.2096-.966.5167-1.353.904-.387.3872-.695.8469-.904 1.3528-.21.5059-.318 1.0482-.318 1.5958v16.83h4.2v-6.9h12.3v6.9h4.2v-16.83c0-1.1034-.437-2.1617-1.216-2.9433-.778-.7816-1.835-1.2227-2.939-1.2267zm-.03 9.9h-12.3v-5.7h12.3z"/><path d="m206.675 18h-12.375c-1.103.004-2.16.4451-2.939 1.2267s-1.216 1.8399-1.216 2.9433v16.83h4.2v-6.9h12.3v6.9h4.2v-16.83c0-.5476-.108-1.0899-.317-1.5958-.21-.5059-.517-.9656-.904-1.3528-.388-.3873-.847-.6944-1.353-.904-.506-.2095-1.048-.3174-1.596-.3174zm-.03 9.9h-12.3v-5.7h12.3z"/><path d="m182.206 34.8001h-1.68l-6-15.0525c-.208-.5188-.568-.9629-1.032-1.2745-.464-.3117-1.011-.4765-1.57-.473h-3.75c-.737 0-1.444.2927-1.965.8138s-.814 1.2279-.814 1.9649v18.2213h4.2v-16.8h1.68l6.023 15.0525c.206.5175.564.9609 1.026 1.2725.462.3117 1.007.4771 1.565.475h3.75c.365 0 .726-.0719 1.063-.2116.337-.1396.644-.3443.902-.6023.258-.2581.462-.5644.602-.9015s.212-.6985.212-1.0634v-18.2212h-4.2z"/><path d="m125.229 18h-4.2v16.83c0 1.106.439 2.1666 1.221 2.9486.782.7821 1.843 1.2214 2.949 1.2214h12.63v-4.2h-12.6z"/></g></svg>