<svg fill="none" height="56" viewBox="0 0 242 56" width="242" xmlns="http://www.w3.org/2000/svg"><path d="m132.407 8.15124c.409-2.92834 2.721-5.52026 5.644-6.01341 2.869-.59637 6.026.80319 7.437 3.41767 1.2 1.9879 1.06 4.40015 1.037 6.6404 3.77-.5238 7.71.4625 10.678 2.9015.03-2.1943-.114-4.3963.083-6.58643.28-3.06251 2.661-5.81079 5.682-6.35364 2.978-.65792 6.298.79095 7.733 3.53617 1.177 2.02614.973 4.4422.965 6.6901 2.086-.2145 4.312.2022 5.935 1.6167 1.644 1.3074 2.328 3.3756 3.002 5.2909.644-1.6324 1.166-3.3986 2.4-4.6942 2.074-2.2708 5.663-2.9321 8.388-1.5253 2.184 1.0475 3.883 3.2609 3.966 5.7534.155 1.9918-.734 3.8268-1.457 5.6197-3.267 8.1542-6.526 16.3161-9.792 24.4703-.648 1.6248-1.711 3.1272-3.203 4.0596-2.38 1.5333-5.617 1.2657-7.933-.2634-1.927-1.2658-3.123-3.6165-2.884-5.9408.227-2.137.632-4.2507 1.041-6.3575-1.117 2.4352-3.482 4.3241-6.196 4.4044-2.847.2867-5.575-1.3919-6.931-3.8726-3.819 3.7659-9.895 5.0386-14.777 2.7066-1.957.929-4.266 1.2768-6.321.4626-1.302-.4515-2.316-1.4225-3.236-2.4161-4.781 3.0128-10.921 4.0943-16.302 2.1871-2.487-.856-4.682-2.4237-6.435-4.3811-3.335 3.7771-8.551 5.3326-13.4331 5.3257-5.4168-.0042-10.7159-2.9895-13.4029-7.7719-.7949 2.546-1.9001 5.2564-4.2885 6.6705-2.8729 1.7509-6.9305 1.4416-9.3719-.9442-.7683-.7229-1.2945-1.6515-1.8244-2.5572-.7187 1.4336-1.707 2.7827-3.1302 3.5668-2.9145 1.6664-6.946 1.2994-9.3529-1.1205-1.2302-1.1885-1.9796-2.7716-2.5323-4.3772-1.8017-5.1609-3.6374-10.3103-5.4353-15.4712-.7718-2.202-1.2411-4.7672-.1094-6.931 1.8358-3.6852 6.9982-4.9124 10.3787-2.6951 1.5704.9519 2.5738 2.5958 3.1336 4.3237.564-1.5211 1.3513-3.035 2.6878-4.006 2.7703-2.095 7.0705-1.8732 9.504.6575.9352.9252 1.4837 2.1447 1.9417 3.3603.6245-2.0643 2.0103-3.9566 4.0126-4.8168 3.0356-1.3954 6.8547-.4129 8.9062 2.2326 3.312-2.3974 7.574-3.3756 11.5823-2.5919 3.974.711 7.472 3.2112 9.803 6.4912 2.245-3.2039 5.594-5.6846 9.448-6.4381 4.497-.9821 9.338.3062 12.839 3.2991.048-2.5204-.148-5.0511.12-7.55896zm3.887 1.47564c-.019 8.94172.004 17.88312-.011 26.82102.004.9943.069 2.0682.701 2.8825.938 1.338 2.948 1.5639 4.281.7191.749-.4477 1.03-1.327 1.385-2.0724 2.82 3.8802 8.842 3.4979 12.131.4476 4.936-4.3814 5.307-12.4053 1.901-17.8303-1.617-2.6608-4.573-4.4575-7.68-4.4996-2.347-.1342-4.622.7684-6.488 2.1596-.026-3.0847.09-6.1778-.049-9.25906-.054-1.84264-1.87-3.34504-3.672-2.90158-1.639.25308-2.585 1.96191-2.499 3.53312zm26.818-3.31063c-1.431.59981-1.999 2.24786-1.912 3.70825.015 9.064-.019 18.1281.015 27.188-.102 1.7245 1.136 3.5281 2.938 3.5901 1.843.2561 3.501-1.403 3.474-3.2342.084-8.9188-.007-17.8414.046-26.7602-.011-1.21191.057-2.56521-.746-3.56298-.851-1.16599-2.532-1.52152-3.815-.92897zm-111.6561 11.83185c-.2839 1.6014.4429 3.1459.927 4.6372 1.7676 4.9655 3.486 9.9506 5.265 14.9131.5337 1.5639 1.8017 3.0503 3.558 3.0816 1.7525.237 3.4293-.971 3.9137-2.6565 1.2113-3.6237 2.3089-7.2903 3.5088-10.9186 1.1094 3.4062 2.1844 6.8243 3.2707 10.2419.3671 1.1389.8971 2.3626 2.0099 2.9395 1.363.6801 3.187.5845 4.3301-.4894.8285-.7684 1.2563-1.8503 1.6348-2.8901 1.8512-5.3065 3.7472-10.5974 5.5981-15.9036.4353-1.1774.6435-2.6034-.1208-3.6929-1.3172-1.965-4.8373-1.6706-5.572.6843-1.408 4.3772-2.6416 8.816-4.0121 13.2046-1.4115-4.3504-2.6647-8.754-4.1182-13.0895-.6018-2.0721-3.3422-2.7177-4.9774-1.5097-.7608.5692-1.0901 1.5139-1.3812 2.3851-1.2642 4.0714-2.5095 8.147-3.8002 12.2099-1.3134-4.2548-2.5549-8.5327-3.857-12.7875-.5526-3.0048-5.2915-3.2036-6.1772-.3594zm38.0476 1.3839c-4.061 4.2052-4.6481 11.2584-1.4989 16.1597 1.514 2.3855 3.997 4.0791 6.7109 4.737 3.4709.8491 7.1995.2328 10.3635-1.3724 1.189-.6427 2.419-1.4336 3.036-2.6913.919-1.7926-1.041-4.2285-2.968-3.6207-1.499.5237-2.767 1.5487-4.269 2.072-2.2374.8147-4.974.5237-6.8094-1.0666-.9201-.7646-1.3058-1.9416-1.6317-3.0541 4.72-.0612 9.4441.0612 14.1601-.0539 1.222.0233 2.225-1.0433 2.252-2.2551.307-5.8338-4.349-11.5681-10.1444-12.1912-3.3645-.4213-6.8809.8364-9.2011 3.3366zm26.2265-1.0169c-3.97 3.165-5.488 8.8462-4.137 13.7013.81 3.1385 2.953 5.9407 5.871 7.3437 3.959 1.9612 8.758 1.4753 12.634-.4514 1.265-.6771 2.6-1.5139 3.198-2.8902.757-1.8009-1.184-4.0947-3.066-3.4673-1.336.4778-2.486 1.3533-3.793 1.8881-2.267 1.0058-5.125.8105-7.097-.7604-1.003-.7688-1.442-1.999-1.794-3.1734 4.693-.0802 9.391.0459 14.084-.0569 1.249.0497 2.32-1.0054 2.331-2.2632.292-5.4285-3.698-10.7576-8.94-11.9882-3.205-.7416-6.728.0115-9.291 2.1179zm54.335-.2791c-.394 1.0055-.034 2.0912.333 3.0431 2.294 5.7037 4.557 11.4189 6.839 17.1265-.882 2.2246-1.79 4.438-2.675 6.6595-.353.9557-.731 2.0376-.345 3.043.579 1.5059 2.437 2.1332 3.903 1.7624 1.333-.3976 2.01-1.7509 2.483-2.9589 3.468-8.7277 6.984-17.4401 10.455-26.1674.624-1.3533.299-3.1539-1.083-3.8882-1.612-1.0968-4.046-.3059-4.701 1.5486-1.646 4.0676-3.187 8.1806-4.799 12.2639-1.405-3.8497-2.813-7.6997-4.198-11.5566-.364-1.0246-.942-2.1026-2.014-2.4964-1.533-.6961-3.536.057-4.198 1.6205zm-75.7507 4.6104c-.9008.9019-1.2604 2.1634-1.567 3.368 3.4217.0153 6.8434.0153 10.2687 0-.322-1.1966-.666-2.4581-1.555-3.3641-1.8135-2.03-5.3302-2.0262-7.1467-.0039zm24.9327-.0344c-.916.9099-1.287 2.1829-1.601 3.399 3.421.0229 6.847.0191 10.269.0038-.319-1.1698-.647-2.4046-1.503-3.3068-1.783-2.0724-5.326-2.1106-7.165-.096zm27.252-.7301c-1.181.2561-2.196 1.0623-2.824 2.0911-1.563 2.6875-1.415 6.3311.322 8.8997 1.404 2.1481 4.747 2.5151 6.556.6881 2.509-2.5571 2.615-6.9615.636-9.8707-1.003-1.5139-2.938-2.2632-4.69-1.8082z" fill="#fff"/></svg>