<svg fill="none" height="56" viewBox="0 0 242 56" width="242" xmlns="http://www.w3.org/2000/svg"><path d="m86.9656 18.1983v4.1518l-1.7862.8931c-1.3566.6803-2.1648 2.0935-2.05 3.585.0394.5179.0602 1.042.0602 1.5661-.0025 7.6658-4.3835 14.6825-11.3399 18.1628-6.9566 3.4803-15.3134 2.836-21.6314-1.6676l3.6678-1.8354.2077-.108c5.2639 2.8978 11.6976 2.8392 16.9058-.154 5.2082-2.9933 8.4103-8.4726 8.4141-14.3978-.0001-.7337-.0488-1.4667-.1453-2.1942l-41.3934 20.7082v-4.162zm94.1204 2.8181c6.09 0 8.672 2.7305 8.629 8.7891l-.039 4.9103c-.041 3.5973.121 6.0116.563 8.0365h-3.709c-.157-.9692-.251-1.9473-.283-2.9283-1.329 2.2207-3.547 3.4443-7.419 3.4443-4.073 0-7.46-2.2186-7.46-6.138 0-5.0368 5.807-6.5316 14.678-7.4839v-.5139c0-3.9193-2.177-5.1857-4.921-5.1857-3.063 0-4.797 1.5845-4.959 4.2355h-3.791c.322-4.5923 4.518-7.1658 8.711-7.1658zm-35.752.0735c6.652 0 10.565 5.4243 10.121 12.1944h-16.695c.121 4.5924 3.508 6.809 6.694 6.809 3.228 0 5.001-1.4254 5.928-3.5238h3.79c-.968 3.6441-4.434 6.6927-9.718 6.6927-6.856 0-10.646-4.8309-10.646-11.1259 0-6.7641 4.598-11.0464 10.526-11.0464zm-34.625-7.5635c5.275 0 9.919 2.3329 11.091 7.8388h-3.994c-.968-3.2852-4.351-4.4333-7.259-4.4333-2.264 0-6.21.9891-6.21 4.1967 0 2.5348 2.025 3.7991 4.777 4.3945l3.377.7525c4.478.9503 9.841 2.6143 9.841 8.3934 0 5.5834-5.315 8.5932-11.131 8.5932-6.895 0-11.2505-3.7133-12.0169-9.4231h4.0419c.766 3.9582 3.508 6.0177 8.065 6.0177 4.355 0 6.814-1.976 6.814-4.8309 0-3.0487-2.621-4.2355-6.291-5.0674l-3.645-.7525c-4.033-.8709-8.025-3.0894-8.025-7.8408 0-5.5018 5.846-7.8388 10.565-7.8388zm19.502 2.5735v5.3448h4.113v2.8916h-4.113v12.6309c0 2.2166.16 2.7712 2.258 2.7712h1.855v3.0079h-2.661c-4.154 0-5.121-.9095-5.121-5.3449v-13.0651h-3.429v-2.8916h3.429v-5.3448zm72.715 5.2265c.364-.0051.727.0079 1.089.0387v3.8501c-.679-.1058-1.367-.1589-2.055-.1591-3.388 0-5.083 1.7741-5.083 6.5254v11.1648h-3.67v-21.3016h3.592v3.7215c1.087-2.4124 3.264-3.7215 6.127-3.8398zm-41.332-7.3004v28.7203h-3.67v-28.7203zm7.338 0v28.7203h-3.67v-28.7203zm17.396 18.4712c-6.654.6343-10.887 1.6232-10.887 4.5537 0 2.0208 1.572 3.3666 4.193 3.3666 3.429 0 6.694-1.5457 6.694-6.5724zm-133.3422-22.2718c6.9566-3.48268 15.3148-2.83999 21.6345 1.6635l-3.8882 1.9454c-5.2624-2.8857-11.6876-2.8203-16.8881.1719-5.2005 2.9921-8.3989 8.4639-8.4068 14.3819.0002.7291.0488 1.4572.1453 2.18l41.3829-20.70209v4.16409l-49.0904 24.5603v-4.1662l1.7841-.8933c1.3578-.6792 2.167-2.0929 2.052-3.5848-.0401-.5152-.0602-1.0325-.0602-1.5519-.0008-7.6668 4.3783-14.6862 11.3349-18.1689zm92.3482 13.9518c-3.228 0-6.21 1.7355-6.534 6.0178h12.783c-.12-3.0079-2.339-6.0178-6.249-6.0178z" fill="#fff"/></svg>