<svg fill="none" height="56" viewBox="0 0 241 56" width="241" xmlns="http://www.w3.org/2000/svg"><g fill="#fff"><path d="m199.896 25.7087c.21-.4753.392-.9114.591-1.3408.085-.1852.388-.276.571-.1998.104.0428.072.1283.072.1998 0 .8347 0 1.6695.005 2.5016 0 .1565-.049.2087-.209.2087-.161 0-.21-.0548-.21-.2113.006-.5906.004-1.1817 0-1.7738 0-.0913.02-.1868-.039-.3052-.186.4481-.425.8472-.567 1.2891-.034.1043-.065.1904-.199.2014-.133.0109-.199-.048-.25-.1696-.146-.35-.305-.6954-.463-1.0408-.03-.0667-.044-.1507-.145-.1893-.056.1043-.029.218-.03.3245-.003.5467-.006 1.0955 0 1.6412 0 .1607-.035.2338-.216.2332-.181-.0005-.188-.0991-.188-.2326.003-.7993 0-1.5985.004-2.3973 0-.1043-.069-.2822.126-.2822.172 0 .388-.109.499.1476.182.4174.378.8311.569 1.2453.02.0407.042.0778.079.1503z"/><path d="m196.882 25.8077c0-.3208-.016-.6427.006-.962.019-.2609-.082-.3391-.326-.3104-.138.0161-.279-.0037-.419.0047-.148.0083-.221-.0256-.222-.1972 0-.1821.092-.1905.229-.1894.636.0036 1.272.0047 1.908 0 .153 0 .221.0417.219.2087-.002.1669-.086.1847-.217.181-.165-.0052-.332.0104-.496-.0042-.203-.0188-.271.0485-.267.2583.012.6677 0 1.336.006 2.0038 0 .1617.003.2791-.225.275-.228-.0042-.197-.1373-.197-.2755.002-.3318.002-.6627.001-.9928z"/><path d="m159.619 32.1277c.448-.3881.854-.7408 1.313-1.0236 1.32-.8123 2.76-1.0627 4.289-.9307.713.0555 1.412.2291 2.068.5139.943.4174 1.644 1.0956 2.217 1.9303.095.1382.144.1654.251.0062.978-1.456 2.377-2.2537 4.097-2.4634 1.703-.2087 3.287.1236 4.601 1.3042.662.5963 1.032 1.3643 1.189 2.2376.1.5816.148 1.1707.145 1.7607.007 2.9904 0 5.9813.01 8.9733 0 .2551-.072.313-.32.313-1.581-.0115-3.161-.0115-4.742 0-.229 0-.292-.0553-.291-.2875.009-2.356.01-4.712.003-7.068.006-.5644-.054-1.1275-.178-1.6783-.457-1.9303-2.657-1.9423-3.638-1.0288-.603.5619-.804 1.2787-.891 2.0529-.076.6584-.046 1.3189-.047 1.9788-.003 1.9216-.003 3.8429.002 5.7638 0 .1987-.044.2681-.258.2666-1.607-.0087-3.214-.0087-4.821 0-.224 0-.271-.0694-.271-.2802.007-2.3821.004-4.7642.005-7.1473 0-.4867-.017-.9719-.111-1.4513-.175-.8927-.711-1.4498-1.592-1.6695-1.038-.2572-2.063.132-2.608.9813-.328.5097-.398 1.0956-.402 1.6757-.019 2.5216-.023 5.0431-.011 7.5647 0 .2702-.074.3281-.334.326-1.58-.0125-3.161-.0125-4.741 0-.221 0-.274-.062-.274-.2765.006-4.6167.006-9.2332 0-13.8495 0-.2264.073-.2692.282-.2682 1.598.0084 3.196.0084 4.794 0 .226 0 .277.0705.271.2807-.016.4758-.007.9542-.007 1.4931z"/><path d="m143.553 43.2849c-.328.3177-.645.626-1.003.8832-.815.589-1.737.8869-2.732.9996-1.541.1737-3.009-.0715-4.366-.8086-2.158-1.1712-3.559-2.932-3.945-5.3834-.314-2.0091-.083-3.9535 1.082-5.6819 1.25-1.8515 2.99-2.9846 5.233-3.3122 1.649-.2421 3.202.0198 4.639.8811.382.2285.705.5353 1.056.8347.065-.1043.037-.2087.037-.3041 0-3.2074-.002-6.415-.005-9.6228 0-.2645.07-.337.337-.3349 1.597.0125 3.196.0094 4.792 0 .202 0 .268.0469.268.2608-.006 7.5977-.006 15.1952 0 22.7926 0 .1956-.039.2676-.256.2666-1.623-.0098-3.247-.0098-4.873 0-.209 0-.272-.0658-.266-.2682.011-.4012.002-.8008.002-1.2025zm-3.209-2.5042c.191 0 .386.0199.576-.0031 1.949-.2369 3.265-2.2433 2.688-4.1282-.674-2.2-3.292-2.9841-5.104-1.8202-1.319.8477-1.687 2.0523-1.487 3.282.246 1.515 1.673 2.7739 3.327 2.6695z"/><path d="m67.367 29.828c1.9204-.0032 3.5201.254 4.9893 1.0434 2.0435 1.1018 3.486 2.7128 4.0016 5.0161.786 3.5147-.9164 6.9068-4.1986 8.4547-1.1653.5493-2.4004.8065-3.6825.8947-1.3676.0939-2.7195.0188-4.0446-.3308-2.4266-.6396-4.2883-2.0163-5.3174-4.3301-1.1428-2.5678-.8546-5.7048 1.278-7.982 1.334-1.4242 2.9741-2.2287 4.8761-2.5647.7834-.1346 1.5704-.2071 2.0981-.2013zm.1451 4.3822c-.2616-.0053-.5232.0153-.7807.0616-1.9602.3819-3.4515 2.6257-2.3778 4.7349.7241 1.4227 2.2295 2.1301 3.8947 1.8328 1.8827-.337 3.0962-2.1974 2.6807-4.0515-.2945-1.3142-1.6961-2.6435-3.4169-2.5788z"/><path d="m117.869 32.1451c.367-.4364.787-.8257 1.25-1.1592.772-.5467 1.649-.8024 2.583-.8963 1.192-.1194 2.368-.0746 3.497.3652 1.715.6715 2.719 1.9261 3.046 3.7291.089.4899.105.9814.105 1.4764-.002 2.9383-.001 5.8763.005 8.8142 0 .2321-.062.2874-.291.2859-1.588-.0105-3.178-.0105-4.768 0-.265 0-.309-.0814-.308-.3219.009-2.4165.009-4.8329 0-7.249.001-.5029-.05-1.0045-.153-1.4968-.183-.8457-.721-1.37-1.543-1.5515-1.085-.24-2.061-.0042-2.823.8555-.367.4138-.49.9261-.556 1.4608-.077.6146-.043 1.2317-.044 1.8473-.004 2.0604-.003 4.1206.003 6.1806 0 .215-.052.2765-.274.2755-1.607-.0098-3.213-.0098-4.82 0-.225 0-.271-.0673-.271-.2786.006-4.6157.006-9.2313 0-13.847 0-.2342.065-.2859.292-.2843 1.597.0101 3.195.0101 4.792 0 .21 0 .289.0433.281.2687-.016.4867-.003.9724-.003 1.5254z"/><path d="m109.06 35.334c0 1.513.033 3.0259-.008 4.5388-.053 1.9548-.926 3.4511-2.667 4.4073-1.053.5776-2.194.8541-3.38.996-.918.1048-1.844.1339-2.767.0871-1.6927-.0751-3.3432-.3527-4.8104-1.2766-1.3997-.881-2.1857-2.1451-2.3579-3.7922-.0345-.3891-.0487-.7797-.0424-1.1702 0-2.8255 0-5.6516-.0063-8.4771 0-.2301.0477-.3078.2966-.3057 1.5981.0121 3.1962.0121 4.7944 0 .2363 0 .3081.0521.307.2994-.0094 2.6518-.0042 5.3036-.0073 7.9554 0 .4299.0461.8478.2196 1.2448.3086.7069.8881 1.0836 1.6127 1.2354.653.1367 1.318.1283 1.959-.096.878-.3078 1.34-.9469 1.46-1.8536.052-.3975.05-.7961.05-1.1952 0-2.4348.003-4.869-.006-7.3038 0-.2306.058-.2885.289-.2869 1.598.0104 3.196.0104 4.794 0 .214 0 .28.049.278.2707-.01 1.5735-.005 3.1474-.005 4.7214z"/><path d="m193.862 38.5029h-5.265c-.303 0-.328.0308-.288.3318.039.2916.058.5859.135.8728.246.9067.792 1.5343 1.705 1.8145.791.2431 1.59.2916 2.394.0521.583-.1721 1.041-.5217 1.399-.999.105-.1377.207-.2045.388-.204 1.537.0073 3.074.0073 4.611 0 .253 0 .266.0751.195.2854-.81 2.3873-2.525 3.7562-4.929 4.3551-.781.1936-1.577.264-2.383.2776-1.395.024-2.77-.0992-4.082-.5948-2.573-.9724-4.202-2.7791-4.692-5.4997-.374-2.0743-.102-4.0693 1.052-5.8806.882-1.3867 2.123-2.3477 3.688-2.8485 2.118-.6782 4.275-.7304 6.412-.1252 2.645.746 4.212 2.5662 4.93 5.1596.256.9208.292 1.8651.28 2.8146 0 .2086-.124.1878-.258.1878zm-2.428-2.8808h2.777c.109 0 .252.0308.199-.1628-.194-.721-.516-1.3621-1.149-1.8082-.634-.4461-1.351-.5154-2.096-.4862-1.363.0521-2.391.9171-2.682 2.2433-.042.1914.009.217.179.216.922-.0047 1.847-.0021 2.772-.0021z"/><path d="m81.7613 39.6506c0-1.599-.0042-3.1986.0047-4.7997 0-.2144-.0524-.2843-.273-.2759-.4716.0167-.9432 0-1.4148.0078-.1598.0031-.2095-.048-.2095-.2087.0052-1.2688.0052-2.5382 0-3.8084 0-.1789.0634-.2181.2274-.2149.4626.0093.9264-.012 1.388.0099.2426.0109.2876-.0731.2829-.2938-.0146-.6343-.0215-1.2692 0-1.9031.0414-1.323.2652-2.6127 1.015-3.7343.9982-1.4926 2.4009-2.44 4.1609-2.8365 1.2335-.2781 2.4486-.2223 3.6364.2494.2238.0886.295.1992.2924.4377-.0131 1.2599-.0058 2.5208-.0058 3.7812 0 .3626 0 .3652-.3143.2087-.5607-.2817-1.1439-.4507-1.7816-.4147-.8808.0495-1.4792.6401-1.5609 1.5129-.0859.9192-.043 1.8395-.065 2.7587-.0047.1868.0592.2332.2384.2322 1.0742-.0078 2.1483 0 3.2215-.0083.2006 0 .2703.0459.2688.2608-.0098 1.2253-.0098 2.4509 0 3.6769 0 .2228-.0524.3016-.2909.2985-1.0301-.0126-2.0602-.0068-3.0914-.0047-.3846 0-.3422-.0413-.3422.3552v9.4663c0 .3537 0 .3537-.3547.3537-1.5887 0-3.178-.0037-4.7682.0047-.2049 0-.2657-.0522-.262-.2609.0015-1.6167-.0021-3.2335-.0021-4.8507z"/><path d="m202.33 8.14389c-1.024-1.22547-3.436-1.52753-4.929-.82898-.314.14712-.642.26607-.924.46953l-8.956 6.46906c-.638.5541-1.215 1.1838-1.306 2.0018-.083.746 0 1.3632.656 2.0294 1.482 1.5035 4.1 1.5129 5.348.7554 1.147-.6933 8.72-6.2661 9.956-7.1744l.321-.3198c.366-.5024 1-2.00438-.166-3.40201z"/><path d="m164.653 18.0567c.657-.6663.738-1.2834.656-2.0295-.091-.818-.668-1.4477-1.306-2.0017l-8.956-6.46909c-.282-.20398-.61-.32293-.925-.46953-1.493-.69855-3.905-.39649-4.925.82898-1.167 1.39764-.533 2.89904-.164 3.40044l.321.3198c1.23.9098 8.804 6.4826 9.951 7.176 1.247.7559 3.865.7481 5.348-.7554z"/><path d="m175.824 16.3664c1.912 0 3.515-.8666 3.97-2.4755.059-.2212.089-.4493.089-.6782l.043-5.80026c0-.04904.003-.09808.003-.1466 0-2.22975-1.805-3.26584-4.072-3.26584-2.253 0-4.084 1.20356-4.102 3.41244l-.005 5.84716c-.003.2279.019.4555.068.6782.389 1.6731 2.034 2.4286 4.006 2.4286z"/><path d="m187.648 20.7254c-3.039-1.5056-7.056-2.452-12.301-2.452-8.788 0-14.682 2.7614-17.676 6.7748h.045l-.012.0162 35.369-.0031c-1.29-1.6632-3.062-3.1678-5.425-4.3359z"/><path d="m50.0969 43.1119c-.262.2155-.4752.3991-.6963.5739-.9589.7674-2.0546 1.1785-3.2807 1.2865-1.7474.1565-3.3901-.1471-4.885-1.0825-1.8031-1.1248-2.8117-2.7796-3.1219-4.8591-.262-1.7415-.0896-3.4432.7414-5.0146 1.1905-2.2485 3.0553-3.6096 5.6066-3.9842 1.3372-.1967 2.6409-.083 3.8864.4784.557.2509 1.0249.626 1.4498 1.0549.0823.0834.1525.1789.2285.2692l.0791-.0491c0-.3871.0089-.7747-.0042-1.1613-.0063-.1956.0398-.2718.2573-.2707 1.6068.0093 3.2137.0093 4.8206 0 .1797 0 .2389.0464.2389.2321-.0063 4.712.0074 9.424-.0188 14.1381-.0063 1.0914-.1342 2.1843-.6519 3.1849-.766 1.4822-1.9623 2.5094-3.4582 3.2069-1.1669.5447-2.4103.7732-3.6925.853-1.5919.0991-3.1575-.0198-4.6634-.5457-1.9115-.6657-3.4122-1.8348-4.3706-3.6399-.176-.3318-.2724-.6918-.3453-1.0601-.0377-.1899-.0073-.2504.206-.2488 1.3356.0104 2.6723.0052 4.0074.0052h1.5195c.1085 0 .1986 0 .2478.1325.3212.8566 1.0082 1.2427 1.8628 1.3502.842.1043 1.6736.038 2.4396-.3845.9746-.5374 1.4572-1.3857 1.5578-2.4698.0603-.6463.0472-1.2938.0393-1.9955zm-3.1669-2.2772c1.8224.047 3.4279-1.4357 3.4289-3.3305 0-1.8369-1.4414-3.3785-3.4153-3.3791-2.0912 0-3.3927 1.729-3.4022 3.3634-.0105 1.7326 1.496 3.376 3.3886 3.3462z"/></g></svg>