<svg fill="none" height="56" viewBox="0 0 242 56" width="242" xmlns="http://www.w3.org/2000/svg"><g fill="#fff"><path d="m99.136 22.439c-.4537-.1538-1.3743-.2947-2.2818-.2947-2.7357 0-5.6269 2.1014-5.6269 4.8114v12.7813h-6.2363v-22.7117h5.9316v2.2552c1.3743-1.6529 3.9544-2.7036 6.6965-2.7036.9076 0 1.3743.1537 2.1263.1537zm7.008-17.439c2.126 0 3.954 1.65292 3.954 3.90808 0 2.25512-1.828 3.90812-4.11 3.90812s-4.11-1.653-4.11-3.90812c.156-2.25516 1.977-3.90808 4.266-3.90808zm3.034 34.7306h-6.237v-22.7053h6.237zm18.255-23.1537c-2.581 0-4.869.8969-6.697 2.2551v-1.8067h-6.087v33.9747h6.236v-12.9223c1.828 1.3582 3.799 2.1014 6.236 2.1014 3.345 0 6.697-1.4992 8.668-3.9081 1.828-2.1014 2.891-4.8114 2.891-7.9635.013-6.6181-5.011-11.7306-11.247-11.7306zm-.759 18.0412c-3.799 0-6.385-2.5499-6.385-6.3106s2.58-6.3106 6.385-6.3106c3.345 0 5.932 2.8574 5.932 6.3106 0 3.6006-2.736 6.3106-5.932 6.3106zm43.349-28.25988h6.236v33.37238h-6.236zm31.337 29.75908c-2.282 2.5498-5.932 4.0618-9.432 4.0618-6.846 0-12.012-4.6577-12.012-11.8716 0-6.3106 4.408-11.8716 11.26-11.8716 6.385 0 10.949 5.2599 10.949 11.5769 0 .6022 0 1.2045-.156 1.8067h-16.122c.298 3.1521 2.891 5.4136 6.236 5.4136 2.581 0 4.713-1.4991 5.783-2.5498zm-5.782-10.6672c-.156-1.954-1.978-4.0618-4.564-4.0618-2.593 0-4.713 1.954-4.869 4.0618zm-40.465-8.8732c-2.58 0-4.868.8969-6.696 2.2551v-1.8067h-5.932v33.9747h6.236v-12.9223c1.828 1.3582 3.799 2.1014 6.237 2.1014 3.345 0 6.696-1.4992 8.667-3.9081 1.828-2.1014 2.891-4.8114 2.891-7.9635-.143-6.6181-5.16-11.7306-11.403-11.7306zm-.752 18.0412c-3.799 0-6.385-2.5499-6.385-6.3106s2.58-6.3106 6.385-6.3106c3.345 0 5.932 2.8574 5.932 6.3106-.007 3.6006-2.742 6.3106-5.932 6.3106z"/><path d="m64.1625 8.75432c-2.5801 1.49918-4.11 4.20918-4.11 7.06658 0 1.4992.6094 3.0111 1.3743 4.3565.6094 1.2045.9076 3.3059-1.2187 4.3566-1.517.8969-3.5006.2947-4.4082-1.2045-.9076-1.2044-1.9772-2.4089-3.345-3.3058-2.5801-1.4992-5.6269-1.4992-8.2135 0-2.5865 1.4991-4.1164 4.222-4.1164 7.0794 0 2.8573 1.5169 5.561 4.11 7.0665 2.58 1.4992 5.6269 1.4992 8.2134 0 1.3743-.756 2.4375-1.954 3.1894-3.3058.6094-1.0507 2.2819-2.4089 4.4082-1.2045 1.5169.897 1.9772 2.8574 1.2187 4.3566-.7649 1.3582-1.2187 2.8574-1.2187 4.3565 0 2.8574 1.5169 5.561 4.11 7.0666 2.58 1.4992 5.6269 1.4992 8.2134 0 2.5801-1.4992 4.11-4.2092 4.11-7.0666s-1.5169-5.561-4.11-7.0666c-1.3743-.7559-2.8912-1.0506-4.5637-1.0506-1.3743 0-3.1895-.897-3.1895-3.1521 0-1.8067 1.3743-3.1521 3.1895-3.1521 1.5169 0 3.1894-.2947 4.5637-1.0507 2.5801-1.4992 4.11-4.2092 4.11-7.0666s-1.5169-5.561-4.11-7.06657c-1.2187-.75599-2.7356-1.0507-4.1099-1.0507-1.3614-.01281-2.8848.29471-4.097 1.03789z"/></g></svg>