<svg fill="none" height="56" viewBox="0 0 241 56" width="241" xmlns="http://www.w3.org/2000/svg"><path d="m51.2228 14.8326c-6.1906 0-11.2228 5.0195-11.2228 11.1944v25.893h5.3216v-14.372l1.955 2.0573 7.8201-3.0684c4.4535-1.7336 7.3499-5.743 7.3499-10.5089 0-6.1749-5.0322-11.1954-11.2238-11.1954zm1.9922 17.0095-7.8925 3.0694v-8.8835c0-3.5755 2.6794-6.1388 5.9013-6.1388s5.9012 2.5994 5.9012 6.1388c0 2.2386-1.086 4.6947-3.91 5.8141zm91.922-17.0095c-6.19 0-11.223 5.0195-11.223 11.1944s5.033 11.1943 11.223 11.1943c6.191 0 11.223-5.0194 11.223-11.1943s-5.032-11.1944-11.223-11.1944zm0 17.3342c-3.403 0-5.901-2.7077-5.901-6.1388 0-3.4312 2.571-6.1388 5.901-6.1388 3.403 0 5.901 2.7076 5.901 6.1388 0 3.4311-2.498 6.1388-5.901 6.1388zm24.293-12.2776c2.316 0 4.199 1.2636 5.177 3.1415l4.163-3.1776c-2.027-2.9973-5.43-4.9834-9.34-4.9834-6.191 0-11.224 5.0195-11.224 11.1943 0 6.1749 5.033 11.1944 11.224 11.1944 3.874 0 7.312-1.9861 9.34-4.9834l-4.163-3.1786c-.978 1.8789-2.861 3.1425-5.177 3.1425-3.403 0-5.901-2.7076-5.901-6.1388 0-3.4311 2.57-6.2109 5.901-6.2109zm-45.4 0c2.317 0 4.2 1.2636 5.178 3.1415l4.163-3.1776c-2.028-2.9973-5.431-4.9834-9.341-4.9834-6.191 0-11.223 5.0195-11.223 11.1943 0 6.1749 5.032 11.1944 11.223 11.1944 3.874 0 7.313-1.9861 9.341-4.9834l-4.163-3.1786c-.978 1.8789-2.861 3.1425-5.178 3.1425-3.403 0-5.901-2.7076-5.901-6.1388 0-3.4311 2.534-6.2109 5.901-6.2109zm-18.609-2.384c-1.81-1.8779-4.2-2.6716-6.698-2.6716-5.2141 0-10.4985 4.7309-10.4985 11.1944s5.2844 11.1943 10.4985 11.1943c2.498 0 4.888-.7937 6.698-2.6716v2.0223h5.322v-21.0549h-5.322zm-5.9013 14.6616c-3.4018 0-5.9736-2.7077-5.9736-6.1388 0-3.4312 2.6432-6.1388 5.9736-6.1388 3.4033 0 5.9013 2.7076 5.9013 6.1388 0 3.4311-2.498 6.1388-5.9013 6.1388zm94.0583-6.8974h-2.389l9.231-9.7864h-6.842l-7.459 8.0177v-19.5007h-5.321v32.5739h5.321v-5.9945l2.933-3.1064 6.263 9.1009h6.444zm-118.1706-10.4368c-6.1906 0-11.2228 5.0195-11.2228 11.1944s5.0322 11.1943 11.2228 11.1943c3.693 0 7.1681-1.7687 9.1602-4.5134l-4.2726-2.9612c-.5074.8308-2.1359 2.4181-4.8876 2.4181-2.5337 0-4.5982-1.5162-5.4662-3.7188h16.1836c.1818-.7936.2542-1.5883.2542-2.419.0342-6.1739-4.78-11.1944-10.9716-11.1944zm-5.4301 8.7753c.869-2.2035 2.9326-3.7187 5.4301-3.7187 2.5347 0 4.4535 1.5161 5.2502 3.7187z" fill="#fff"/></svg>