<svg fill="none" height="56" viewBox="0 0 242 56" width="242" xmlns="http://www.w3.org/2000/svg" xmlns:xlink="http://www.w3.org/1999/xlink"><clipPath id="a"><path d="m49.375 4h144v48h-144z"/></clipPath><g clip-path="url(#a)" fill="#fff"><path d="m117.156 41.2479h4.616v-20.0392h-4.616zm16.886-11.8431c-2.367-.7451-4.537-1.3726-4.537-2.8235v-.0785c0-1.1764 1.026-2 2.84-2 .868 0 1.855.1961 2.88.5491h.04c.079.0392.158.0784.276.1176.75.2353 2.683.549 4.379-2.0392-2.13-1.4118-4.892-2.2745-7.417-2.2745-4.024 0-7.18 2.3137-7.18 6.1176v.0785c0 3.8431 3.314 5.0588 6.312 5.8823 2.367.7059 4.498 1.2549 4.498 2.8235v.0785c0 1.3333-1.144 2.1568-3.117 2.1568-1.302 0-2.762-.3529-4.221-1.0196-.434-.1568-2.565-.9019-4.419 1.6863 2.525 1.9608 5.642 2.9804 8.522 2.9804 4.182 0 7.496-2.0784 7.496-6.3137v-.0785c-.079-3.6078-3.393-4.9411-6.352-5.8431zm-29.471 6.5098-5.4047-14.7451h-4.971l8.2847 20.1961h4.143l8.245-20.1569h-4.852zm57.206-15.1373c-6.194 0-10.771 4.7451-10.771 10.5098 0 5.7255 4.537 10.3922 10.692 10.3922 6.233 0 10.81-4.7451 10.81-10.4706 0-5.7647-4.577-10.4314-10.731-10.4314zm0 16.9412c-3.59 0-6.155-2.9412-6.155-6.5098 0-3.5294 2.367-6.4314 6.076-6.4314 3.629 0 6.194 2.9412 6.194 6.5098-.04 3.5295-2.407 6.4314-6.115 6.4314zm24.42-16.9412c-3.116 0-5.01 1.6471-6.312 3.5295v-3.0981h-4.616v20.0392h4.616v-11.3333c0-3.098 1.854-4.9804 4.537-4.9804 2.762 0 4.3 1.7647 4.3 4.902v11.3725h4.656v-12.7059c0-4.6666-2.644-7.7255-7.181-7.7255zm-42.844 20.4706h4.615v-20.0392h-4.615z"/><path clip-rule="evenodd" d="m53.762 3.99805h39.531c2.4065 0 4.3791 1.96078 4.3791 4.35294v39.29411c0 2.3922-1.9726 4.3529-4.3791 4.3529h-39.531c-2.4066 0-4.3792-1.9607-4.3792-4.3529v-39.29411c0-2.39216 1.9726-4.35294 4.3792-4.35294zm11.7538 15.09805c1.6175 0 2.9589-1.2549 2.9589-2.9019 0-1.6471-1.3414-2.902-2.9589-2.902-1.6176 0-2.9589 1.2549-2.9589 2.902 0 1.647 1.3413 2.9019 2.9589 2.9019zm-6.1151 15.451c-.1578.7451-.2762 1.5295-.2762 2.1569 0 2.549 1.3809 4.2353 4.3398 4.2353 2.446 0 4.4186-1.451 5.8389-3.7647l-.868 3.4902h4.8526l2.7617-11.0588c.7101-2.7843 2.0515-4.2745 4.0635-4.2745 1.6176 0 2.6039.9804 2.6039 2.6274 0 .4706-.0395.9804-.1973 1.5686l-1.4203 5.0981c-.1972.7451-.3156 1.451-.3156 2.1568 0 2.4314 1.4203 4.1961 4.4186 4.1961 2.5644 0 4.6159-1.647 5.7206-5.5686l-1.8937-.7451c-.9469 2.6274-1.7753 3.098-2.446 3.098-.6313 0-.9863-.4313-.9863-1.2941 0-.3921.0789-.8235.1972-1.3333l1.4598-4.9412c.355-1.1765.4734-2.1961.4734-3.1372 0-3.7255-2.2488-5.6471-4.971-5.6471-2.5644 0-5.1682 2.2745-6.4701 4.7059l.9468-4.353h-7.417l-1.0652 3.804h3.4718l-2.1304 8.5098c-1.6964 3.7254-4.7737 3.7647-5.1288 3.6862-.6312-.1568-1.0257-.3921-1.0257-1.2157 0-.4705.0789-1.1372.3156-1.9607l3.2351-12.8236h-8.2455l-1.0652 3.804h3.4323z" fill-rule="evenodd"/></g></svg>