<svg fill="none" height="56" viewBox="0 0 241 56" width="241" xmlns="http://www.w3.org/2000/svg"><g fill="#fff"><path clip-rule="evenodd" d="m56.7654 7c4.59 0 8.178.97285 10.1629 3.242l.0012.0012c1.8035 2.0611 2.3288 4.3374 1.807 7.6817-.0391.2545-.0841.5149-.1363.7825-1.7561 9.0482-7.7677 12.1761-15.4453 12.1761h-3.9082c-.4533.0005-.8915.1634-1.2356.4593-.344.2957-.5714.7048-.6413 1.1537l.0639-.4107-2.0655 13.1406h-8.2243c-.1652.0001-.3285-.0357-.4786-.105-.1501-.0692-.2834-.1703-.3908-.2962-.1074-.126-.1863-.2737-.2313-.4332s-.055-.3268-.0293-.4905l5.5445-35.28762c.0712-.45012.3002-.85998.6458-1.15584s.7851-.45828 1.2395-.45804zm142.4626 12.0483-3.775 24.0845c-.018.1097-.011.2219.019.3287.031.1069.084.206.156.2904s.161.1522.262.1986c.1.0465.21.0706.32.0707h3.796c.628 0 1.164-.4591 1.263-1.0823l3.722-23.6527c.017-.1098.01-.2221-.02-.329-.03-.107-.083-.2061-.155-.2906-.072-.0844-.161-.1522-.262-.1986s-.21-.0704-.321-.0702h-4.247c-.183-.0005-.36.0647-.499.1839-.139.1191-.231.2842-.259.4654zm-37.081 11.3007c2.438 0 4.958 0 5.461-3.311.183-1.1619.037-2.004-.446-2.5713-.808-.9478-2.376-.9478-4.036-.9478h-.637c-.377 0-.697.2747-.756.6481l-.974 6.182zm-4.797-11.95h9.197l.001-.0012c3.077 0 5.395.8158 6.703 2.3572 1.189 1.4021 1.584 3.4049 1.173 5.9524-.913 5.8287-4.409 8.7675-10.468 8.7675h-2.91c-.628 0-1.164.4602-1.261 1.0822l-1.056 6.7077c-.068.4352-.443.7564-.883.7564h-4.719c-.111-.0003-.22-.0245-.32-.071-.101-.0466-.19-.1144-.262-.1988s-.125-.1834-.155-.2901c-.03-.1068-.037-.2189-.02-.3285l3.716-23.6516c.048-.3017.202-.5764.434-.7747.231-.1984.526-.3074.83-.3075zm-60.7963 11.9511c2.4391 0 4.9603 0 5.4623-3.311.183-1.1619.037-2.004-.447-2.5713-.808-.9478-2.3759-.9478-4.0359-.9478h-.6367c-.3771 0-.6972.2747-.7565.6481l-.9735 6.182zm-4.7951-11.95h9.1964l.001-.0012c3.077 0 5.395.8158 6.703 2.3572 1.19 1.4021 1.584 3.4049 1.173 5.9524-.913 5.8287-4.409 8.7687-10.4677 8.7687h-2.9098c-.6284 0-1.1644.459-1.2616 1.0822l-1.0043 6.3806c-.0984.6232-.6332 1.0823-1.2616 1.0823h-4.392c-.1107-.0001-.2201-.0241-.3206-.0706s-.1898-.1143-.2617-.1988c-.0719-.0844-.1247-.1835-.1548-.2903-.0301-.1069-.0367-.2191-.0194-.3287l3.7173-23.6516c.0984-.6232.6344-1.0822 1.2628-1.0822zm25.5774 21.349c2.548 0 4.544-1.6947 4.971-4.2184.193-1.2214-.073-2.3299-.747-3.1231-.672-.7873-1.685-1.2036-2.936-1.2036-2.509 0-4.539 1.7483-4.935 4.2506-.207 1.2261.038 2.3286.69 3.1016.657.7802 1.68 1.1929 2.957 1.1929zm6.704-12.817h4.404l-.001.0012c.111-.0002.22.0238.321.0702s.19.1142.262.1986.125.1835.156.2905c.03.1069.037.2192.02.3291l-2.381 15.1195c-.099.6244-.635 1.0822-1.263 1.0822h-3.965c-.111.0002-.221-.0237-.321-.0702-.101-.0464-.19-.1142-.262-.1986-.072-.0845-.125-.1836-.155-.2906-.031-.1069-.037-.2192-.02-.329l.197-1.2273s-2.175 2.5261-6.097 2.5261c-2.285 0-4.202-.6601-5.546-2.2454-1.463-1.7257-2.061-4.1983-1.64-6.7874.809-5.1853 4.965-8.884 9.83-8.884 2.123 0 4.249.465 5.202 1.8529l.308.4472.192-1.2345c.029-.1814.121-.3467.26-.466s.316-.1848.499-.1845zm63.864 8.5986c-.427 2.5237-2.422 4.2184-4.971 4.2184-1.277 0-2.3-.4127-2.957-1.1929-.652-.773-.896-1.8755-.69-3.1016.396-2.5023 2.425-4.2506 4.935-4.2506 1.251 0 2.265.4163 2.936 1.2036.675.7932.94 1.9017.747 3.1231zm6.137-8.5986h-4.403c-.184-.0003-.361.0652-.5.1845s-.231.2846-.259.466l-.192 1.2345-.309-.4472c-.953-1.3879-3.079-1.8529-5.202-1.8529-4.863 0-9.019 3.6987-9.829 8.884-.421 2.5891.178 5.0617 1.641 6.7874 1.343 1.5853 3.261 2.2454 5.545 2.2454 3.924 0 6.099-2.5261 6.099-2.5261l-.197 1.2273c-.018.1097-.012.2219.018.3288.03.107.083.2062.155.2907.071.0845.161.1524.261.1988.101.0464.21.0704.321.0701h3.964c.629 0 1.164-.4578 1.264-1.0822l2.381-15.1195c.017-.1099.01-.2222-.02-.3291-.03-.107-.083-.2061-.155-.2905s-.162-.1522-.263-.1986c-.1-.0464-.21-.0704-.321-.0702zm-46.568-.0025h4.427c.14.0001.277.0386.397.1113.12.0728.217.177.282.3014s.094.2642.085.4043c-.009.14-.056.275-.135.3902l-14.72 21.3098c-.24.3449-.632.5506-1.05.5506h-4.422c-.141-.0001-.279-.039-.399-.1123s-.217-.1783-.282-.3034c-.064-.1252-.093-.2657-.084-.4063.01-.1406.058-.2759.139-.3911l4.584-6.4876-4.874-14.35c-.039-.1158-.05-.2394-.033-.3604.018-.1211.064-.2362.135-.3357s.165-.1807.273-.2367c.109-.056.229-.0852.351-.0853h4.35c.276.0004.543.0897.764.2547.221.1649.382.3967.461.6611l2.589 8.6676 6.106-9.0196c.237-.3521.632-.5626 1.056-.5626z" fill-rule="evenodd"/><path d="m68.736 17.9282c-.0407.2617-.0862.5226-.1364.7826-1.756 9.047-7.7677 12.176-15.4453 12.176h-3.9094c-.4532.0003-.8913.1632-1.2353.4591-.344.296-.5712.7056-.6405 1.1548l-2.0015 12.7278-.5692 3.6107c-.0226.1434-.014.29.0253.4296.0393.1397.1084.2692.2024.3795.094.1104.2107.1989.3421.2596.1315.0608.2745.0922.4191.0921h6.933c.8205 0 1.5178-.5994 1.647-1.4117l.0676-.3544 1.3067-8.3061.083-.459c.0621-.3936.2622-.7521.5644-1.0109.3021-.2588.6864-.4009 1.0837-.4008h1.0375c6.716 0 11.9747-2.7354 13.5114-10.6514.6403-3.3062.3083-6.0689-1.3873-8.0087-.5384-.6014-1.1817-1.0991-1.8983-1.4688z" opacity=".6"/></g></svg>