<svg fill="none" height="56" viewBox="0 0 242 56" width="242" xmlns="http://www.w3.org/2000/svg"><g fill="#fff"><path clip-rule="evenodd" d="m162.394 24.6821c-1.242-3.2214-2.484-6.4428-3.723-9.6678-1.917 0-3.834 0-5.766-.0143-.003.023-.005.0459-.006.0688-.001.0082-.001.0164-.001.0245l-.001.0244v.0006c-.002.0588-.004.1156-.021.1672-2.887 7.4993-5.789 14.9986-8.691 22.4979l-.002.0068-.008.0206c-.283.7185-.558 1.437-.846 2.1912l-.001.0037-.137.3572c-.074.1933-.149.3892-.226.5883.224 0 .447-.0004.668-.001.318-.0009.633-.0023.946-.0037h.002c1.298-.0058 2.551-.0114 3.797.019.516.0142.722-.1856.87-.6281.214-.6056.437-1.2086.659-1.8124l.001-.0014v-.0009c.312-.8471.625-1.6953.918-2.5533.147-.4425.368-.571.84-.571 2.068.0214 4.128.0188 6.191.0161.689-.0009 1.378-.0018 2.068-.0018.031 0 .061.001.092.0027.015.0009.029.0019.044.003.041.0032.082.0075.124.0121l.024.0028.04.0047c.055.0064.109.0127.163.0175.061.1656.122.3309.183.4959.05.1358.101.2713.151.4068l.214.5729c.424 1.1372.844 2.2646 1.236 3.392.177.4854.413.6566.944.6424.966-.0306 1.925-.0248 2.887-.019h.007c.386.0024.773.0047 1.161.0047h1.416c-.026-.0831-.048-.1581-.068-.2269-.014-.047-.027-.0911-.039-.133l-.001-.0036v-.0003c-.024-.0863-.046-.1633-.07-.2369-.013-.0433-.028-.0853-.043-.1273-.376-.9778-.756-1.9556-1.136-2.9334-.379-.9778-.759-1.9556-1.135-2.9334-1.239-3.2272-2.482-6.4508-3.725-9.6743zm-5.7.6012c.627 1.7425 1.237 3.4354 1.859 5.1475h-5.648c.944-2.5551 1.858-5.0532 2.846-7.7654z" fill-rule="evenodd"/><path d="m127.783 21.284c-.529.7209-1.064 1.4497-1.6 2.1951-1.239-1.6953-2.461-3.3597-3.684-5.0242-.815-1.1105-1.631-2.221-2.451-3.3407-.192.2998-.31.4996-.428.6994-.605 1.1141-1.212 2.2281-1.818 3.3421l-.003.0051c-1.211 2.2246-2.423 4.4491-3.621 6.6736-.191.3712-.309.8137-.309 1.2134-.023 3.2862-.02 6.5645-.017 9.8468.001 1.0946.002 2.1898.002 3.2858v.728h5.899v-15.8305l.813 1.0264c1.73 2.184 3.365 4.2492 5.012 6.325.531.6709.56.6709 1.091 0 1.785-2.2697 3.569-4.5251 5.368-6.7947.133-.1535.265-.2956.482-.529l.079-.0848v15.8876h5.825v-25.7514c-.468 0-.931.0078-1.392.0156h-.001c-1.064.0179-2.11.0356-3.149-.0441-1.283-.1-2.021.3426-2.714 1.3846-1.067 1.6134-2.211 3.1725-3.384 4.7709z"/><path clip-rule="evenodd" d="m48.3897 15.1856.0426-.003.0011-.0001c.1899-.0131.3681-.0255.5462-.0255h10.1021c1.5485 0 3.0674.2427 4.5274.7708 3.9524 1.4561 5.3091 4.625 5.1912 8.1794-.118 3.4116-1.7992 5.8383-5.0584 7.2943.6538 1.0563 1.3059 2.1079 1.9581 3.1595l.0072.0116c1.3019 2.0992 2.6039 4.1985 3.9189 6.3358-.072.0069-.1387.0139-.2014.0205-.1943.0203-.3504.0366-.5065.0366-.4533 0-.9075-.0009-1.3622-.0018-1.3648-.0027-2.7337-.0054-4.0943.016-.5162.0143-.7817-.1712-1.0324-.5852-.7285-1.2181-1.4681-2.4326-2.2077-3.6471l-.0002-.0003-.0007-.0011-.0039-.0065-.0034-.0056-.0007-.0011c-.7396-1.2145-1.4791-2.4289-2.2076-3.6469-.2507-.414-.5162-.5567-.9881-.5424-.6602.0213-1.3204.0187-2.0112.0161-.2351-.001-.4737-.0019-.7171-.0019v8.3507h-5.9137c.0147-8.5648.0147-17.1152.0147-25.7228zm7.3731 12.4266c1.1065.009 2.1979.0179 3.2894-.022.5899-.0286 1.2093-.2141 1.7549-.4425 1.342-.571 2.1237-1.9985 1.9909-3.5258-.1474-1.6987-1.0028-2.9263-2.566-3.1547-1.3744-.2016-2.7635-.268-4.162-.3348-.5824-.0278-1.1665-.0557-1.7518-.0935v7.5656c.4807 0 .9574.0039 1.4314.0077z" fill-rule="evenodd"/><path d="m172.623 15.1558c-.442.0006-.889.0012-1.343.0012.016.0266.03.0522.044.0771l.03.0551c.025.0452.049.0878.071.1281.081.15.146.2691.224.3821 2.389 3.8541 4.778 7.694 7.197 11.5196.206.3426.265.5852.029.9564-1.784 2.7835-3.554 5.5813-5.309 8.3791-.383.6106-.767 1.2239-1.157 1.8474l-.006.009c-.492.7876-.995 1.5913-1.521 2.426.56 0 1.111.0009 1.656.0018 1.609.0027 3.162.0053 4.715-.016.192 0 .443-.257.561-.4569.486-.7802.943-1.5789 1.403-2.3812v-.0014c.112-.1954.224-.3909.337-.5864.988-1.6844 1.976-3.3689 3.008-5.1389.077.1287.144.2317.204.3242.067.1024.125.1921.18.2896.566.9879 1.137 1.9757 1.708 2.9636.857 1.4816 1.713 2.9633 2.554 4.4449.25.4283.516.6138 1.032.5995 1.085-.0214 2.178-.0187 3.266-.016.226.0005.451.0011.676.0014.136.0003.273.0004.409.0004h1.784c-.081-.1344-.151-.2512-.213-.3565l-.004-.0067c-.096-.1601-.175-.2936-.255-.4219-1.255-1.9866-2.51-3.9767-3.765-5.9669-1.252-1.9853-2.504-3.9707-3.756-5.9524-.207-.3426-.266-.5853-.03-.9564 1.443-2.2545 2.877-4.5164 4.31-6.7749l.124-.1952c.503-.7939 1.006-1.5873 1.51-2.3798.135-.2176.272-.4352.409-.6542.113-.1797.227-.3603.342-.5427.324-.514.657-1.0418 1.004-1.6009-.535 0-1.059.0009-1.577.0018-1.525.0027-2.987.0053-4.44-.0161-.502-.0142-.738.1713-.959.571-.958 1.712-1.945 3.4096-2.933 5.1073v.0003l-.002.0027c-.199.3382-.396.6738-.596 1.0143-.273.4646-.551.9385-.849 1.441-.464-.8137-.919-1.6162-1.37-2.4108-.997-1.7563-1.971-3.4732-2.966-5.1833-.132-.2284-.427-.4996-.663-.4996-1.671-.0342-3.332-.032-5.073-.0298z"/><path d="m75.2007 40.9655v-25.7514h17.9476v4.939h-12.0044v5.2673h10.6182v5.0247h-10.5887v5.51h7.9194c-.2289.4286-.461.8392-.6881 1.2407l-.0005.001c-.4459.7886-.8719 1.5421-1.2139 2.3269-.5014 1.1848-1.2535 1.5274-2.5513 1.4703-1.9915-.0799-3.9831-.062-5.9797-.044l-.0088.0001c-.8539.0077-1.7088.0154-2.565.0154z"/><path d="m94.918 36.4119c-.7963 1.4703-1.5927 2.9406-2.4628 4.5393.5865 0 1.1636-.0009 1.7333-.0018 1.6794-.0027 3.2954-.0052 4.9031.0161.5014.0143.7373-.1713.9584-.571l.017-.0312c4.419-8.1119 8.837-16.2237 13.271-24.3355.096-.1672.173-.3405.26-.5355.046-.1047.096-.2156.153-.3353h-4.823c-.226 0-.466-.0191-.707-.0384-.591-.0472-1.189-.0949-1.608.1384-.397.2264-.625.7311-.854 1.238-.104.2281-.207.4567-.326.6605-.03.0475-.061.0951-.092.1427-.062.0952-.124.1903-.173.2855-3.407 6.2808-6.8286 12.5617-10.25 18.8282z"/></g></svg>