<svg fill="none" height="56" viewBox="0 0 242 56" width="242" xmlns="http://www.w3.org/2000/svg"><g fill="#fff"><path d="m59.095 16.7454c-7.1457 0-12.97 5.8243-12.97 12.97 0 7.1456 5.8243 12.97 12.97 12.97s12.97-5.8244 12.97-12.97c0-7.1457-5.8243-12.97-12.97-12.97zm0 19.4376c-3.6163 0-6.4502-2.9209-6.4502-6.4502 0-3.5294 2.9208-6.4503 6.4502-6.4503s6.4502 2.9209 6.4502 6.4503c0 3.5293-2.9034 6.4502-6.4502 6.4502z"/><path d="m81.8709 34.0965c0-1.0432 1.2518-1.53 1.9473-.8345 3.2686 3.3381 8.6061 8.9538 8.6061 9.0233.0695.0696.1391.2087.4868.2782.1391.0695.3477.0695.5563.0695h5.8244c1.0432 0 1.3912-1.2517.9042-1.8081l-9.719-9.997-.4868-.5563c-1.1127-1.3214-.9736-1.8082.2782-3.1991l7.702-8.5365c.4868-.6259.2087-1.8082-.904-1.8082h-5.268c-.2087 0-.3477 0-.4868.0695-.3477.0696-.4173.2087-.4868.2782 0 0-4.3118 4.5726-6.8675 7.4239-.6955.765-2.0168.2782-2.0168-.765v-14.69124c0-.76498-.6259-1.04316-1.1127-1.04316h-4.3118c-.765 0-1.1127.48681-1.1127.97362v32.61628c0 .765.6259.9736 1.1127.9736h4.2422c.6955 0 1.1127-.4868 1.1127-.9736v-.3477z"/><path d="m117.182 41.4501-.487-4.3639c-.07-.6259-.626-.9736-1.182-.9041-.348.0696-.696.0696-.974.0696-3.477 0-6.241-2.7123-6.45-6.1025 0-.1391 0-.2087 0-.3478v-5.2853c0-.6955.487-1.2518 1.182-1.2518h5.824c.418 0 1.044-.3477 1.044-1.1127v-4.0858c0-.7649-.487-1.2518-.974-1.2518h-5.824c-.696 0-1.252-.4868-1.252-1.1822v-6.51979c0-.41726-.278-1.04316-1.113-1.04316h-4.294c-.557 0-1.043.34772-1.043.97362v21.10673c.208 7.0065 5.894 12.6396 12.97 12.6396.556 0 1.182-.0695 1.738-.1391.487-.0869.904-.6432.835-1.1996z"/><path d="m148.424 36.0432c-3.685 0-4.242-1.3213-4.242-6.2416 0 0 0 0 0-.0695v-11.8052c0-.4172-.278-1.1127-1.112-1.1127h-4.312c-.557 0-1.113.4173-1.113 1.1127v.5564c-1.878-1.0432-4.103-1.6691-6.381-1.6691-7.145 0-12.97 5.8243-12.97 12.97s5.825 12.97 12.97 12.97c3.199 0 6.173-1.1822 8.398-3.1295 1.252 1.8777 3.199 3.06 6.242 3.1295.556 0 3.268.0696 3.268-1.1822v-4.5726c.017-.5389-.33-.9562-.748-.9562zm-17.212.1391c-3.616 0-6.45-2.9209-6.45-6.4502 0-3.6163 2.921-6.4503 6.45-6.4503 3.617 0 6.451 2.9209 6.451 6.4503.069 3.5293-2.852 6.4502-6.451 6.4502z"/><path clip-rule="evenodd" d="m194.86 18.3154c.396-.4072.491-1.0241.208-1.5161-1.736-3.008-4.243-5.5151-7.251-7.25084-.492-.28392-1.109-.18837-1.516.20762l-6.279 6.16082c-2.25 2.1887-5.834 2.1887-8.085 0l-6.28-6.16226c-.407-.39594-1.025-.49151-1.516-.20772-3.009 1.73578-5.517 4.24338-7.253 7.25228-.284.492-.188 1.1089.207 1.5161l6.162 6.2797c2.189 2.2507 2.189 5.8345 0 8.0852l-6.162 6.2797c-.395.4072-.491 1.0241-.207 1.5161 1.736 3.0089 4.244 5.5164 7.253 7.2523.491.2838 1.109.1882 1.516-.2078l6.28-6.1622c2.251-2.1887 5.835-2.1887 8.085 0l6.279 6.1608c.407.396 1.024.4915 1.516.2076 3.008-1.7358 5.515-4.2428 7.251-7.2508.283-.492.188-1.1089-.208-1.5161l-6.162-6.2796c-2.188-2.2507-2.188-5.8345 0-8.0852zm-26.741 3.7611c-.445-.8339.46-1.7398 1.294-1.294l3.464 1.8522c1.937 1.0355 4.262 1.0355 6.199 0l3.464-1.8522c.833-.4458 1.739.4601 1.293 1.294l-1.852 3.4636c-1.035 1.9366-1.035 4.2623 0 6.1989l1.852 3.4636c.446.8339-.46 1.7398-1.293 1.294l-3.464-1.8521c-1.937-1.0356-4.262-1.0356-6.199 0l-3.464 1.8521c-.834.4458-1.739-.4601-1.294-1.294l1.853-3.4636c1.035-1.9366 1.035-4.2623 0-6.1989z" fill-rule="evenodd"/></g></svg>