<svg fill="none" height="56" viewBox="0 0 242 56" width="242" xmlns="http://www.w3.org/2000/svg"><g clip-rule="evenodd" fill="#fff" fill-rule="evenodd"><path d="m104.363 36.2998-2.007 9.2985h-4.6172l7.6282-33.6991h5.469l7.177 33.6991h-4.668l-1.957-9.2985zm6.473-3.7501-1.556-8.051c-.451-2.3001-.903-5.2985-1.253-7.6994h-.202c-.35 2.4501-.854 5.5493-1.304 7.6994l-1.606 8.051zm24.8-21.5497v28.349c0 1.8509.1 4.551.2 6.2502h-4.064l-.301-2.9493h-.151c-.803 1.6992-2.66 3.3501-5.118 3.3501-4.517 0-7.277-4.9009-7.277-12.4495 0-8.6002 3.663-12.6503 7.528-12.6503 1.956 0 3.512.9009 4.365 2.7501h.101v-12.6503zm-4.718 19.5496c0-.4491 0-.9992-.051-1.5008-.25-2.1993-1.505-4.0993-3.211-4.0993-2.961 0-3.964 4.0993-3.964 8.6002 0 5.0001 1.305 8.4994 3.814 8.4994 1.054 0 2.458-.55 3.261-3.4493.1-.4.151-1.0008.151-1.5492zm15.954 15.4496c-4.867 0-8.381-4.1501-8.381-12.4987 0-8.851 4.165-12.6011 8.631-12.6011 4.818 0 8.28 4.3001 8.28 12.5003 0 9.6502-4.768 12.5995-8.48 12.5995zm.15-3.6993c2.91 0 3.563-5.1501 3.563-8.8494 0-3.6509-.652-8.8502-3.663-8.8502-3.112 0-3.713 5.1993-3.713 8.8502 0 4.0493.702 8.8494 3.764 8.8494zm11.224-31.2999h4.716v13.0495h.101c1.254-2.1992 2.961-3.1501 5.119-3.1501 4.164 0 6.775 4.7001 6.775 12.1503 0 8.6994-3.564 12.9495-7.578 12.9495-2.409 0-3.764-1.3009-4.819-3.4509h-.199l-.252 3.05h-4.064c.1-1.6492.201-4.3992.201-6.2501zm4.716 25.9981c0 .5517.051 1.1017.201 1.5009.752 2.9509 2.208 3.5501 3.161 3.5501 2.81 0 3.864-3.6993 3.864-8.6994 0-4.6501-1.103-8.4002-3.914-8.4002-1.556 0-2.811 1.85-3.162 3.6001-.1.5-.15 1.1508-.15 1.65zm18.955-2.5992c.05 6.2501 2.76 7.7993 5.62 7.7993 1.706 0 3.162-.3991 4.216-.9l.702 3.4001c-1.455.75-3.663 1.1509-5.821 1.1509-6.122 0-9.334-4.6001-9.334-12.1003 0-7.9502 3.663-12.8503 8.732-12.8503 5.068 0 7.427 4.8501 7.427 10.9511 0 1.1992-.051 1.95-.1 2.5992zm7.075-3.3493c.051-4.3001-1.455-6.5993-3.311-6.5993-2.46 0-3.564 3.5501-3.714 6.5993z"/><path d="m71.1527 11.9841h14.0911v33.6092zm-9.9266 0h-14.1011v33.6092zm4.9641 12.3862 8.9781 21.223h-5.8833l-2.6849-6.7594h-6.5717z"/><path d="m193.059 20.8321c.142.0006.282.0292.412.084.13.0547.248.1347.347.2352s.178.2195.23.3502c.053.1308.079.2706.077.4114 0 .6101-.473 1.0859-1.071 1.0859-.593 0-1.075-.475-1.075-1.0859-.001-.1413.026-.2815.08-.4124s.133-.2499.233-.3503.218-.1802.349-.2348.272-.0829.413-.0833zm-.005.1675c-.476 0-.868.4092-.868.9133 0 .5142.392.9176.873.9176.482.005.868-.4034.868-.9126 0-.5091-.386-.9183-.868-.9183zm-.202 1.5434h-.192v-1.2067c.101-.0142.198-.0292.343-.0292.183 0 .302.0392.375.0917s.111.1341.111.25c0 .1583-.106.255-.236.2933v.0092c.106.0191.179.1158.202.2933.029.1875.058.2592.078.2984h-.203c-.029-.0392-.057-.1492-.082-.3076-.029-.1541-.106-.2116-.26-.2116h-.135v.5192zm0-.6684h.14c.159 0 .295-.0575.295-.2067 0-.1058-.078-.2116-.295-.2116-.062 0-.107.005-.14.01zm-105.7479-9.8902c.1414.0006.2812.0292.4115.0839.1302.0548.2483.1348.3474.2353.099.1005.1771.2195.2298.3502.0526.1308.0788.2706.0769.4114 0 .61-.4726 1.0859-1.0706 1.0859-.593 0-1.0756-.475-1.0756-1.0859-.0008-.1414.0264-.2815.0801-.4124.0536-.1309.1327-.2499.2326-.3503s.2187-.1802.3496-.2348c.131-.0546.2714-.0829.4133-.0833zm-.005.1675c-.4776 0-.8682.4092-.8682.9133 0 .5142.3906.9176.8732.9176.4818.005.8682-.4034.8682-.9126 0-.5091-.3864-.9183-.8682-.9183zm-.2024 1.5434h-.1932v-1.2067c.1133-.0188.228-.0283.3429-.0284.1832 0 .3036.0375.3755.0909.0728.0525.1113.135.1113.25 0 .1583-.1062.255-.2367.2933v.0092c.1062.0191.179.1158.2032.2941.0285.1875.0577.2592.077.2984h-.2024c-.0293-.0392-.0586-.1492-.082-.3075-.0293-.1542-.1062-.2117-.261-.2117h-.1346zm0-.6684h.1397c.1589 0 .2944-.0575.2944-.2067 0-.1058-.077-.2116-.2944-.2116-.0628 0-.1063.005-.1397.01z"/></g></svg>