<svg fill="none" height="56" viewBox="0 0 242 56" width="242" xmlns="http://www.w3.org/2000/svg"><g fill="#fff"><path clip-rule="evenodd" d="m160.742 31.1137c0 8.7072-6.52 14.2252-13.401 14.2252-3.726 0-6.986-1.62-8.849-4.3536l-1.227 3.7967h-5.809l-.002-34.7819 7.351-.0001v10.8396c1.885-2.4285 4.878-3.9511 8.484-3.9511 7.037 0 13.453 5.5179 13.453 14.2252zm-22.612-.0506c0 4.2523 3.364 7.6947 7.762 7.6947 4.294 0 7.709-3.3918 7.709-7.6947 0-4.3031-3.415-7.6948-7.709-7.6948-4.398 0-7.762 3.4424-7.762 7.6948z" fill-rule="evenodd"/><path d="m80.1262 44.7822 15.9831-.0002 2.2247-6.9354-10.8603.0002-.0012-27.8467h-7.3475z"/><path clip-rule="evenodd" d="m113.752 45.3389c8.434 0 14.799-6.3786 14.799-14.2252 0-7.8973-6.468-14.2252-14.799-14.2252-8.382 0-14.7463 6.3279-14.7463 14.2252 0 7.8466 6.3643 14.2252 14.7463 14.2252zm.052-6.6317c-4.295 0-7.658-3.3918-7.658-7.6441 0-4.2524 3.363-7.6442 7.658-7.6442 4.243 0 7.658 3.3918 7.658 7.6442 0 4.2523-3.415 7.6441-7.658 7.6441z" fill-rule="evenodd"/></g></svg>