<svg fill="none" height="56" viewBox="0 0 242 56" width="242" xmlns="http://www.w3.org/2000/svg"><path d="m123.38 28.0277c-1.395 0-2.401.4515-3.421.9114v10.4073c.977.0919 1.537.0919 2.464.0919 3.349 0 3.808-1.5134 3.808-3.6263v-4.9706c0-1.5604-.525-2.8137-2.851-2.8137zm-22.244-.568c-2.3242 0-2.8545 1.2587-2.8545 2.8176v.8759h5.7055v-.8759c0-1.5589-.53-2.8176-2.851-2.8176zm-43.0917 10.8326c0 1.2332.5898 1.8737 1.8914 1.8737 1.3962 0 2.223-.4491 3.2422-.9106v-2.4687h-3.0529c-1.4455 0-2.0807.2654-2.0807 1.5056zm86.9737-10.2646c-2.328 0-3.134 1.2533-3.134 2.8137v5.6945c0 1.5642.806 2.8213 3.134 2.8213 2.322 0 3.134-1.2571 3.134-2.8213v-5.6945c0-1.5604-.813-2.8137-3.134-2.8137zm-98.3813 16.6497h-6.8427v-16.3402h-3.419v-5.6305h3.4198v-3.3816c0-4.594 1.9297-7.3251 7.4145-7.3251h4.5665v5.632h-2.8543c-2.1354 0-2.2762.7871-2.2762 2.2557l-.0086 2.8183h5.1703l-.6046 5.6304h-4.5657zm23.3855.0425h-5.7031l-.2464-1.4231c-2.6039 1.4231-4.9278 1.6538-6.4609 1.6538-4.1825 0-6.4086-2.7565-6.4086-6.5688 0-4.4976 2.5977-6.1027 7.2447-6.1027h4.73v-.9724c0-2.2958-.2667-2.9695-3.8453-2.9695h-5.8509l.5718-5.6305h6.3953c7.8517 0 9.5734 2.4472 9.5734 8.6456zm19.3931-15.9699c-3.5489-.6004-4.5681-.7323-6.2756-.7323-3.067 0-3.9939.6675-3.9939 3.2373v4.861c0 2.5698.9269 3.2405 3.9939 3.2405 1.7075 0 2.7267-.1343 6.2756-.737v5.4923c-3.1085.6876-5.1336.8681-6.8451.8681-7.3464 0-10.2664-3.8115-10.2664-9.3176v-3.9443c0-5.5108 2.92-9.3292 10.2664-9.3292 1.7115 0 3.7366.1814 6.8451.872zm21.4137 6.9123h-12.5483v.4537c0 2.5698.9277 3.2405 3.9943 3.2405 2.756 0 4.439-.1343 7.981-.737v5.4923c-3.416.6876-5.197.8681-8.548.8681-7.3477 0-10.2692-3.8115-10.2692-9.3176v-4.5099c0-4.8178 2.1675-8.7636 9.6962-8.7636 7.529 0 9.694 3.9002 9.694 8.7636zm22.243.1042c0 5.3217-1.541 9.2034-10.881 9.2034-3.373 0-5.351-.2925-9.073-.8574v-30.4209l6.84-1.1259v10.6411c1.478-.5417 3.391-.8172 5.133-.8172 6.841 0 7.98 3.0259 7.98 7.8884v5.4885zm21.928.1157c0 4.5909-1.921 9.0437-9.959 9.0437-8.042 0-9.999-4.4528-9.999-9.0437v-4.4327c0-4.5932 1.957-9.0468 9.999-9.0468 8.038 0 9.959 4.4536 9.959 9.0468zm21.912 0c0 4.5909-1.923 9.0437-9.959 9.0437-8.042 0-9.999-4.4528-9.999-9.0437v-4.4327c0-4.5932 1.957-9.0468 9.999-9.0468 8.036 0 9.959 4.4536 9.959 9.0468zm22.488 8.7952h-7.415l-6.271-10.3278v10.3278h-6.842v-30.9866l6.842-1.1259v19.948l6.271-9.8062h7.415l-6.846 10.7014zm-32.471-16.6497c-2.324 0-3.13 1.2533-3.13 2.8137v5.6945c0 1.5642.806 2.8213 3.13 2.8213 2.321 0 3.142-1.2571 3.142-2.8213v-5.6945c0-1.5604-.821-2.8137-3.142-2.8137zm36.376 12.7958c1.152 0 2.07.9268 2.07 2.0844 0 1.1753-.918 2.0921-2.078 2.0921-1.155 0-2.091-.9168-2.091-2.0921 0-1.1576.936-2.0844 2.091-2.0844zm-.008.3241c-.929 0-1.688.7879-1.688 1.7603 0 .9901.76 1.768 1.696 1.768.937.0092 1.686-.7779 1.686-1.7588 0-.9808-.749-1.7695-1.686-1.7695zm-.394 2.9734h-.375v-2.3259c.197-.027.385-.054.666-.054.357 0 .59.074.733.1751.139.1027.213.2593.213.4808 0 .3072-.205.4916-.458.5664v.0178c.206.0378.346.2215.394.5634.055.3619.112.5.148.5756h-.393c-.056-.0756-.113-.2878-.16-.5942-.054-.2955-.206-.4067-.507-.4067h-.26v1.0017zm0-1.2872h.272c.309 0 .571-.1119.571-.3997 0-.2038-.149-.4067-.571-.4067-.122 0-.208.0092-.272.0177z" fill="#fff"/></svg>