<svg fill="none" height="56" viewBox="0 0 242 56" width="242" xmlns="http://www.w3.org/2000/svg"><g fill="#fff"><path d="m117.816 17.3599h6.599v21.2965h-4.89v-14.3213l-6.255 14.3213-6.584-14.3393v14.3393h-4.562v-21.2965h6.521l4.702 11.0228z"/><path d="m126.847 17.3599v21.2965h12.288v-3.6105h-7.525v-5.418h7.214v-3.6445h-7.214v-4.886h7.525v-3.7375z"/><path d="m157.461 28.0121c0 7.9274 8.274 14.271 16.991 10.028v-4.5626c-6.707 4.6992-12.547-.0108-12.451-5.2834.066-3.5042 2.42-6.8367 6.976-7.0966 2.24-.1271 3.757.4297 5.475 2.0751v-4.7447c-6.299-3.7328-16.991.3756-16.991 9.5842z"/><path d="m176.463 38.6564h4.53v-21.0917h-4.53z"/><path d="m186.676 27.2363 6.845-9.625h-5.29l-6.781 9.6069 7.872 11.4383h5.194z"/><path d="m141.252 17.3594v21.2966h4.78v-11.4416l7.902 11.4416h5.096l-6.256-8.9424c2.899-1.0963 3.84-3.5272 3.84-5.9569 0-2.4279-2.038-6.3973-6.975-6.3973zm4.78 3.5438h2.087c3.528 0 3.716 2.3063 3.716 3.1674 0 1.6454-1.396 3.0466-3.198 3.0466h-2.605z"/><path d="m59.2347 17.3604c0-5.8818 4.7684-10.64922 10.6492-10.64922 5.8827 0 10.6492 4.76742 10.6492 10.64922zm0 21.2975c0-5.8809 4.7684-10.6492 10.6492-10.6492-5.8808 0-10.6492-4.7666-10.6492-10.6483-5.8808 0-10.6483 4.7674-10.6483 10.6483 0 5.8827 4.7675 10.6492 10.6483 10.6492zm0 0c0 5.8827 4.7684 10.6492 10.6492 10.6492 5.8827 0 10.6492-4.7665 10.6492-10.6492zm10.6492-10.6492c5.8827 0 10.6492 4.7683 10.6492 10.6492 5.8818 0 10.6502-4.7665 10.6502-10.6492 0-5.8809-4.7684-10.6483-10.6502-10.6483 0 5.8817-4.7665 10.6483-10.6492 10.6483z"/></g></svg>