<svg fill="none" height="56" viewBox="0 0 241 56" width="241" xmlns="http://www.w3.org/2000/svg"><g clip-rule="evenodd" fill="#fff" fill-rule="evenodd"><path d="m69.1176 22.7844c-1.1944-.9802-2.8147-1.8293-4.8161-2.5241-1.7905-.6215-3.851-1.1084-6.0803-1.446.6633 1.0387 1.3069 2.1182 1.9275 3.2351.0936.1677.1851.3354.2767.5031 4.911 1.1176 8.155 3.0448 8.155 5.2356 0 1.8392-2.2856 3.4923-5.9236 4.6366-.9726-3.0018-2.3887-6.2277-4.1528-9.4008-2.2768-4.0975-4.8704-7.6786-7.4992-10.3563-3.0418-3.09693-5.8327-4.6676-8.2954-4.6676-.9949 0-1.9139.24945-2.7325.74059-1.0872.65181-2.4668 2.02311-2.8642 4.85371-.2197 1.5643-.118 3.4471.3039 5.5956.3764 1.9202 1.0003 4.0151 1.8325 6.1883.5351-1.1197 1.115-2.2422 1.7376-3.3619.0916-.1649.1838-.3291.2768-.4926-1.522-4.9741-1.5369-8.8532.2882-9.9483.3398-.2036.7284-.3016 1.1571-.3016 1.5036-.0007 3.5077 1.2184 5.6625 3.3154-2.0211 2.3789-3.9826 5.249-5.7527 8.4347-2.5719 4.6282-4.4194 9.3734-5.202 13.3631-.4219 2.1485-.5236 4.0306-.3039 5.5957.3974 2.8299 1.777 4.2018 2.8642 4.8536.8186.4912 1.7383.7406 2.7319.7406 2.4626 0 5.2535-1.5707 8.2954-4.6676 1.0838-1.1035 2.1608-2.3613 3.2127-3.7445-1.1957.0775-2.4158.1169-3.6556.1169-.1886 0-.3771-.0014-.565-.0028-2.7577 3.1435-5.4109 5.0242-7.2875 5.0242-.4287 0-.8173-.0979-1.1571-.3016-1.5328-.9196-1.7675-3.8037-.9027-7.6497 2.9896.6264 6.3848.9661 9.9123.9661 5.1436 0 10.0228-.711 13.7402-2.0013 2.0014-.6948 3.6217-1.5446 4.8161-2.5247 2.1601-1.773 2.6132-3.6995 2.6132-5.0038 0-1.3036-.4531-3.2301-2.6132-5.0037zm-27.5801 10.414c.8817-2.6551 2.1655-5.5794 3.8096-8.5375 1.646-2.9624 3.4433-5.5774 5.2176-7.6991 1.7715 2.121 3.5674 4.7409 5.2108 7.6991 1.646 2.9609 2.9259 5.8852 3.8075 8.5418-2.6539.5341-5.7337.8413-9.0217.8413-3.2915 0-6.3686-.3107-9.0238-.8456z"/><path d="m174.979 17.6924c-.868 0-1.562.658-1.562 1.5076 0 .828.694 1.4649 1.562 1.4649.867 0 1.562-.6369 1.562-1.4649 0-.8496-.695-1.5076-1.562-1.5076zm-6.573 11.3169c0 1.2746.651 1.9115 1.953 1.9115.368 0 .713-.0306 1.194-.1367l.888 1.9835c-.955.276-1.8.4249-2.56.4249-2.451 0-3.97-1.6137-3.97-4.1832v-4.1192h-2.343v-2.0596h2.343v-3.6733h2.495v3.6733h3.796v2.0596h-3.796zm-24.736-5.3502c.932-.7647 1.996-1.1467 3.167-1.1467 1.345 0 2.429.4459 3.254 1.316.824.8707 1.236 2.0385 1.236 3.504v5.5413h-2.495v-5.3931c0-1.7619-.954-2.7387-2.516-2.7387-.954 0-1.843.4881-2.646 1.4438v6.688h-2.516v-10.0432h2.516zm59.795-1.1141c.423 0 .784.1482 1.08.4269.304.2841.455.6247.455 1.0387 0 .4146-.151.7613-.455 1.0393-.296.278-.657.4207-1.08.4207s-.784-.1427-1.087-.4207c-.297-.278-.449-.6247-.449-1.0393 0-.414.152-.7607.449-1.0387.303-.2848.664-.4269 1.087-.4269zm-.006 2.6605c.332 0 .626-.1148.868-.3446.247-.2365.372-.518.372-.8503 0-.3386-.125-.6193-.372-.8558-.242-.2366-.536-.3515-.868-.3515-.333 0-.627.1149-.869.3515-.241.2365-.365.5172-.365.8558 0 .3323.124.6138.365.8503.242.2298.536.3446.869.3446zm.084-1.9291c.313 0 .549.1978.549.4786 0 .2175-.111.3643-.34.435l.386.4853h-.327l-.359-.4534h-.255v.4534h-.254v-1.3989zm-.006.7151h-.34v-.4792h.34c.176 0 .287.1026.287.2366 0 .1468-.111.2426-.287.2426zm-66.971 5.4848c-.802.9986-1.691 1.4866-2.668 1.4866-1.562 0-2.516-1.0189-2.516-2.7387v-5.3937h-2.495v5.5419c0 1.4655.413 2.6333 1.237 3.5034.824.8707 1.909 1.3167 3.253 1.3167 1.193 0 2.257-.3821 3.189-1.1678v.849h2.495v-10.0432h-2.495zm21.547-4.6501c1.28 0 2.235.6798 2.473 1.7626h2.56c-.151-1.1678-.716-2.1228-1.67-2.8665-.933-.7429-2.06-1.1249-3.363-1.1249-1.54 0-2.841.5091-3.882 1.5076-1.042.9979-1.562 2.2506-1.562 3.7576 0 1.4866.52 2.7394 1.562 3.7372 1.041.9979 2.342 1.5077 3.882 1.5077 1.324 0 2.452-.361 3.384-1.1039.933-.7436 1.498-1.7197 1.649-2.8882h-2.56c-.238 1.0835-1.193 1.7836-2.473 1.7836-1.735 0-2.95-1.316-2.95-3.0364 0-1.7197 1.215-3.0364 2.95-3.0364zm18.123-1.9957h-2.494v10.0432h2.494zm7.022-.2331c-1.562 0-2.863.5091-3.905 1.5076-1.041.9979-1.562 2.2506-1.562 3.7576 0 1.5294.521 2.8033 1.562 3.8222 1.042.9979 2.343 1.5077 3.905 1.5077 1.54 0 2.842-.5098 3.882-1.5077 1.042-1.0189 1.562-2.2928 1.562-3.8222 0-1.507-.52-2.7597-1.562-3.7576-1.019-.9985-2.32-1.5076-3.882-1.5076zm0 8.3655c.867 0 1.583-.297 2.126-.8918.542-.5948.824-1.3377.824-2.2085 0-1.7197-1.215-3.0364-2.95-3.0364-1.757 0-2.972 1.3167-2.972 3.0364 0 .8708.282 1.6137.824 2.2085.565.5948 1.281.8918 2.148.8918zm9.526-7.3038c.933-.7647 1.996-1.1467 3.168-1.1467 1.344 0 2.429.4459 3.253 1.316.824.8707 1.237 2.0385 1.237 3.504v5.5413h-2.495v-5.3931c0-1.7619-.954-2.7387-2.516-2.7387-.955 0-1.844.4881-2.647 1.4438v6.688h-2.516v-10.0432h2.516zm-68.675 3.4538c0 3.8425-4.111 3.8826-6.431 2.7115l-1.039 2.3498c3.61 1.7857 10.095 1.541 10.095-4.6725v-9.0664h-2.625zm-36.3246-8.6776c1.757 0 3.1667.467 4.2299 1.3806 1.0625.9129 1.6048 2.1017 1.6048 3.6094 0 1.5716-.5639 2.8454-1.7132 3.8004-1.1284.9557-2.625 1.4227-4.4902 1.4227h-2.582v4.2253h-2.6027v-14.4384zm-.0868 7.8775h-2.8639v-5.5201h2.8639c1.9951 0 3.3403 1.04 3.3403 2.6326 0 1.7197-1.3452 2.8875-3.3403 2.8875zm14.7544-2.7815c-.89-.6158-1.931-.9339-3.1454-.9339-1.4319 0-2.6465.5091-3.6659 1.5498-.998 1.0189-1.4973 2.2506-1.4973 3.7154 0 1.4655.4993 2.6972 1.4973 3.7162 1.0194 1.0189 2.234 1.5287 3.6659 1.5287 1.2144 0 2.2554-.3188 3.1454-.934v.7002h2.494v-10.0432h-2.494zm-2.7766 7.4527c1.1926 0 2.1256-.467 2.7766-1.4227v-3.4184c-.651-.955-1.584-1.4227-2.7766-1.4227-.8681 0-1.5834.3188-2.1695.9346-.5854.6159-.8673 1.3588-.8673 2.2078 0 .8497.2819 1.5927.8673 2.2085.5861.6158 1.3014.9129 2.1695.9129zm12.6826-.658 3.34-7.5165h2.647l-6.703 15.0752h-2.647l2.083-4.6712-5.098-10.404h2.69z"/></g></svg>