<svg fill="none" height="56" viewBox="0 0 241 56" width="241" xmlns="http://www.w3.org/2000/svg"><g fill="#fff"><path d="m120.064 37.9029c-.447.9114-.905 1.7139-1.494 2.4341-1.023 1.2528-2.074 1.6813-3.112 1.2625-1.197-.4842-1.869-1.766-1.712-3.2863.064-.621.128-1.2419.233-1.8568.099-.5907.248-1.1729.378-1.7769-.894.3631-1.492.8824-1.751 1.8919-.432 1.6813-1.212 3.2536-2.288 4.6153-.709.9018-1.558 1.6353-2.636 2.0577-2.604 1.0192-4.557-.3316-4.502-3.1277.025-1.2104.32-2.3881.7-3.538.665-2.0142 1.521-3.9387 2.765-5.6672.558-.7771 1.21-1.4525 2.229-1.6377.293-.0545.619-.0775.821.0762.468.3559.933.3026 1.461.2252.687-.1005 1.191.2735 1.566.8243.42.6161.539 1.3314.649 2.0904.587-.3256 1.08-.7965 1.432-1.3678.561-.863 1.305-1.5736 1.899-2.4136.765-1.0785 2.227-.932 2.847.2046.179.3292.207.6052-.016.9405-1.484 2.2259-1.98 4.8017-2.562 7.3436-.127.5168-.164 1.0518-.109 1.5808.345-.3196.623-.7033.82-1.1305 1.233-2.3543 2.131-4.8526 3.134-7.3049.228-.558.433-1.1233.655-1.6837.221-.5604.663-.8195 1.277-.8098.712.0109 1.383.1211 1.801.7698.193.2978.029.6283-.112.92-.751 1.5166-1.25 3.1446-1.477 4.8211-.104.7383-.128 1.4864-.072 2.2295.364-.242.537-.5337.704-.8194.753-1.2903 1.268-2.6847 1.783-4.0803.099-.2663-.01-.4685-.082-.6936-.521-1.6244-.677-3.2681-.221-4.9337.238-.9513.848-1.7684 1.695-2.2659.667-.3909 1.392-.6149 2.101-.121s.877 1.2165.768 2.0323c-.198 1.3327-.49 2.6496-.871 3.9411-.079.3522-.18.6996-.305 1.0398-.176.4103.036.5047.363.5204.552.0255 1.253-.4962 1.393-1.0506 1.574-6.2567 3.418-12.4322 5.534-18.5267.038-.092.064-.1888.081-.2868.109-1.2673.995-2.33371 2.222-2.67263.979-.29413 2.169.18761 2.971 1.17652.529.65121.484 1.38351.329 2.12551-.553 2.715-1.635 5.2484-2.706 7.7818-1.614 3.7922-3.487 7.4682-5.608 11.0015-.717 1.2007-.654 2.4983-.633 3.8007-.012.3849.053.7674.192 1.1257.17.3837.436.4986.827.3135.358-.1889.667-.4588.903-.788.764-.9623 1.416-2.0081 1.945-3.1181.254-.5277.268-1.168.412-1.7527.626-2.6229 1.646-5.1358 3.026-7.4525.409-.6778.9-1.2842 1.589-1.7091.586-.3631 1.201-.4575 1.846-.2106.403.1549.825.1658 1.242.2288.856.1307 1.381.6354 1.369 1.4912-.043 3.0672-1.168 5.689-3.411 7.7878-.706.6585-1.566 1.0894-2.596.7372-.211-.0702-.243.029-.263.19-.137.9417-.22 1.8846 0 2.8239.184.7735.598.9744 1.342.6573.816-.3474 1.453-.9417 2.042-1.5736 2.001-2.1436 3.34-4.6649 4.199-7.4513.178-.5762.333-1.1596.5-1.7382.145-.5059.373-.9949-.261-1.392-.284-.1767-.255-.5713-.181-.8993.263-1.1547 1.695-2.4208 2.886-2.5419.957-.1017 1.462.4987 1.296 1.5215-.028.1695-.256.46.041.4975.298.0375.653.3329.942-.0642.177-.2457.373-.4756.586-.6899.658-.65 1.703-.6948 2.413-.1029.532.437.594 1.0894 0 1.7612-.987 1.1111-1.503 2.4608-2.075 3.7825-.608 1.3823-1.02 2.8421-1.224 4.3382-.032.3002-.047.6028-.047.9054-.006.3002-.056.6911.233.8231.336.1525.587-.1901.794-.4164 1.006-1.0797 1.763-2.3676 2.217-3.7717.605-1.9597 1.464-3.8322 2.557-5.5679.484-.7505 1.029-1.4525 1.855-1.8628.648-.3232 1.31-.4237 1.927.0653.193.1525.363.1211.562.0763 1.126-.2324 1.845.1343 2.315 1.2104.509 1.1584.457 2.3688.226 3.5647-.42 2.1678-1.168 4.2207-2.386 6.0775-.917 1.3992-2.079 2.5116-3.762 2.9425-1.763.4515-2.974-.1477-3.7-1.8435-.242.2833-.467.5641-.709.8304-.401.4539-.891.8206-1.441 1.076-2.143.9793-3.855-.1028-3.829-2.4559.017-1.6425.405-3.2294.884-4.7908.218-.7105.468-1.4102.699-2.1158.05-.1501.242-.3377-.062-.4261-.236-.069-.394-.0242-.492.2627-.444 1.2915-.826 2.6229-1.516 3.7995-1.393 2.376-2.85 4.7206-4.879 6.633-1.159 1.0894-2.517 1.7939-4.142 1.8968-1.192.075-2.14-.2978-2.712-1.5009-.173.2311-.317.4309-.469.6257-.753.9684-1.604 1.806-2.822 2.1788-1.042.3159-1.947.0775-2.723-.6682-.726-.6984-1.15-1.542-1.168-2.566v-.9066c0-.3014.102-.6767-.041-.8776s-.512.0617-.789.0351c-.04 0-.086.0109-.122 0-.84-.3631-1.08.1331-1.331.8134-.435 1.1487-1 2.2429-1.686 3.2609-.374.5761-.844 1.0845-1.388 1.5033-1.02.7698-2.09.5846-3.148.1344-.522-.224-.634-.7989-.835-1.3557m37.79-7.4174c0 .1016-.009.2021 0 .3026.032.328-.082.7419.309.9054.391.1634.687-.109.969-.3486.078-.063.149-.1356.212-.2143 1.594-2.1679 2.603-4.55 2.643-7.2819 0-.2614 0-.5568-.272-.6851-.298-.1392-.536.0593-.759.2421-.096.0739-.183.1586-.26.2506-1.61 1.9996-2.615 4.2534-2.842 6.8292zm-51.457 9.0333c.092.4842-.165 1.0615.364 1.2504.529.1888.916-.2494 1.198-.6367 1.547-2.1219 2.536-4.4556 2.587-7.1233.006-.2942.048-.6452-.295-.7844-.342-.1392-.567.115-.801.3038-.079.063-.15.1344-.213.2131-1.586 2.0165-2.607 4.2667-2.844 6.7783m27.935-15.0576c.276-.6342.558-1.2649.825-1.9028 1.357-3.2402 2.671-6.4975 3.521-9.9181.085-.3426.243-.713-.025-1.2225-1.632 4.3732-3.087 8.6665-4.321 13.0434zm8.418.5459v-.472c0-.1405-.008-.299-.169-.3462-.124-.0206-.247.0339-.315.1392-.968 1.1995-1.736 2.5007-1.855 4.0815-.022.2772-.022.6488.325.7747.392.1428.594-.184.76-.4455.701-1.1305 1.13-2.4075 1.254-3.7317z"/><path d="m98.6955 29.6551c.9683.121 1.7825.3316 2.5155.7867 1.86 1.1596 2.523 3.1241 1.772 5.2472-.386 1.0628-.986 2.0359-1.76 2.8602-3.1545 3.4267-6.8669 5.9952-11.3842 7.3073-2.8432.8267-5.2931.2615-7.2298-2.0577-1.1644-1.3956-1.1729-2.5237-.3328-4.2498.2783-.5713.7093-.5846 1.1244-.0484.4673.6052.8546 1.2697 1.5106 1.8156 1.5203-6.6052 3.486-13.0386 5.689-19.4949-1.8495.5991-3.5732 1.2854-5.2811 2.0177-.2578.1102-.5229.207-.7746.3329-.3353.1682-.7347.2421-.6996.8025.0217.3377-.3184.5907-.5871.8049-.811.6452-1.7369 1.0894-2.6992 1.4525-.1889.0702-.3946.0835-.5919.0388-.9175-.2494-1.7914-.6186-2.525-1.2347-.6391-.535-.581-1.1378.1501-1.7079 1.4792-1.1499 3.0467-2.1787 4.6904-3.0769 4.8017-2.6411 9.8976-4.4785 15.3348-5.1696 3.692-.4685 6.036.4902 7.914 3.6857.749 1.277.742 2.5491 0 3.8309-.908 1.5663-2.22 2.7501-3.613 3.8589-.991.7879-2.0581 1.4718-3.2177 2.2041m-1.2903 2.9353c-2.2659.1271-4.4325.7057-6.5605 1.4598-.2868.1004-.3062.3473-.3824.5652-.9163 2.5952-1.6777 5.2339-2.341 7.904-.1404.5653.0799.6222.5108.6234.9526 0 1.8156-.3159 2.6411-.748 3.0079-1.5736 5.4796-3.7983 7.6414-6.3838.4249-.5096.7686-1.0809.8933-1.7563s-.1114-1.1402-.742-1.4029c-.529-.2045-1.0942-.2941-1.6607-.2614zm-5.4868-2.4644c2.5225-1.0737 4.8417-2.2998 6.9248-3.9302 1.0833-.8473 2.092-1.7733 2.877-2.9135.567-.8219 1.005-1.6946.968-2.7368-.023-.6379-.306-.955-.95-1.0143-.282-.0278-.565-.0315-.847-.0109-1.9197.1453-3.7523.6343-5.551 1.3194-.3219.1004-.5737.3546-.6705.6778-.9998 2.7985-1.898 5.6284-2.7525 8.6085"/><path d="m120.064 37.9029c-.447.9114-.905 1.7139-1.494 2.4341-1.023 1.2528-2.074 1.6813-3.112 1.2625-1.197-.4842-1.869-1.766-1.712-3.2863.064-.621.128-1.2419.233-1.8568.099-.5907.248-1.1729.378-1.7769-.894.3631-1.492.8824-1.751 1.8919-.432 1.6813-1.212 3.2536-2.288 4.6153-.709.9018-1.558 1.6353-2.636 2.0577-2.604 1.0192-4.557-.3316-4.502-3.1277.025-1.2104.32-2.3881.7-3.538.665-2.0142 1.521-3.9387 2.765-5.6672.558-.7771 1.21-1.4525 2.229-1.6377.293-.0545.619-.0775.821.0762.468.3559.933.3026 1.461.2252.687-.1005 1.191.2735 1.566.8243.42.6161.539 1.3314.649 2.0904.587-.3256 1.08-.7965 1.432-1.3678.561-.863 1.305-1.5736 1.899-2.4136.765-1.0785 2.227-.932 2.847.2046.179.3292.207.6052-.016.9405-1.484 2.2259-1.98 4.8017-2.562 7.3436-.127.5168-.164 1.0518-.109 1.5808.345-.3196.623-.7033.82-1.1305 1.233-2.3543 2.131-4.8526 3.134-7.3049.228-.558.433-1.1233.655-1.6837.221-.5604.663-.8195 1.277-.8098.712.0109 1.383.1211 1.801.7698.193.2978.029.6283-.112.92-.751 1.5166-1.25 3.1446-1.477 4.8211-.104.7383-.128 1.4864-.072 2.2295.364-.242.537-.5337.704-.8194.753-1.2903 1.268-2.6847 1.783-4.0803.099-.2663-.01-.4685-.082-.6936-.521-1.6244-.677-3.2681-.221-4.9337.238-.9513.848-1.7684 1.695-2.2659.667-.3909 1.392-.6149 2.101-.121s.877 1.2165.768 2.0323c-.198 1.3327-.49 2.6496-.871 3.9411-.079.3522-.18.6996-.305 1.0398-.176.4103.036.5047.363.5204.552.0255 1.253-.4962 1.393-1.0506 1.574-6.2567 3.418-12.4322 5.534-18.5267.038-.092.064-.1888.081-.2868.109-1.2673.995-2.33371 2.222-2.67263.979-.29413 2.169.18761 2.971 1.17652.529.65121.484 1.38351.329 2.12551-.553 2.715-1.635 5.2484-2.706 7.7818-1.614 3.7922-3.487 7.4682-5.608 11.0015-.717 1.2007-.654 2.4983-.633 3.8007-.012.3849.053.7674.192 1.1257.17.3837.436.4986.827.3135.358-.1889.667-.4588.903-.788.764-.9623 1.416-2.0081 1.945-3.1181.254-.5277.268-1.168.412-1.7527.626-2.6229 1.646-5.1358 3.026-7.4525.409-.6778.9-1.2842 1.589-1.7091.586-.3631 1.201-.4575 1.846-.2106.403.1549.825.1658 1.242.2288.856.1307 1.381.6354 1.369 1.4912-.043 3.0672-1.168 5.689-3.411 7.7878-.706.6585-1.566 1.0894-2.596.7372-.211-.0702-.243.029-.263.19-.137.9417-.22 1.8846 0 2.8239.184.7735.598.9744 1.342.6573.816-.3474 1.453-.9417 2.042-1.5736 2.001-2.1436 3.34-4.6649 4.199-7.4513.178-.5762.333-1.1596.5-1.7382.145-.5059.373-.9949-.261-1.392-.284-.1767-.255-.5713-.181-.8993.263-1.1547 1.695-2.4208 2.886-2.5419.957-.1017 1.462.4987 1.296 1.5215-.028.1695-.256.46.041.4975.298.0375.653.3329.942-.0642.177-.2457.373-.4756.586-.6899.658-.65 1.703-.6948 2.413-.1029.532.437.594 1.0894 0 1.7612-.987 1.1111-1.503 2.4608-2.075 3.7825-.608 1.3823-1.02 2.8421-1.224 4.3382-.032.3002-.047.6028-.047.9054-.006.3002-.056.6911.233.8231.336.1525.587-.1901.794-.4164 1.006-1.0797 1.763-2.3676 2.217-3.7717.605-1.9597 1.464-3.8322 2.557-5.5679.484-.7505 1.029-1.4525 1.855-1.8628.648-.3232 1.31-.4237 1.927.0653.193.1525.363.1211.562.0763 1.126-.2324 1.845.1343 2.315 1.2104.509 1.1584.457 2.3688.226 3.5647-.42 2.1678-1.168 4.2207-2.386 6.0775-.917 1.3992-2.079 2.5116-3.762 2.9425-1.763.4515-2.974-.1477-3.7-1.8435-.242.2833-.467.5641-.709.8304-.401.4539-.891.8206-1.441 1.076-2.143.9793-3.855-.1028-3.829-2.4559.017-1.6425.405-3.2294.884-4.7908.218-.7105.468-1.4102.699-2.1158.05-.1501.242-.3377-.062-.4261-.236-.069-.394-.0242-.492.2627-.444 1.2915-.826 2.6229-1.516 3.7995-1.393 2.376-2.85 4.7206-4.879 6.633-1.159 1.0894-2.517 1.7939-4.142 1.8968-1.192.075-2.14-.2978-2.712-1.5009-.173.2311-.317.4309-.469.6257-.753.9684-1.604 1.806-2.822 2.1788-1.042.3159-1.947.0775-2.723-.6682-.726-.6984-1.15-1.542-1.168-2.566v-.9066c0-.3014.102-.6767-.041-.8776s-.512.0617-.789.0351c-.04 0-.086.0109-.122 0-.84-.3631-1.08.1331-1.331.8134-.435 1.1487-1 2.2429-1.686 3.2609-.374.5761-.844 1.0845-1.388 1.5033-1.02.7698-2.09.5846-3.148.1344-.522-.224-.634-.7989-.835-1.3557m37.79-7.4174c0 .1016-.009.2021 0 .3026.032.328-.082.7419.309.9054.391.1634.687-.109.969-.3486.078-.063.149-.1356.212-.2143 1.594-2.1679 2.603-4.55 2.643-7.2819 0-.2614 0-.5568-.272-.6851-.298-.1392-.536.0593-.759.2421-.096.0739-.183.1586-.26.2506-1.61 1.9996-2.615 4.2534-2.842 6.8292zm-51.457 9.0333c.092.4842-.165 1.0615.364 1.2504.529.1888.916-.2494 1.198-.6367 1.547-2.1219 2.536-4.4556 2.587-7.1233.006-.2942.048-.6452-.295-.7844-.342-.1392-.567.115-.801.3038-.079.063-.15.1344-.213.2131-1.586 2.0165-2.607 4.2667-2.844 6.7783m27.935-15.0576c.276-.6342.558-1.2649.825-1.9028 1.357-3.2402 2.671-6.4975 3.521-9.9181.085-.3426.243-.713-.025-1.2225-1.632 4.3732-3.087 8.6665-4.321 13.0434zm8.418.5459v-.472c0-.1405-.008-.299-.169-.3462-.124-.0206-.247.0339-.315.1392-.968 1.1995-1.736 2.5007-1.855 4.0815-.022.2772-.022.6488.325.7747.392.1428.594-.184.76-.4455.701-1.1305 1.13-2.4075 1.254-3.7317z"/><path d="m146.635 34.5246c-2.914 11.499-13.348 20.0288-25.738 20.0288-8.73-.0024-16.899-4.297-21.8506-11.4857-.3873.3075-.7795.6016-1.1753.8836.9586 1.3775 2.0371 2.6666 3.2249 3.8528 10.947 10.9361 28.687 10.9264 39.623-.0206 3.495-3.4993 6.002-7.8629 7.266-12.6452-.334-.4152-.587-.8897-.747-1.3981-.195.2639-.396.5266-.605.7844"/><path d="m143.13 12.3388c-.06.2929-.126.5834-.196.8715 1.369 2.0323 2.45 4.245 3.21 6.5738.327-.4442.712-.8437 1.144-1.1862-.951-2.6726-2.307-5.1818-4.02-7.4429-.006.3983-.052.7953-.138 1.1838z"/><path d="m98.2286 14.1931c4.6714-7.63406 13.0834-12.74081 22.6684-12.74081 5.902-.00606 11.637 1.9645 16.289 5.59818.111-.04115.225-.07989.341-.11499.363-.10894.741-.16341 1.12-.16341.186 0 .373.01453.558.03995-11.106-9.59257-27.732-8.98615-38.109 1.38956-1.847 1.84342-3.4278 3.93502-4.6976 6.21432.3281-.0497.6573-.0957.9865-.138.2917-.0363.5713-.0642.8473-.0848"/><path d="m98.6955 29.6551c.9683.121 1.7825.3316 2.5155.7867 1.86 1.1596 2.523 3.1241 1.772 5.2472-.386 1.0628-.986 2.0359-1.76 2.8602-3.1545 3.4267-6.8669 5.9952-11.3842 7.3073-2.8432.8267-5.2931.2615-7.2298-2.0577-1.1644-1.3956-1.1729-2.5237-.3328-4.2498.2783-.5713.7093-.5846 1.1244-.0484.4673.6052.8546 1.2697 1.5106 1.8156 1.5203-6.6052 3.486-13.0386 5.689-19.4949-1.8495.5991-3.5732 1.2854-5.2811 2.0177-.2578.1102-.5229.207-.7746.3329-.3353.1682-.7347.2421-.6996.8025.0217.3377-.3184.5907-.5871.8049-.811.6452-1.7369 1.0894-2.6992 1.4525-.1889.0702-.3946.0835-.5919.0388-.9175-.2494-1.7914-.6186-2.525-1.2347-.6391-.535-.581-1.1378.1501-1.7079 1.4792-1.1499 3.0467-2.1787 4.6904-3.0769 4.8017-2.6411 9.8976-4.4785 15.3348-5.1696 3.692-.4685 6.036.4902 7.914 3.6857.749 1.277.742 2.5491 0 3.8309-.908 1.5663-2.22 2.7501-3.613 3.8589-.991.7879-2.0581 1.4718-3.2177 2.2041m-1.2903 2.9353c-2.2659.1271-4.4325.7057-6.5605 1.4598-.2868.1004-.3062.3473-.3824.5652-.9163 2.5952-1.6777 5.2339-2.341 7.904-.1404.5653.0799.6222.5108.6234.9526 0 1.8156-.3159 2.6411-.748 3.0079-1.5736 5.4796-3.7983 7.6414-6.3838.4249-.5096.7686-1.0809.8933-1.7563s-.1114-1.1402-.742-1.4029c-.529-.2045-1.0942-.2941-1.6607-.2614zm-5.4868-2.4644c2.5225-1.0737 4.8417-2.2998 6.9248-3.9302 1.0833-.8473 2.092-1.7733 2.877-2.9135.567-.8219 1.005-1.6946.968-2.7368-.023-.6379-.306-.955-.95-1.0143-.282-.0278-.565-.0315-.847-.0109-1.9197.1453-3.7523.6343-5.551 1.3194-.3219.1004-.5737.3546-.6705.6778-.9998 2.7985-1.898 5.6284-2.7525 8.6085"/></g></svg>