<svg fill="none" height="56" viewBox="0 0 242 56" width="242" xmlns="http://www.w3.org/2000/svg"><g fill="#fff"><path d="m216.811 15.7329v23.826h-7.917v-4.335c-.669 1.6309-1.685 2.8742-3.051 3.7252-1.367.8462-3.056 1.2716-5.06 1.2716-1.791 0-3.351-.4443-4.685-1.3378-1.335-.8935-2.364-2.1179-3.089-3.6732-.72-1.5553-1.085-3.3139-1.085-5.2805-.023-2.028.36-3.8481 1.15-5.4601.785-1.612 1.897-2.8695 3.328-3.7724 1.431-.903 3.066-1.3568 4.898-1.3568 3.772 0 6.302 1.6782 7.594 5.0299v-8.6369zm-9.099 17.0942c.808-.8036 1.21-1.8484 1.21-3.1248 0-1.2338-.392-2.2408-1.177-3.0113-.785-.7706-1.861-1.1582-3.213-1.1582-1.334 0-2.401.3923-3.199 1.1771-.799.7847-1.196 1.8011-1.196 3.0586s.397 2.2833 1.196 3.0775c.798.7942 1.851 1.1913 3.166 1.1913 1.335-.0047 2.406-.4065 3.213-1.2102z"/><path d="m190.507 20.5642v7.1478c-.821-.5531-1.883-.8273-3.199-.8273-1.722 0-3.051.5342-3.974 1.6026-.928 1.0684-1.39 2.7324-1.39 4.9827v6.0888h-7.917v-19.3586h7.755v6.1551c.43-2.2503 1.127-3.9096 2.087-4.9827.956-1.0684 2.193-1.6026 3.698-1.6026 1.14 0 2.119.2648 2.94.7942z"/><path d="m152.168 38.8312c-1.865-.9266-3.287-2.1935-4.265-3.8056-.979-1.612-1.473-3.4084-1.473-5.3939s.49-3.7583 1.473-5.3136 2.396-2.775 4.252-3.659c1.851-.884 4.062-1.3237 6.624-1.3237s4.773.4397 6.625 1.3237c1.851.884 3.263 2.0942 4.233 3.6401.969 1.5458 1.454 3.3186 1.454 5.3278 0 1.9855-.485 3.7819-1.454 5.3939-.97 1.612-2.387 2.879-4.252 3.8055-1.865.9266-4.067 1.3899-6.611 1.3899-2.543 0-4.745-.4586-6.606-1.3851zm9.819-5.8714c.785-.8037 1.182-1.8674 1.182-3.191 0-1.3237-.392-2.3779-1.182-3.1579-.784-.7848-1.855-1.1771-3.213-1.1771-1.38 0-2.46.3923-3.249 1.1771-.785.7847-1.178 1.8342-1.178 3.1579 0 1.3236.393 2.3873 1.178 3.191.784.8036 1.869 1.2102 3.249 1.2102 1.358-.0048 2.429-.4066 3.213-1.2102z"/><path d="m129.207 38.8307c-1.851-.9265-3.25-2.184-4.183-3.7724-.932-1.5884-1.403-3.3754-1.403-5.3609s.485-3.763 1.454-5.3277c.97-1.5648 2.392-2.7939 4.266-3.6874 1.874-.8934 4.113-1.3378 6.721-1.3378 3.232 0 5.914.6949 8.047 2.0848v6.0557c-.753-.5294-1.63-.9596-2.632-1.2905-1.001-.331-2.072-.4964-3.217-.4964-2.004 0-3.569.3734-4.7 1.1251s-1.699 1.7302-1.699 2.9452c0 1.1913.55 2.1651 1.648 2.9309 1.099.7611 2.692 1.1441 4.783 1.1441 1.076 0 2.137-.1608 3.185-.4775 1.044-.3215 1.944-.7138 2.696-1.1771v5.8572c-2.368 1.456-5.115 2.184-8.24 2.184-2.631-.0094-4.875-.4727-6.726-1.3993z"/><path d="m106.327 39.5258c-1.745-.4633-3.319-1.1346-4.718-2.0186v-5.4932c1.057.8367 2.474 1.5269 4.252 2.0705 1.777.539 3.494.8084 5.156.8084.776 0 1.362-.104 1.759-.312s.595-.4585.595-.7469c0-.3309-.106-.6051-.323-.8273s-.637-.4066-1.26-.5626l-3.878-.8934c-2.22-.5295-3.794-1.2622-4.732-2.203-.937-.936-1.403-2.1651-1.403-3.6873 0-1.2812.406-2.3921 1.228-3.3423.817-.9502 1.98-1.683 3.49-2.1982 1.51-.5201 3.273-.7801 5.3-.7801 1.809 0 3.467.1986 4.976.5957 1.51.3971 2.756.9029 3.749 1.5222v5.1954c-1.016-.6193-2.179-1.1062-3.509-1.4749-1.325-.3641-2.687-.5437-4.09-.5437-2.027 0-3.038.3546-3.038 1.0589 0 .331.157.5768.471.7422.314.1655.891.3357 1.727.5153l3.231.5957c2.11.3734 3.684 1.0305 4.718 1.9666 1.034.936 1.551 2.3211 1.551 4.1553 0 2.0092-.854 3.6023-2.566 4.7841-1.713 1.1819-4.141 1.7728-7.29 1.7728-1.851-.0047-3.651-.2364-5.396-.6996z"/><path d="m94.1301 22.2613c2.1799 0 3.9471-1.6255 3.9471-3.6307 0-2.0051-1.7672-3.6306-3.9471-3.6306-2.1798 0-3.947 1.6255-3.947 3.6306 0 2.0052 1.7672 3.6307 3.947 3.6307z"/><path d="m90.1797 24.7625c2.419 1.0683 5.4196 1.1156 7.894 0v14.9007h-7.894z"/><path d="m60.8594 16.3948h12.6028c3.0376 0 5.6043.4869 7.7094 1.456 2.1004.9691 3.6746 2.3212 4.7179 4.0514s1.5696 3.711 1.5696 5.9423c0 2.184-.5447 4.1648-1.6342 5.9376-1.0895 1.7775-2.7468 3.1815-4.9765 4.2168s-4.9903 1.5553-8.2911 1.5553h-11.6979zm11.5687 17.2738c2.0451 0 3.6192-.5247 4.718-1.5695 1.0987-1.0494 1.648-2.4771 1.648-4.2877 0-1.6782-.4893-3.0161-1.468-4.0183s-2.4606-1.508-4.441-1.508h-3.9424v11.3835z"/><path d="m49.882 18.1851c-1.9949-.9341-4.1279-1.613-6.3579-1.9996-.2739.4956-.5939 1.1621-.8145 1.6923-2.3706-.3568-4.7193-.3568-7.0463 0-.2206-.5302-.5478-1.1967-.8242-1.6923-2.2324.3866-4.3679 1.0679-6.3628 2.0045-4.0237 6.0853-5.1144 12.0195-4.5691 17.8694 2.6688 1.9946 5.2551 3.2062 7.7978 3.9991.6278-.8648 1.1877-1.784 1.6701-2.7528-.9187-.3493-1.7986-.7805-2.63-1.281.2206-.1635.4363-.3345.6448-.5104 5.0709 2.3737 10.5804 2.3737 15.5907 0 .2109.1759.4266.3469.6448.5104-.8339.503-1.7162.9341-2.6348 1.2835.4823.9663 1.0398 1.888 1.67 2.7527 2.5452-.7928 5.1339-2.0044 7.8027-4.0015.6399-6.7815-1.0932-12.6612-4.5813-17.8743zm-15.8161 14.2767c-1.5222 0-2.7705-1.4223-2.7705-3.1542s1.2216-3.1566 2.7705-3.1566 2.7972 1.4222 2.7706 3.1566c.0024 1.7319-1.2217 3.1542-2.7706 3.1542zm10.2387 0c-1.5222 0-2.7706-1.4223-2.7706-3.1542s1.2217-3.1566 2.7706-3.1566 2.7972 1.4222 2.7705 3.1566c0 1.7319-1.2216 3.1542-2.7705 3.1542z"/></g></svg>