<svg fill="none" height="56" viewBox="0 0 242 56" width="242" xmlns="http://www.w3.org/2000/svg" xmlns:xlink="http://www.w3.org/1999/xlink"><clipPath id="a"><path d="m43.875 10h155v37h-155z"/></clipPath><g clip-path="url(#a)" fill="#fff"><path d="m67.7226 27.6524h13.9255c.1037-.0005.205-.0316.2912-.0894.0861-.0578.1533-.1397.1931-.2355s.0504-.2012.0304-.3031c-.0199-.1018-.0694-.1954-.1423-.2692l-3.104-3.1015c-.0535-.0538-.1181-.0953-.1893-.1216-.0711-.0263-.1471-.0369-.2228-.0309l-.2496.0198-8.3849.7922 4.9284-3.9472c.0589-.0464.1073-.1049.1419-.1715s.0546-.1398.0587-.2147c.0042-.075-.0077-.1499-.0348-.2199s-.0688-.1334-.1223-.1861l-2.27-2.2419c-.0527-.0535-.1161-.0952-.1861-.1223-.07-.027-.145-.0389-.2199-.0348-.075.0041-.1482.0242-.2148.0588s-.1251.0829-.1716.1419l-3.9419 4.9216.7924-8.3776.0198-.2496c.006-.0756-.0046-.1516-.0309-.2227-.0264-.0712-.0679-.1357-.1217-.1892l-3.0921-3.1035c-.0745-.0706-.168-.1179-.269-.1361-.1011-.0182-.2053-.0065-.2997.0336-.0945.0402-.1752.1071-.2322.1925-.0569.0855-.0877.1856-.0885.2883v13.9151z"/><path d="m44.408 27.6526h13.9175l3.207-3.2064v-13.9132c-.0005-.1037-.0316-.205-.0894-.2911-.0578-.0862-.1397-.1534-.2356-.1931-.0958-.0398-.2012-.05037-.3031-.0305-.1018.0199-.1955.0695-.2693.1424l-3.1079 3.0975c-.0538.0535-.0953.1181-.1216.1892-.0264.0711-.0369.1472-.0309.2228l.0198.2495.7923 8.3776-3.934-4.9216c-.0464-.0589-.1049-.1073-.1715-.1419s-.1398-.0546-.2148-.0587c-.0749-.0042-.1499.0077-.2199.0348s-.1335.0688-.1861.1223l-2.2522 2.2617c-.0535.0526-.0952.1161-.1223.1861s-.039.1449-.0349.2198c.0042.075.0242.1482.0588.2148s.083.1251.1419.1715l4.9284 3.9472-8.385-.7922-.2495-.0198c-.0757-.006-.1517.0045-.2229.0309-.0711.0263-.1357.0678-.1892.1216l-3.104 3.0816c-.0733.0742-.1229.1684-.1426.2708-.0198.1023-.0087.2082.0318.3043.0405.096.1086.1779.1957.2353.0871.0573.1892.0875.2935.0868z"/><path d="m81.6482 30.637h-37.2401c-.1026.0007-.2028.0315-.2883.0885-.0854.0569-.1523.1376-.1925.232-.0402.0945-.0519.1987-.0337.2997s.0655.1945.1362.269l3.104 3.1094c.0535.0538.118.0953.1892.1216.0711.0264.1472.0369.2228.0309l.2496-.0198 13.8125-1.321-.935 12.7149c-.0051.072.0046.1444.0286.2124.0241.0681.0619.1305.1112.1833s.1089.0949.1752.1236.1377.0434.21.0432h3.2406c.0723.0002.1437-.0145.21-.0432s.1259-.0708.1752-.1236.0871-.1152.1112-.1833c.024-.068.0337-.1404.0286-.2124l-.935-12.7169 14.2186 1.323.2496.0198c.0756.006.1516-.0045.2228-.0309.0711-.0263.1357-.0678.1892-.1216l3.104-3.1094c.0699-.0736.1171-.1659.1358-.2657s.0081-.2028-.0304-.2968c-.0385-.0939-.1033-.1747-.1867-.2327s-.1817-.0906-.2832-.094z"/><path d="m127.033 25.361c-1.551-1.112-3.363-1.8056-5.261-2.0142-2.508-.3169-4.922-.0416-7.212 1.0972s-3.815 2.9232-4.81 5.2068c-.677 1.5606-.921 3.2143-.97 4.9017-.06 2.0637.158 4.0878.97 6.0069.844 1.9944 2.142 3.6303 4.01 4.7533 2.648 1.6042 5.534 1.9647 8.543 1.4794 2.197-.3322 4.25-1.2955 5.909-2.7727 1.039-.942 1.865-2.0954 2.422-3.3827.018-.0405.025-.0846.021-.1285-.004-.0438-.019-.086-.043-.1229-.024-.0368-.057-.0671-.095-.0882-.039-.0211-.082-.0324-.126-.0328h-4.295c-.045.0003-.089.0113-.129.0319-.04.0207-.074.0505-.1.087-.366.4965-.804.9351-1.3 1.3012-1.344.9743-2.968 1.4859-4.627 1.4576-1.458.0322-2.887-.416-4.065-1.2754-1.073-.802-1.856-1.9318-2.23-3.2184-.133-.4258-.222-.8654-.321-1.3229-.009-.0421-.009-.0857.001-.1277.01-.0419.029-.0811.056-.1147s.061-.0607.1-.0795c.038-.0187.081-.0285.124-.0287h17.346c.07.0003.138-.0247.19-.0701.053-.0455.088-.1085.098-.1775.319-2.3231 0-5.0503-.919-7.1773-.696-1.6684-1.832-3.1163-3.287-4.1888zm-.556 7.724h-12.836c-.042.0002-.083-.0086-.121-.0258-.037-.0172-.071-.0424-.098-.0739-.027-.0314-.047-.0683-.059-.1082-.011-.0399-.014-.0818-.008-.1229.514-3.1173 2.687-5.4484 5.989-5.6544 4.104-.2554 6.776 2.0241 7.42 5.6505.007.0418.006.0849-.005.126s-.031.0793-.059.1118c-.027.0326-.061.0587-.1.0764-.039.0178-.081.0268-.123.0264z"/><path d="m174.233 23.0951c-3.35.0495-6.018 1.2516-7.551 4.4581l-.511-3.8382c-.01-.069-.044-.1322-.096-.178-.053-.0459-.12-.0713-.189-.0716h-3.816c-.037 0-.075.0074-.109.0219-.035.0144-.067.0356-.094.0622-.026.0267-.047.0584-.062.0932-.014.0348-.022.0722-.022.1099v22.6571c0 .0377.008.0751.022.1099.015.0348.036.0665.062.0932.027.0266.059.0478.094.0622.034.0144.072.0219.109.0219h4.329c.076 0 .149-.0303.203-.0841.054-.0539.084-.1269.084-.2031v-10.7542c.023-1.3697.263-2.7272.709-4.0224.362-1.0477.864-2.0182 1.688-2.7926 1.002-.9387 2.244-1.317 3.565-1.5151.535-.0812 1.08-.1128 1.624-.1584.072-.0064.139-.0394.188-.0925.049-.0532.076-.1226.076-.1947v-3.4976c0-.039-.008-.0775-.024-.1133-.015-.0358-.038-.0681-.066-.0949-.029-.0268-.062-.0476-.099-.0612-.036-.0136-.075-.0196-.114-.0177z"/><path d="m100.018 46.5544c.112.1114.263.1741.42.1742h5.87c.045 0 .09-.009.133-.0265.042-.0176.08-.0433.112-.0757.033-.0324.058-.0708.075-.1131.018-.0423.026-.0876.026-.1332v-3.6145c0-.0457-.008-.0909-.026-.1332-.017-.0423-.042-.0807-.075-.1131-.032-.0324-.07-.0581-.112-.0757-.043-.0175-.088-.0265-.133-.0265h-4.824c-.105 0-.206-.0418-.28-.1161-.074-.0742-.116-.175-.116-.28v-15.3391h4.811c.093 0 .182-.0368.247-.1021.065-.0654.102-.1541.102-.2465v-3.6145c0-.0456-.009-.0909-.026-.1331-.018-.0421-.044-.0804-.076-.1126-.033-.0322-.071-.0577-.113-.075-.043-.0173-.088-.0261-.134-.0258h-4.811v-6.7615c0-.0588-.015-.1166-.044-.168-.029-.0513-.07-.0947-.119-.1259-.05-.0312-.107-.0493-.166-.0527-.059-.0033-.117.0083-.17.0336l-3.7638 1.7825c-.0592.0286-.1092.0733-.1443.129-.035.0557-.0537.1201-.0538.1859v4.981h-1.86c-.0457-.0002-.091.0085-.1333.0258s-.0807.0428-.1131.075-.0581.0705-.0757.1127c-.0175.0422-.0265.0874-.0265.1331v3.6144c0 .0925.0367.1812.1021.2465.0654.0654.154.1021.2465.1021h1.86v16.2264c.0001.1575.0628.3085.1743.4199z"/><path d="m153.157 24.6538c-1.731-.9699-3.688-1.4633-5.671-1.4299-3.178 0-5.687 1.2405-7.528 3.7214l-.628-11.2236c-.003-.0587-.022-.1156-.053-.1652-.032-.0497-.075-.0906-.127-.1188-.052-.0283-.11-.0431-.168-.0429-.059.0001-.117.0152-.169.0437l-3.579 1.7528c-.054.03-.099.0739-.13.1272-.032.0533-.048.114-.048.1758v28.8858c0 .0919.036.1801.101.2451s.153.1015.245.1015h3.629c.082.0002.161-.0286.223-.0811.063-.0526.104-.1256.118-.2061l.541-3.0718c.793 1.126 1.853 2.0384 3.084 2.6559 1.272.6496 2.77.9744 4.494.9744 1.991.0326 3.951-.4849 5.666-1.4953 1.67-1.0043 3.023-2.4588 3.904-4.1967.938-1.7996 1.406-3.864 1.406-6.1931 0-2.4505-.468-4.5683-1.406-6.3535-.876-1.7181-2.232-3.1445-3.904-4.1056zm-1.627 16.6522c-1.298 1.5527-2.993 2.3291-5.084 2.3291-2.092 0-3.777-.7843-5.056-2.3528-1.282-1.5699-1.922-3.5973-1.921-6.0822 0-2.4519.64-4.4456 1.921-5.9812 1.281-1.5355 2.968-2.304 5.062-2.3053 2.091 0 3.786.7764 5.084 2.3291 1.299 1.5527 1.947 3.555 1.946 6.0069 0 2.4862-.649 4.505-1.946 6.0564z"/><path d="m198.529 23.4972h-3.627c-.082.0001-.161.0289-.224.0814-.062.0525-.105.1253-.119.2058l-.539 3.1153c-.784-1.1467-1.846-2.0761-3.086-2.7014-1.272-.6496-2.769-.9751-4.493-.9764-1.975-.0294-3.921.4808-5.627 1.4755-1.676.9945-3.037 2.4416-3.926 4.1749-.952 1.7983-1.429 3.8779-1.43 6.2386 0 2.4202.469 4.5328 1.408 6.3377.869 1.7277 2.226 3.1627 3.902 4.1274 1.73.9682 3.686 1.4596 5.667 1.424 1.695 0 3.177-.3479 4.447-1.0438 1.243-.6724 2.314-1.621 3.132-2.7727l.499 3.2441c.012.0822.054.1574.117.2116.062.0542.143.0839.226.0835h3.667c.045.0008.091-.0075.133-.0243.043-.0168.081-.0419.114-.0737s.059-.0698.077-.1118.028-.0871.028-.1328v-22.5363c0-.0919-.036-.1801-.101-.2451s-.154-.1015-.245-.1015zm-6.189 17.785c-1.279 1.5686-2.966 2.3529-5.061 2.3529-2.094 0-3.789-.7764-5.085-2.3291-1.295-1.5527-1.943-3.5715-1.945-6.0564 0-2.4519.649-4.4542 1.945-6.0069 1.297-1.5528 2.992-2.3291 5.085-2.3291 2.095 0 3.782.7684 5.061 2.3053 1.28 1.5369 1.92 3.5306 1.922 5.9812 0 2.4862-.641 4.5136-1.922 6.0821z"/></g></svg>