<svg fill="none" height="56" viewBox="0 0 241 56" width="241" xmlns="http://www.w3.org/2000/svg"><g fill="#fff"><path d="m93.5963 25.8346h-3.3013v6.0767c0 .5063.1266.8764.3798 1.1101s.6233.3701 1.1102.409c.4869.0195 1.0906.0097 1.8113-.0292v3.4181c-2.5904.2921-4.4212.0487-5.4924-.7304-1.0517-.779-1.5775-2.1716-1.5775-4.1776v-6.0767-3.6226-2.9506l3.7686-1.1394v4.09h3.3013z"/><path d="m99.666 24.7245c.351-.9349.925-1.636 1.724-2.1035.818-.4674 1.723-.7011 2.717-.7011v4.2069c-1.149-.1364-2.182.0974-3.097.7011-.896.6038-1.344 1.6068-1.344 3.0091v6.9823h-3.7686v-14.6073h3.7686z"/><path d="m108.369 31.064c.506 1.8308 1.879 2.7462 4.119 2.7462 1.441 0 2.532-.4869 3.272-1.4607l3.038 1.7528c-1.441 2.084-3.564 3.126-6.368 3.126-2.415 0-4.353-.7304-5.814-2.1911s-2.191-3.3012-2.191-5.5215c0-2.2009.72-4.0316 2.162-5.4924 1.441-1.4802 3.291-2.2203 5.55-2.2203 2.143 0 3.905.7401 5.288 2.2203 1.403 1.4802 2.104 3.311 2.104 5.4924 0 .4869-.049 1.003-.146 1.5483zm-.059-2.9214h7.45c-.214-.9933-.662-1.7334-1.344-2.2203-.662-.4869-1.422-.7304-2.279-.7304-1.012 0-1.85.2629-2.512.7888-.662.5064-1.1 1.227-1.315 2.1619z"/><path d="m124.646 31.064c.506 1.8308 1.879 2.7462 4.119 2.7462 1.441 0 2.532-.4869 3.272-1.4607l3.038 1.7528c-1.441 2.084-3.564 3.126-6.369 3.126-2.415 0-4.353-.7304-5.813-2.1911-1.461-1.4607-2.191-3.3012-2.191-5.5215 0-2.2009.72-4.0316 2.161-5.4924 1.442-1.4802 3.292-2.2203 5.551-2.2203 2.143 0 3.905.7401 5.288 2.2203 1.402 1.4802 2.104 3.311 2.104 5.4924 0 .4869-.049 1.003-.147 1.5483zm-.059-2.9214h7.45c-.214-.9933-.662-1.7334-1.344-2.2203-.662-.4869-1.422-.7304-2.279-.7304-1.013 0-1.85.2629-2.512.7888-.662.5064-1.101 1.227-1.315 2.1619z"/><path d="m144.691 37.2283c-2.201 0-4.041-.7401-5.521-2.2203-1.461-1.4802-2.192-3.311-2.192-5.4923 0-2.1814.731-4.0122 2.192-5.4924 1.48-1.4802 3.32-2.2203 5.521-2.2203 1.422 0 2.717.3409 3.886 1.0225 1.168.6817 2.054 1.5971 2.658 2.7462l-3.243 1.8989c-.292-.6037-.74-1.0809-1.344-1.4315-.584-.3505-1.246-.5258-1.986-.5258-1.13 0-2.065.3798-2.805 1.1393-.74.7401-1.11 1.6945-1.11 2.8631 0 1.1491.37 2.1034 1.11 2.863.74.7401 1.675 1.1101 2.805 1.1101.759 0 1.431-.1655 2.016-.4966.603-.3506 1.051-.8278 1.343-1.4315l3.273 1.8697c-.643 1.1491-1.549 2.0742-2.717 2.7754-1.169.6817-2.464 1.0225-3.886 1.0225z"/><path d="m163.576 22.212h3.768v14.6073h-3.768v-1.7237c-1.13 1.4218-2.717 2.1327-4.762 2.1327-1.948 0-3.623-.7401-5.025-2.2203-1.383-1.4997-2.074-3.3305-2.074-5.4923 0-2.1619.691-3.9829 2.074-5.4631 1.402-1.4997 3.077-2.2496 5.025-2.2496 2.045 0 3.632.7109 4.762 2.1327zm-6.953 10.2835c.759.7596 1.723 1.1394 2.892 1.1394 1.168 0 2.133-.3798 2.892-1.1394.779-.779 1.169-1.7723 1.169-2.9798 0-1.2076-.39-2.1911-1.169-2.9507-.759-.7791-1.724-1.1686-2.892-1.1686-1.169 0-2.133.3895-2.892 1.1686-.76.7596-1.14 1.7431-1.14 2.9507 0 1.2075.38 2.2008 1.14 2.9798z"/><path d="m173.946 24.7245c.351-.9349.925-1.636 1.724-2.1035.818-.4674 1.723-.7011 2.717-.7011v4.2069c-1.149-.1364-2.182.0974-3.097.7011-.896.6038-1.344 1.6068-1.344 3.0091v6.9823h-3.769v-14.6073h3.769z"/><path d="m190.537 16.3691h3.768v20.4502h-3.768v-1.7237c-1.11 1.4218-2.688 2.1327-4.733 2.1327-1.967 0-3.652-.7401-5.054-2.2203-1.383-1.4997-2.074-3.3305-2.074-5.4923 0-2.1619.691-3.9829 2.074-5.4631 1.402-1.4997 3.087-2.2496 5.054-2.2496 2.045 0 3.623.7109 4.733 2.1327zm-6.953 16.1264c.779.7596 1.753 1.1394 2.921 1.1394 1.169 0 2.133-.3798 2.892-1.1394.76-.779 1.14-1.7723 1.14-2.9798 0-1.2076-.38-2.1911-1.14-2.9507-.759-.7791-1.723-1.1686-2.892-1.1686-1.168 0-2.142.3895-2.921 1.1686-.76.7596-1.14 1.7431-1.14 2.9507 0 1.2075.38 2.2008 1.14 2.9798z"/><g clip-rule="evenodd" fill-rule="evenodd"><path d="m37 11.202c0-3.97756 3.2244-7.202 7.202-7.202h19.944c3.9775 0 7.202 3.22444 7.202 7.202v27.4692c0 3.9775-3.2245 7.202-7.202 7.202h-8.3101v6.7033h-3.324v-6.7033h-8.3099c-3.9776 0-7.202-3.2245-7.202-7.202v-24.8784zm3.324 10.2545v17.2147c0 2.1417 1.7362 3.878 3.878 3.878h8.3099v-9.6002c-.0281-2.3621-.9178-4.0861-2.3206-5.4716-1.4996-1.4812-3.6197-2.6037-6.0359-3.564-1.4392-.5721-2.743-1.4111-3.8314-2.4569zm12.1879 3.641c-1.9727-1.942-4.5783-3.2594-7.1287-4.2731-3.0367-1.207-5.0592-3.9374-5.0592-7.0316v-2.5908c0-2.14176 1.7362-3.878 3.878-3.878h8.3099zm3.324 8.1023c.0009-.0904.0009-.1801 0-.2693v-25.6065h8.3101c2.1418 0 3.878 1.73624 3.878 3.878v12.6443h-.0001c0 3.0932-2.0235 5.8268-5.0611 7.0534-2.5359 1.024-5.1481 2.3736-7.1269 4.3628zm8.3101 9.3494h-8.2705c.4077-4.3503 3.7637-6.7226 8.3319-8.5673 1.432-.5782 2.731-1.4199 3.8166-2.4662v7.1555c0 2.1417-1.7362 3.878-3.878 3.878z"/><path d="m58.5077 23.7312c1.8095.2164 3.6968-.3698 5.0854-1.7584s1.9748-3.2759 1.7584-5.0854c-1.8095-.2164-3.6968.3698-5.0854 1.7584-1.3887 1.3886-1.9748 3.2759-1.7584 5.0854z"/><path d="m50.4181 17.9541c-1.8096.2164-3.6968-.3698-5.0854-1.7584-1.3887-1.3886-1.9748-3.2759-1.7584-5.0854 1.8095-.2164 3.6968.3698 5.0854 1.7584s1.9748 3.2759 1.7584 5.0854z"/><path d="m50.4181 37.3306c-1.8096.2163-3.6968-.3698-5.0854-1.7584-1.3887-1.3887-1.9748-3.2759-1.7584-5.0854 1.8095-.2164 3.6968.3697 5.0854 1.7584 1.3886 1.3886 1.9748 3.2758 1.7584 5.0854z"/></g><path d="m199.35 17.1902v.6436h-.921v2.7692h-.673v-2.7692h-.917v-.6436z"/><path d="m203.066 17.1902v3.4128h-.668v-2.2134l-.961 1.5845h-.078l-.96-1.5797v2.2086h-.673v-3.4128h.692l.98 1.6138.975-1.6138z"/></g></svg>