<svg fill="none" height="56" viewBox="0 0 241 56" width="241" xmlns="http://www.w3.org/2000/svg"><g fill="#fff"><path clip-rule="evenodd" d="m55.4235 8.89868h-21.6833l-10.8413 18.81822 10.8416 18.8181h21.6832l10.8413-18.8181-5.4208-9.4091h-10.8416zm-16.2622 28.22732h10.8416l5.4203-9.4091h-10.8416l5.421-9.4091h-10.8415l-5.4206 9.4091z" fill-rule="evenodd"/><path d="m162.85 40.0757 7.967-18.7686h-2.717l-4.248 10.4681-4.326-10.4681h-2.85l5.778 13.5345-2.22 5.2341z"/><path d="m210.996 35.9255c4.169 0 7.387-3.3572 7.387-7.4546 0-4.3353-3.218-7.481-7.387-7.481-4.115 0-7.36 3.1457-7.36 7.481s3.245 7.4546 7.36 7.4546zm.027-2.3263c-2.744 0-4.828-2.1676-4.828-5.1283s2.084-5.1547 4.828-5.1547c2.743 0 4.801 2.194 4.801 5.1547 0 2.8021-2.058 5.1283-4.801 5.1283z"/><path d="m107.839 35.9254c3.403 0 5.502-1.9942 6.21-4.7317h-2.543c-.528 1.3481-1.662 2.4319-3.667 2.4319-2.137 0-3.694-1.1102-4.353-2.9078-.159-.4758-.291-1.0045-.317-1.5596h11.107c.079-.3437.079-.7931.079-1.1103 0-3.8065-2.612-7.058-6.728-7.058-3.746 0-7.017 3.0135-7.017 7.481 0 4.5467 3.008 7.4545 7.229 7.4545zm-4.617-8.7498c.422-2.1941 2.031-3.8859 4.405-3.8859 1.663 0 2.929.7666 3.615 2.0619.29.5287.501 1.1367.58 1.824z"/><path d="m138.076 35.9254c3.403 0 5.502-1.9942 6.21-4.7317h-2.543c-.528 1.3481-1.663 2.4319-3.667 2.4319-2.137 0-3.694-1.1102-4.353-2.9078-.159-.4758-.291-1.0045-.317-1.5596h11.107c.079-.3437.079-.7931.079-1.1103 0-3.8065-2.612-7.058-6.728-7.058-3.746 0-7.017 3.0135-7.017 7.481 0 4.5467 3.007 7.4545 7.229 7.4545zm-4.617-8.7498c.422-2.1941 2.031-3.8859 4.405-3.8859 1.662 0 2.929.7666 3.615 2.0619.29.5287.501 1.1367.58 1.824z"/><path d="m176.463 35.9254c2.744 0 4.696-1.586 4.696-3.9916 0-1.7711-.976-3.1193-2.955-4.0445l-2.928-1.3481c-.95-.423-1.345-.9517-1.345-1.6654 0-.9252.765-1.6125 2.004-1.6125 1.362 0 1.965.4826 2.269 1.6125h2.457c-.551-2.7247-2.142-3.8859-4.699-3.8859-2.638 0-4.406 1.9297-4.406 3.9652 0 1.7975.95 2.9871 2.955 3.9123l2.612 1.216c1.134.5287 1.609 1.1631 1.609 1.8769 0 .978-.739 1.6918-2.243 1.6918-1.767 0-2.686-1.1885-2.956-2.4584h-2.484c.399 2.932 2.484 4.7317 5.414 4.7317z"/><path d="m192.613 35.9254c2.849 0 5.039-1.1896 6.305-3.1986v2.8814h2.374v-9.8601h-9.682v2.3791h7.202c-.29 3.1457-2.638 5.2869-5.988 5.2869-4.089 0-7.044-3.1457-7.044-7.3224 0-4.2031 2.981-7.3224 6.859-7.3224 2.533 0 5.105 1.5701 5.799 5h2.854c-.968-5-4.406-7.5112-8.653-7.5112-5.382 0-9.629 4.1502-9.629 9.8336 0 5.6835 4.221 9.8337 9.603 9.8337z"/><path d="m119.116 35.6082v-8.5781c0-1.9497 1.578-3.5303 3.525-3.5303s3.525 1.5806 3.525 3.5303v8.5781h2.48v-8.6046c0-3.3213-2.688-6.0137-6.005-6.0137s-6.005 2.6924-6.005 6.0137v8.6046z"/><path d="m89.6863 35.9254c2.8492 0 5.0388-1.1896 6.3051-3.1986v2.8814h2.3743v-9.8601h-9.6819v2.3791h7.2021c-.2902 3.1457-2.6381 5.2869-5.9886 5.2869-4.0891 0-7.0438-3.1457-7.0438-7.3224 0-4.2031 2.9811-7.3224 6.8592-7.3224 2.5326 0 5.1052 1.5701 5.799 5h2.854c-.9676-5-4.4064-7.5112-8.653-7.5112-5.3818 0-9.6292 4.1502-9.6292 9.8336 0 5.6835 4.221 9.8337 9.6028 9.8337z"/><path d="m151.595 35.9254c2.744 0 4.696-1.586 4.696-3.9916 0-1.7711-.976-3.1193-2.955-4.0445l-2.928-1.3481c-.95-.423-1.345-.9517-1.345-1.6654 0-.9252.765-1.6125 2.005-1.6125 1.361 0 1.964.4826 2.268 1.6125h2.457c-.551-2.7247-2.142-3.8859-4.699-3.8859-2.638 0-4.406 1.9297-4.406 3.9652 0 1.7975.95 2.9871 2.955 3.9123l2.612 1.216c1.134.5287 1.609 1.1631 1.609 1.8769 0 .978-.739 1.6918-2.242 1.6918-1.768 0-2.687-1.1885-2.957-2.4584h-2.484c.399 2.932 2.484 4.7317 5.414 4.7317z"/></g></svg>