<svg fill="none" height="56" viewBox="0 0 241 56" width="241" xmlns="http://www.w3.org/2000/svg" xmlns:xlink="http://www.w3.org/1999/xlink"><clipPath id="a"><path d="m0 0h241v56h-241z"/></clipPath><g clip-path="url(#a)"><g fill="#fff"><path d="m110.238 15.6002c0-.1938 0-.2897.048-.3372.047-.0465.139-.0465.322-.0465 3.167 0 6.34 0 9.508-.0058.254 0 .341.0872.341.3372-.012.593-.012 1.1802 0 1.7732.006.2558-.087.3314-.341.3314-2.312-.0059-4.624-.0059-6.936-.0059-.23 0-.346 0-.403.0582-.058.0586-.056.1763-.054.4128 0 .3737.001.7471.001 1.1204v.0016c.001 1.1182.002 2.2347-.006 3.3545 0 .2733.098.3546.352.3488 1.705-.0058 3.41-.0058 5.115-.0058h.018c.239 0 .359 0 .419.0603.06.0608.06.1829.06.4281v1.5406c0 .4012-.017.4128-.404.4128-.434 0-.867.0003-1.301.0007-1.3.0011-2.601.0022-3.901-.0065-.289 0-.358.0872-.358.3662.008 2.0711.007 4.1421.006 6.2131 0 .6905-.001 1.381-.001 2.0715 0 .1162 0 .2325-.005.3488-.006.1628-.081.2384-.255.2384-.676-.0059-1.346-.0059-2.023 0-.15 0-.208-.0582-.202-.2035.004-.0582.003-.1163.001-.1744 0-.0291-.001-.0582-.001-.0872z"/><path clip-rule="evenodd" d="m176.494 22.6522c-.001.113-.002.2305-.002.3547-.134-.1077-.256-.2133-.372-.314-.217-.1874-.414-.358-.628-.4941-2.006-1.2441-4.081-1.343-6.173-.2674-1.757.9011-2.757 2.4243-3.231 4.3079-.295 1.1744-.283 2.3546-.023 3.5406.329 1.5174 1.063 2.7847 2.225 3.8021.879.7675 1.913 1.2151 3.069 1.343 1.422.157 2.786-.0232 4-.8604.255-.1766.5-.3644.763-.567.119-.0908.241-.1847.37-.2818v.9825c0 .3895.005.3953.381.3953h1.734c.376 0 .387-.0116.387-.3953v-5.4068c0-2.2847 0-4.5753.006-6.8601 0-.2558-.075-.3547-.347-.3489-.618.0175-1.231.0117-1.849 0-.237 0-.33.064-.318.314.012.2453.01.4878.008.7557zm-.011 5.2042c-.001.0694-.003.1354-.003.1968.104 1.186-.237 2.1743-.93 3.0464-1.601 1.9999-4.792 1.9418-6.341-.0988-.612-.8081-.901-1.7093-.896-2.7209.006-.779.029-1.5522.399-2.2615.792-1.5232 2.029-2.3313 3.751-2.3487 1.723-.0233 3.3 1.1685 3.861 2.8312.081.2559.127.5291.15.7965.017.1911.013.3853.009.559z" fill-rule="evenodd"/><path d="m147.927 22.5781c.068-.093.137-.1867.215-.2689.769-.8022 1.728-1.1046 2.82-1.0929 1.526.0232 2.717.6627 3.607 1.9011l.014.0197c.09.1248.135.188.182.1889.047.0008.096-.0637.195-.1943l.002-.0027c.775-1.0232 1.803-1.6918 3.058-1.8604 1.913-.25 3.583.4302 4.6 2.279.497.9069.682 1.8836.688 2.9068.003 1.3023.003 2.6046.003 3.9076s0 2.6067.003 3.9119c0 .2558-.064.3604-.335.3488-.625-.0174-1.255-.0116-1.879-.0058-.214.0058-.283-.0698-.283-.2849.002-.876.001-1.7514-.001-2.6265v-.0028c-.002-1.7491-.005-3.4974.018-5.2483.012-.7092-.034-1.3778-.439-1.965-.59-.8663-1.422-1.279-2.474-1.1802-1.086.1047-1.832.6918-2.242 1.7034-.174.4302-.243.8721-.174 1.3372.018.1222.015.2478.013.3717 0 .0409-.001.0821-.001.1224v7.3544c0 .2113 0 .3159-.052.3685-.051.0516-.152.053-.353.0559-.173 0-.346-.0016-.52-.0031-.404-.0037-.809-.0074-1.214.0089-.3.0116-.364-.093-.364-.3779.012-2.6452.012-5.2905 0-7.9357-.006-1.0814-.711-2.0581-1.705-2.4301-1.468-.5523-2.994.1802-3.456 1.6859-.104.3372-.127.7093-.127 1.064-.009 1.8878-.008 3.7788-.007 5.6683.001.6299.001 1.2601.001 1.8895 0 .4128 0 .4128-.41.4186h-1.619c-.218 0-.327 0-.38-.0545-.053-.0536-.053-.1596-.053-.3699v-7.209c0-.4177 0-.8358.001-1.254v-.0044c.001-1.2568.002-2.5153-.007-3.7705 0-.2791.075-.3663.358-.3605.619.0175 1.231.0117 1.85 0 .202-.0058.277.064.266.2675-.009.1917-.008.3868-.007.5801.001.0644.001.1293.001.1931.04.0174.081.0407.121.064.01-.013.02-.0261.03-.0392.019-.0249.037-.0505.056-.0757z"/><path clip-rule="evenodd" d="m139.01 22.6116c0-.0836.001-.1665.001-.2492.001-.1645.003-.3288-.001-.495-.006-.1918.046-.2849.254-.279.653.0116 1.312.0058 1.965 0 .174 0 .255.0581.237.2325v.0872c0 1.0739.003 2.1482.005 3.2227v.0063c.007 2.8674.014 5.7362-.028 8.6019-.04 2.6918-1.37 4.6277-3.791 5.7498-1.948.9011-3.879.686-5.734-.343-.185-.0989-.208-.2035-.098-.3895.324-.5291.63-1.064.925-1.6046.121-.2268.248-.25.462-.1221 1.306.7732 2.636.7441 3.913-.0175 1.006-.5988 1.647-1.5115 1.792-2.7033.06-.5208.081-1.0473.102-1.5734.009-.2258.018-.4514.031-.6765-.015-.0059-.029-.0131-.044-.0204-.014-.0073-.029-.0145-.043-.0203-.019.0116-.038.0228-.057.0341-.058.0338-.115.0676-.163.1112-2.26 2.0929-5.907 1.5348-7.629-.7674-1.144-1.529-1.543-3.2382-1.26-5.1161.214-1.3836.769-2.6103 1.809-3.5754 1.289-1.2034 2.815-1.6453 4.549-1.3895.942.1395 1.763.5232 2.462 1.1744.048.0449.104.0802.159.1151.03.0193.061.0386.089.0593.035-.0233.064-.0407.093-.0523zm.006 4.7033c.144-2.122-1.63-3.6569-3.243-3.6685-1.3-.0116-2.306.5-2.999 1.5755-.706 1.093-.717 2.3081-.347 3.5173.664 2.1802 3.514 3.1278 5.467 1.4302.844-.7325 1.151-1.715 1.122-2.8545z" fill-rule="evenodd"/><path d="m123.659 21.9953v6.1335c0 2.058 0 4.1103-.006 6.1567 0 .2616.081.3314.329.3256.426-.0125.854-.0101 1.281-.0077.171.0009.342.0018.511.0018.376 0 .387-.0116.387-.3953v-12.2088c0-.3953-.023-.4186-.404-.4186h-1.676c-.213 0-.319 0-.371.0531-.051.052-.051.1552-.051.3597z"/><path d="m124.93 19.164c-.896 0-1.606-.6976-1.624-1.5813-.023-1.0639.809-1.6627 1.653-1.6743.873-.0117 1.59.7383 1.59 1.6394 0 .907-.711 1.6162-1.619 1.6162z"/></g><path d="m99.8895 9.81406c0 4.94484-4.0086 8.95344-8.9535 8.95344h-9.186v-17.906904h9.186c4.9449 0 8.9535 4.008604 8.9535 8.953464z" stroke="#fff" stroke-width="2.0108"/><path d="m63.6104 9.81406c0 4.94484 4.0086 8.95344 8.9534 8.95344h9.1861v-17.906904h-9.1861c-4.9448 0-8.9534 4.008604-8.9534 8.953464z" stroke="#fff" stroke-width="2.0108"/><path d="m63.6104 27.721c0 4.9449 4.0086 8.9535 8.9534 8.9535h9.1861v-17.9069h-9.1861c-4.9448 0-8.9534 4.0086-8.9534 8.9534z" stroke="#fff" stroke-width="2.0108"/><path d="m63.6104 45.628c0 4.9449 4.0663 8.9535 9.0112 8.9535 5.0091 0 9.1283-4.0607 9.1283-9.0697v-8.8372h-9.1861c-4.9448 0-8.9534 4.0086-8.9534 8.9534z" stroke="#fff" stroke-width="2.0108"/><path d="m81.75 27.721c0 4.9449 4.0086 8.9535 8.9535 8.9535h.2325c4.9449 0 8.9535-4.0086 8.9535-8.9535 0-4.9448-4.0086-8.9534-8.9535-8.9534h-.2325c-4.9449 0-8.9535 4.0086-8.9535 8.9534z" stroke="#fff" stroke-width="2.0108"/></g></svg>