<svg fill="none" height="56" viewBox="0 0 241 56" width="241" xmlns="http://www.w3.org/2000/svg"><g fill="#fff"><path d="m83.1998 24 2.5 5h-8.9z"/><path d="m153.9 24-6.4 4.9h9zm0 0-6.4 4.9h9zm0 0-6.4 4.9h9zm31.8-1.6h-3.3l-1.7 4.2h3.4c3.6 0 5.1-.7 5.6-2 .6-1.4-.2-2.2-4-2.2zm-31.8 1.6-6.4 4.9h9zm31.8-1.6h-3.3l-1.7 4.2h3.4c3.6 0 5.1-.7 5.6-2 .6-1.4-.2-2.2-4-2.2zm13.5-9.4h-157.6c-8.1 0-14.6 6.6-14.6 14.7s6.5 14.7 14.6 14.7h157.6c8.1 0 14.6-6.6 14.6-14.7s-6.6-14.7-14.6-14.7zm0 27h-157.6c-6.8 0-12.2-5.5-12.2-12.3s5.5-12.3 12.2-12.3h157.6c6.8 0 12.2 5.5 12.2 12.3s-5.5 12.3-12.2 12.3zm0-23.5h-157.6c-6.1 0-11.1 5-11.1 11.1s5 11.1 11.1 11.1h157.6c6.1 0 11.1-5 11.1-11.1-.1-6.1-5-11.1-11.1-11.1zm-136.4 18.7h-20.2l6-15.2h8.2l-5.1 12.8h11.9zm26.2 0-2-3.9h-13.3l-5 3.9h-4.8l19.6-15.2h5.8l7.8 15.2zm36.3 0 3.9-9.8-12.7 9.8h-5.3l-5.1-9.8-3.9 9.8h-3.8l6-15.2h7.1l5.7 10.9 14.1-10.9h8.2l-6 15.2zm34.4 0-2-3.9h-13.2l-5 3.9h-4.8l19.6-15.2h5.8l7.9 15.2zm38.2-10.6c-.8 2.1-3 3.8-6.8 4.4l3.2 6.3h-8.2l-3.2-6.3h-3.1l-2.5 6.3h-8.2l6-15.2h16.9c5.5 0 6.8 2 5.9 4.5zm-12.2-2.2h-3.3l-1.7 4.2h3.4c3.6 0 5.1-.7 5.6-2 .6-1.4-.2-2.2-4-2.2zm-38.2 6.6h9l-2.6-4.9zm38.2-6.6h-3.3l-1.7 4.2h3.4c3.6 0 5.1-.7 5.6-2 .6-1.4-.2-2.2-4-2.2zm-31.8 1.6-6.4 4.9h9zm31.8-1.6h-3.3l-1.7 4.2h3.4c3.6 0 5.1-.7 5.6-2 .6-1.4-.2-2.2-4-2.2zm-31.8 1.6-6.4 4.9h9z"/></g></svg>