<svg fill="none" height="56" viewBox="0 0 242 56" width="242" xmlns="http://www.w3.org/2000/svg"><g fill="#fff"><path d="m83.272 38.9737v-10.6672c0-7.0843 5.0485-10.4907 11.0471-10.4907h2.8907v5.4829l-2.5514.0271c-1.6829 0-2.9857.4886-3.9357 1.4522-.9364.95-1.3979 2.4157-1.3979 4.37v9.8393zm16.5164-21.1715h6.1076v11.0743c0 1.0043.095 1.8593.285 2.5515.203.6785.488 1.2214.855 1.6557.38.4071.841.6921 1.37.8821.543.1765 1.14.2579 1.819.2579.612.0057 1.221-.086 1.805-.2715.543-.1764.991-.4614 1.357-.8685.38-.4207.679-.9772.869-1.6557.19-.6786.298-1.5336.298-2.5515v-11.0607h6.107v11.2643c.04 1.6775-.231 3.3479-.8 4.9264-.463 1.2391-1.206 2.354-2.172 3.2572-.959.8458-2.095 1.467-3.325 1.8186-1.262.38-2.646.57-4.139.57s-2.891-.19-4.153-.57c-1.225-.3534-2.356-.9746-3.311-1.8186-.971-.9018-1.719-2.0168-2.185-3.2572-.53-1.3571-.7876-2.9857-.7876-4.9264zm37.4166 9.7986v11.4h6.134v-11.4c.082-2.7143 1.357-5.0214 4.139-5.0214 2.62 0 3.624 2.85 3.624 5.1571v11.2643h6.107v-10.7078c0-6.6229-3.325-11.1693-9.541-11.1693-3.433 0-5.795 1.235-7.396 2.9043-.961-.9745-2.116-1.7365-3.39-2.2368s-2.639-.7277-4.006-.6675c-6.23 0-9.541 4.5464-9.541 11.1693v10.6807h6.107v-11.2643c0-2.3072 1.004-5.1572 3.624-5.1572 2.795 0 4.057 2.3072 4.139 5.0215zm22.515.1086c0 7.6271 4.506 11.9836 11.834 11.9836 1.547.0223 3.082-.2781 4.506-.8822 1.303-.5597 2.476-1.3821 3.447-2.4157.961-1.0434 1.708-2.2653 2.199-3.5964.519-1.4074.782-2.8969.773-4.3972.011-1.4893-.242-2.9687-.746-4.37-.472-1.3237-1.201-2.5412-2.145-3.5828-.953-1.0418-2.113-1.8738-3.406-2.4429-1.431-.6128-2.976-.9136-4.533-.8821-1.221 0-2.334.1764-3.298.5293-.908.3246-1.763.7819-2.538 1.3571v-8.7943h-6.093zm16.245-1.6964c.285.7192.434 1.4928.434 2.375 0 .8821-.136 1.6828-.434 2.4021-.268.6911-.669 1.3228-1.181 1.8593-.488.5202-1.08.9317-1.737 1.2079-1.356.558-2.878.558-4.234 0-.645-.2801-1.23-.6809-1.724-1.1808-.503-.5407-.899-1.1715-1.167-1.8592-.283-.7829-.421-1.6107-.407-2.4429-.014-1.5514.552-3.0521 1.588-4.2072.492-.5048 1.083-.9022 1.737-1.1671.673-.2888 1.398-.4366 2.131-.4343 1.086-.0128 2.15.3119 3.045.9293.894.6174 1.575 1.4971 1.949 2.5179zm8.821-15.7972h6.107v28.7715h-6.107zm9.256 13.8429c-.555 1.3849-.836 2.8644-.828 4.3564-.012 1.4955.265 2.9792.814 4.37.551 1.3305 1.353 2.5424 2.362 3.5693 1.017 1.041 2.23 1.8711 3.569 2.4428 1.398.57 2.932.8686 4.587.8686 1.335.0215 2.663-.1945 3.922-.6378 1.131-.3873 2.194-.9507 3.149-1.6693.877-.6647 1.647-1.4612 2.28-2.3614.601-.8362 1.068-1.7612 1.384-2.7415h-6.582c-.366.6514-.896 1.1943-1.615 1.615-.637.3583-1.345.5731-2.074.6294s-1.462-.0474-2.147-.3037c-.559-.2061-1.085-.4943-1.56-.855-.996-.8124-1.709-1.9194-2.036-3.1621h16.544c.088-.5842.138-1.1736.149-1.7643.012-1.4981-.274-2.9836-.842-4.37-.535-1.349-1.337-2.5758-2.359-3.6067-1.021-1.0308-2.241-1.8445-3.585-2.3919-1.46-.6113-3.031-.9162-4.614-.8957-1.669 0-3.203.2986-4.601.8957-1.347.5594-2.569 1.3805-3.596 2.4157-1.003 1.029-1.792 2.2468-2.321 3.5829zm7.329-.9093c.929-.6864 2.061-1.0402 3.216-1.0043 1.235 0 2.266.3393 3.094 1.0314.815.665 1.425 1.5336 1.805 2.6057h-10.043c.408-1.0857 1.045-1.9678 1.914-2.6328z"/><path d="m57.6212 30.4645c1.6286-1.2893 1.6286-3.8 0-5.13-2.318-1.9242-4.8608-3.5602-7.5728-4.8721-1.8729-.8957-3.9629.3528-4.2615 2.4836-.4614 3.2571-.5428 6.5414-.2443 9.6628.2036 2.1579 2.2665 3.4472 4.1665 2.6193 2.8383-1.2216 5.4995-2.8192 7.9121-4.75zm12.1736-9.4864c1.725 1.8882 2.6838 4.3519 2.6888 6.9094.0051 2.5575-.944 5.025-2.6617 6.9199-6.1342 6.7699-14.1481 11.5565-23.0171 13.7478-2.2679.5676-4.6677.2288-6.6899-.9445-2.0221-1.1732-3.5073-3.0885-4.1401-5.339-2.6736-9.1336-2.28-19.4615.2986-28.6357 1.3571-4.8179 5.89-7.84433 10.5585-6.73148 8.645 2.06286 16.7607 7.36928 22.9629 14.07358z"/></g></svg>