<svg width="412" height="412" viewBox="0 0 412 412" fill="none" xmlns="http://www.w3.org/2000/svg">
<g clip-path="url(#clip0_4486_150876)">
<mask id="path-2-outside-1_4486_150876" maskUnits="userSpaceOnUse" x="58.2378" y="53.9753" width="295.015" height="304.183" fill="black">
<rect fill="white" x="58.2378" y="53.9753" width="295.015" height="304.183"/>
<path fill-rule="evenodd" clip-rule="evenodd" d="M199.257 105.975C194.182 104.813 190.594 100.732 187.445 97.1497C183.665 92.8502 180.517 89.2699 176.189 92.3209C166.401 99.2221 186.395 110.657 199.257 105.975ZM251.39 133.288C248.199 106.19 230.411 66.6549 207.213 83.0055C192.867 95.2625 205 103.209 217.302 111.266C224.737 116.135 232.233 121.045 233.984 126.97C204.398 120.999 165.508 131.808 148.646 152.4C141.579 161.029 142.155 172.872 144.526 183.839C80.1547 156.278 116.5 286.128 163.51 264.677L163.554 264.865C165.875 274.739 171.712 283.431 179.973 289.316L184.314 292.408L186.277 300.152C187.127 303.504 189.562 306.267 192.908 307.143C212.589 312.292 243.569 311.011 267.94 296.577C271.277 294.601 272.92 290.744 272.415 286.898L271.657 281.121C280.308 276.091 285.696 267.193 286.426 257.562C292.182 249.924 294.718 238.722 291.223 225.703C288.11 228.482 285.207 230.826 282.419 232.715L279.334 218.017C282.409 210.239 281.628 201.112 276.45 193.765C275.559 192.502 274.576 191.343 273.515 190.292L267.644 162.324C265.262 150.974 260.877 139.369 251.39 133.288ZM148.222 199.633C107.34 178.344 125.849 258.14 160.006 249.77L148.222 199.633ZM126.075 153.364C129.796 153.442 134.037 153.53 137.283 155.974C133.607 145.943 116.726 139.763 117.532 149.076C117.888 153.193 121.608 153.271 126.075 153.364Z"/>
</mask>
<path d="M187.445 97.1497L192.335 92.8502L192.335 92.8502L187.445 97.1497ZM199.257 105.975L201.485 112.093C204.197 111.106 205.935 108.452 205.756 105.571C205.577 102.691 203.524 100.271 200.711 99.6274L199.257 105.975ZM176.189 92.3209L172.437 86.9992L172.437 86.9992L176.189 92.3209ZM207.213 83.0055L203.462 77.6833C203.297 77.7996 203.137 77.9237 202.983 78.0549L207.213 83.0055ZM251.39 133.288L244.923 134.05C245.151 135.986 246.235 137.718 247.876 138.77L251.39 133.288ZM217.302 111.266L213.735 116.713L213.735 116.713L217.302 111.266ZM233.984 126.97L232.696 133.353C234.934 133.805 237.245 133.051 238.786 131.367C240.328 129.684 240.875 127.315 240.228 125.126L233.984 126.97ZM148.646 152.4L143.608 148.274L143.608 148.274L148.646 152.4ZM144.526 183.839L141.963 189.825C144.203 190.784 146.79 190.413 148.669 188.863C150.548 187.313 151.405 184.844 150.891 182.463L144.526 183.839ZM163.51 264.677L169.849 263.187C169.402 261.288 168.128 259.689 166.377 258.83C164.626 257.972 162.581 257.943 160.807 258.753L163.51 264.677ZM163.554 264.865L157.216 266.355L157.216 266.355L163.554 264.865ZM179.973 289.316L176.196 294.619L176.196 294.619L179.973 289.316ZM184.314 292.408L190.626 290.808C190.247 289.313 189.349 288 188.092 287.105L184.314 292.408ZM186.277 300.152L192.589 298.552L192.589 298.552L186.277 300.152ZM192.908 307.143L191.26 313.442L191.26 313.442L192.908 307.143ZM267.94 296.577L271.258 302.18L271.258 302.18L267.94 296.577ZM272.415 286.898L278.871 286.05L278.871 286.05L272.415 286.898ZM271.657 281.121L268.384 275.492C266.114 276.812 264.859 279.366 265.201 281.969L271.657 281.121ZM286.426 257.562L281.226 253.643C280.476 254.638 280.028 255.827 279.934 257.069L286.426 257.562ZM291.223 225.703L297.511 224.015C296.925 221.832 295.249 220.109 293.083 219.463C290.918 218.818 288.572 219.341 286.886 220.846L291.223 225.703ZM282.419 232.715L276.047 234.052C276.492 236.176 277.967 237.938 279.978 238.751C281.99 239.565 284.275 239.322 286.071 238.105L282.419 232.715ZM279.334 218.017L273.279 215.623C272.81 216.809 272.7 218.107 272.962 219.355L279.334 218.017ZM273.515 190.292L267.142 191.63C267.404 192.877 268.026 194.021 268.932 194.918L273.515 190.292ZM267.644 162.324L261.272 163.662L261.272 163.662L267.644 162.324ZM148.222 199.633L154.56 198.143C154.127 196.298 152.91 194.733 151.229 193.858L148.222 199.633ZM160.006 249.77L161.556 256.094C165.025 255.244 167.162 251.757 166.345 248.28L160.006 249.77ZM137.283 155.974L133.366 161.176C135.672 162.912 138.845 162.923 141.163 161.203C143.48 159.484 144.39 156.444 143.397 153.734L137.283 155.974ZM126.075 153.364L125.939 159.874L125.939 159.874L126.075 153.364ZM117.532 149.076L124.019 148.515L124.019 148.515L117.532 149.076ZM182.555 101.449C185.407 104.693 190.331 110.611 197.804 112.322L200.711 99.6274C198.033 99.0146 195.782 96.7703 192.335 92.8502L182.555 101.449ZM179.941 97.6427C180.208 97.4544 179.998 97.6769 179.419 97.6926C178.862 97.7078 178.586 97.5127 178.739 97.6021C178.948 97.7239 179.378 98.04 180.1 98.761C180.816 99.4753 181.576 100.336 182.555 101.449L192.335 92.8502C190.7 90.9907 188.219 88.0569 185.305 86.3556C183.658 85.3939 181.548 84.607 179.065 84.6747C176.561 84.7429 174.334 85.6619 172.437 86.9992L179.941 97.6427ZM197.03 99.856C192.901 101.359 186.723 100.322 182.507 97.8652C180.334 96.5996 179.93 95.6738 179.992 95.8463C180.091 96.1274 180.179 96.7333 179.932 97.3866C179.717 97.9543 179.467 97.9772 179.941 97.6427L172.437 86.9992C170.465 88.39 168.698 90.2798 167.753 92.7755C166.776 95.3567 166.92 97.9516 167.719 100.202C169.178 104.313 172.741 107.247 175.951 109.118C182.5 112.933 192.751 115.272 201.485 112.093L197.03 99.856ZM210.964 88.3277C215.234 85.318 218.474 85.2605 221.207 86.2652C224.393 87.4365 227.934 90.4631 231.444 95.5512C238.437 105.687 243.417 121.256 244.923 134.05L257.857 132.527C256.172 118.222 250.663 100.475 242.164 88.156C237.928 82.0168 232.473 76.5318 225.7 74.042C218.474 71.3857 210.79 72.5177 203.462 77.6833L210.964 88.3277ZM220.87 105.819C217.741 103.769 214.919 101.916 212.533 100.048C210.105 98.1476 208.6 96.5844 207.814 95.3046C207.149 94.2218 207.163 93.6505 207.301 93.1274C207.515 92.3216 208.367 90.5838 211.443 87.9561L202.983 78.0549C198.886 81.5557 195.875 85.4076 194.713 89.7908C193.476 94.4567 194.602 98.6737 196.715 102.117C198.707 105.363 201.645 108.063 204.504 110.302C207.405 112.573 210.713 114.734 213.735 116.713L220.87 105.819ZM240.228 125.126C238.809 120.321 235.314 116.593 231.999 113.767C228.603 110.872 224.5 108.196 220.87 105.819L213.735 116.713C217.539 119.205 220.901 121.419 223.55 123.677C226.28 126.004 227.408 127.694 227.739 128.815L240.228 125.126ZM153.684 156.525C161.008 147.581 173.608 140.28 188.367 135.975C203.053 131.691 219.095 130.608 232.696 133.353L235.272 120.588C219.287 117.361 201.091 118.697 184.72 123.473C168.422 128.227 153.146 136.627 143.608 148.274L153.684 156.525ZM150.891 182.463C148.574 171.749 148.666 162.653 153.684 156.525L143.608 148.274C134.493 159.405 135.736 173.996 138.162 185.215L150.891 182.463ZM160.807 258.753C152.313 262.629 144.018 260.123 136.189 252.542C128.229 244.835 121.783 232.63 118.548 220.313C115.227 207.666 115.788 196.918 119.267 191.277C120.8 188.792 122.908 187.233 126.034 186.697C129.424 186.115 134.568 186.659 141.963 189.825L147.089 177.854C138.392 174.13 130.591 172.702 123.831 173.862C116.806 175.067 111.56 178.964 108.183 184.441C101.841 194.725 102.357 209.931 105.952 223.62C109.634 237.639 117.065 252.152 127.13 261.898C137.325 271.769 151.202 277.45 166.213 270.601L160.807 258.753ZM169.893 263.375L169.849 263.187L157.171 266.167L157.216 266.355L169.893 263.375ZM183.751 284.012C176.778 279.045 171.852 271.709 169.893 263.375L157.216 266.355C159.898 277.769 166.645 287.817 176.196 294.619L183.751 284.012ZM188.092 287.105L183.751 284.012L176.196 294.619L180.537 297.712L188.092 287.105ZM192.589 298.552L190.626 290.808L178.002 294.008L179.965 301.751L192.589 298.552ZM194.556 300.843C193.814 300.649 192.939 299.933 192.589 298.552L179.965 301.751C181.314 307.076 185.31 311.885 191.26 313.442L194.556 300.843ZM264.622 290.975C241.967 304.392 212.819 305.622 194.556 300.843L191.26 313.442C212.358 318.962 245.172 317.63 271.258 302.18L264.622 290.975ZM265.959 287.745C266.164 289.305 265.469 290.473 264.622 290.975L271.258 302.18C277.085 298.728 279.676 292.183 278.871 286.05L265.959 287.745ZM265.201 281.969L265.959 287.745L278.871 286.05L278.113 280.274L265.201 281.969ZM279.934 257.069C279.362 264.603 275.146 271.561 268.384 275.492L274.93 286.75C285.469 280.622 292.03 269.782 292.919 258.054L279.934 257.069ZM284.934 227.392C287.969 238.694 285.644 247.78 281.226 253.643L291.627 261.48C298.72 252.067 301.468 238.75 297.511 224.015L284.934 227.392ZM286.071 238.105C289.178 236.001 292.316 233.456 295.559 230.56L286.886 220.846C283.904 223.508 281.236 225.651 278.767 227.324L286.071 238.105ZM272.962 219.355L276.047 234.052L288.792 231.377L285.707 216.68L272.962 219.355ZM271.128 197.516C274.989 202.995 275.581 209.799 273.279 215.623L285.389 220.411C289.237 210.679 288.268 199.23 281.772 190.014L271.128 197.516ZM268.932 194.918C269.723 195.701 270.459 196.567 271.128 197.516L281.772 190.014C280.66 188.436 279.429 186.985 278.097 185.666L268.932 194.918ZM261.272 163.662L267.142 191.63L279.887 188.954L274.017 160.987L261.272 163.662ZM247.876 138.77C255.004 143.339 258.948 152.593 261.272 163.662L274.017 160.987C271.575 149.355 266.75 135.4 254.904 127.806L247.876 138.77ZM151.229 193.858C145.565 190.908 140.227 189.324 135.34 189.512C130.189 189.709 125.895 191.881 122.925 195.599C120.123 199.106 118.873 203.505 118.493 207.769C118.107 212.092 118.566 216.758 119.633 221.335C121.751 230.418 126.491 240.083 133.374 247.05C140.345 254.105 150.138 258.892 161.556 256.094L158.456 243.445C152.796 244.832 147.466 242.783 142.638 237.897C137.721 232.921 133.984 225.536 132.316 218.378C131.489 214.834 131.227 211.582 131.464 208.927C131.706 206.214 132.422 204.576 133.1 203.727C133.61 203.088 134.311 202.584 135.839 202.525C137.631 202.456 140.658 203.036 145.214 205.408L151.229 193.858ZM166.345 248.28L154.56 198.143L141.883 201.123L153.667 251.259L166.345 248.28ZM141.2 150.773C135.988 146.849 129.482 146.922 126.211 146.854L125.939 159.874C130.111 159.961 132.085 160.211 133.366 161.176L141.2 150.773ZM124.019 148.515C123.997 148.264 124.091 148.729 123.686 149.457C123.235 150.265 122.545 150.724 122.051 150.91C121.45 151.135 121.813 150.788 123.537 151.403C126.845 152.584 130.174 155.5 131.169 158.215L143.397 153.734C140.716 146.418 133.766 141.228 127.916 139.139C125.061 138.119 121.126 137.346 117.471 138.719C115.451 139.478 113.544 140.904 112.311 143.117C111.122 145.25 110.865 147.559 111.044 149.637L124.019 148.515ZM126.211 146.854C125.043 146.83 124.196 146.809 123.465 146.746C123.119 146.716 122.866 146.682 122.682 146.648C122.497 146.614 122.43 146.589 122.445 146.595C122.494 146.612 123 146.809 123.48 147.41C123.972 148.028 124.022 148.551 124.019 148.515L111.044 149.637C111.219 151.659 111.867 153.736 113.297 155.529C114.714 157.306 116.496 158.3 118.078 158.863C120.825 159.841 124.092 159.835 125.939 159.874L126.211 146.854Z" fill="white" mask="url(#path-2-outside-1_4486_150876)"/>
<path d="M170.393 260.466C118.232 300.608 73.5738 143.056 153.209 188.187L159.37 206.914C101.25 162.367 125.483 270.179 166.602 247.107L170.393 260.466Z" fill="white" stroke="#040605" stroke-width="2.2365" stroke-linecap="round" stroke-linejoin="round"/>
<path d="M248.611 131.739C218.816 117.487 168.486 128.172 148.647 152.399C141.189 161.506 142.244 174.195 144.937 185.654L163.555 264.864C165.876 274.739 171.713 283.43 179.975 289.315L184.316 292.407L186.278 300.151C187.128 303.504 189.563 306.266 192.909 307.142C212.59 312.291 243.571 311.01 267.941 296.577C271.279 294.6 272.921 290.743 272.417 286.897L271.658 281.121C282.79 274.648 288.519 261.77 285.874 249.168L267.645 162.323C265.041 149.918 260.046 137.209 248.611 131.739Z" fill="white"/>
<path d="M271.658 281.121V281.121C282.79 274.648 288.519 261.77 285.874 249.168L267.645 162.323C265.041 149.918 260.046 137.209 248.611 131.739C218.816 117.487 168.486 128.172 148.647 152.399C141.189 161.506 142.244 174.195 144.937 185.654L163.555 264.864C165.876 274.739 171.713 283.43 179.975 289.315L184.316 292.407M271.658 281.121L272.417 286.897C272.921 290.743 271.279 294.6 267.941 296.577C243.571 311.01 212.59 312.291 192.909 307.142C189.563 306.266 187.128 303.504 186.278 300.151L184.316 292.407M271.658 281.121L260.785 286.176M184.316 292.407C194.299 295.668 209.55 297.085 220.489 296.328" stroke="#040605" stroke-width="2.2365" stroke-linecap="round" stroke-linejoin="round"/>
<ellipse cx="202.206" cy="152.803" rx="51.7482" ry="20.6829" transform="rotate(-10.022 202.206 152.803)" fill="white" stroke="#040605" stroke-width="2.2365" stroke-linecap="round" stroke-linejoin="round"/>
<path d="M187.168 247.01C208.637 255.838 223.986 247.899 240.257 226.532C262.29 243.282 273.278 241.725 291.223 225.703C300.457 260.095 267.597 281.804 244.494 258.639C224.965 288.619 198.971 278.866 187.168 247.01Z" fill="#040605" stroke="#040605" stroke-width="2.2365" stroke-linecap="round" stroke-linejoin="round"/>
<circle cx="255.462" cy="208.553" r="25.6724" transform="rotate(-35.1775 255.462 208.553)" fill="white" stroke="#040605" stroke-width="2.2365" stroke-linecap="round" stroke-linejoin="round"/>
<mask id="mask0_4486_150876" style="mask-type:alpha" maskUnits="userSpaceOnUse" x="228" y="181" width="55" height="55">
<circle cx="255.462" cy="208.553" r="25.6724" transform="rotate(-35.1775 255.462 208.553)" fill="white" stroke="#21242C" stroke-width="2.2365" stroke-linecap="round" stroke-linejoin="round"/>
</mask>
<g mask="url(#mask0_4486_150876)">
<circle cx="234.454" cy="202.248" r="25.6724" transform="rotate(-35.1775 234.454 202.248)" fill="#040605"/>
</g>
<circle cx="215.071" cy="216.846" r="25.6724" transform="rotate(-35.1775 215.071 216.846)" fill="white" stroke="#040605" stroke-width="2.2365" stroke-linecap="round" stroke-linejoin="round"/>
<mask id="mask1_4486_150876" style="mask-type:alpha" maskUnits="userSpaceOnUse" x="188" y="190" width="54" height="54">
<circle cx="215.071" cy="216.846" r="25.6724" transform="rotate(-35.1775 215.071 216.846)" fill="white" stroke="#21242C" stroke-width="2.2365" stroke-linecap="round" stroke-linejoin="round"/>
</mask>
<g mask="url(#mask1_4486_150876)">
<circle cx="194.063" cy="210.541" r="25.6724" transform="rotate(-35.1775 194.063 210.541)" fill="#040605"/>
</g>
<mask id="mask2_4486_150876" style="mask-type:alpha" maskUnits="userSpaceOnUse" x="150" y="129" width="105" height="48">
<ellipse cx="202.206" cy="152.803" rx="51.7482" ry="20.6829" transform="rotate(-10.022 202.206 152.803)" fill="#FF9CFC" stroke="#21242C" stroke-width="2.2365" stroke-linecap="round" stroke-linejoin="round"/>
</mask>
<g mask="url(#mask2_4486_150876)">
<path d="M207.215 83.0044C234.498 63.7739 254.299 121.85 251.669 146.075L252.353 160.21L236.323 167.93C183.288 202.93 84.9345 196.299 149.251 158.919C161.129 126.689 219.408 165.935 232.606 135.236C245.712 113.719 180.478 105.847 207.215 83.0044Z" fill="#040605" stroke="#040605" stroke-width="2.2365" stroke-linecap="round" stroke-linejoin="round"/>
</g>
<path d="M207.216 83.0039C234.5 63.7733 254.301 121.85 251.671 146.074L220.933 146.093C226.021 144.332 230.117 141.029 232.608 135.236C245.714 113.718 180.48 105.847 207.216 83.0039Z" fill="#040605" stroke="#040605" stroke-width="2.2365" stroke-linecap="round" stroke-linejoin="round"/>
<path d="M199.257 105.976C188.09 103.42 184.122 86.7295 176.189 92.3224C166.4 99.2235 186.394 110.658 199.257 105.976Z" fill="#040605" stroke="#040605" stroke-width="2.2365" stroke-linecap="round" stroke-linejoin="round"/>
<path d="M137.28 155.973C130.138 150.595 118.182 156.622 117.529 149.074C116.724 139.762 133.604 145.942 137.28 155.973Z" fill="#040605" stroke="#040605" stroke-width="2.2365" stroke-linecap="round" stroke-linejoin="round"/>
<path d="M217.587 84.3464C223.327 84.811 232.085 91.2657 233.946 99.8769M176.972 150.857C181.735 150.226 184.481 150.624 189.584 153.393" stroke="white" stroke-width="2.2365" stroke-linecap="round" stroke-linejoin="round"/>
<path d="M244.202 262.95C246.676 259.492 248.334 256.496 248.345 252.948" stroke="white" stroke-width="2.2365" stroke-linecap="round" stroke-linejoin="round"/>
</g>
<defs>
<clipPath id="clip0_4486_150876">
<rect width="295.184" height="295.184" fill="white" transform="translate(0 170.059) rotate(-35.1775)"/>
</clipPath>
</defs>
</svg>
