<svg width="281" height="99" viewBox="0 0 281 99" fill="none" xmlns="http://www.w3.org/2000/svg">
<path d="M142.282 95.3964C152.947 96.5859 164.338 92.9285 168.139 80.4987C169.384 76.4275 175.167 76.4275 176.412 80.4987C183.35 103.187 215.577 103.187 222.515 80.4987C223.76 76.4275 229.543 76.4275 230.788 80.4987C234.666 93.182 246.448 96.8123 257.297 95.3151V77.7235C257.297 77.7235 251.227 79.7371 249.703 74.7528C242.765 52.0645 210.538 52.457 203.6 75.1453C202.355 79.2165 196.572 79.2165 195.327 75.1453C188.389 52.457 156.161 52.0645 149.223 74.7528C147.596 80.0749 142.282 78.4159 142.282 78.4159V95.3964Z" fill="#05070F"/>
<path d="M142.282 57.8438V39.4506C142.282 39.4506 147.586 40.9834 149.223 35.63C156.161 12.9417 188.389 12.9417 195.327 35.63C196.572 39.7012 202.355 39.7012 203.6 35.63C210.538 12.9417 242.765 12.9417 249.703 35.63C251.34 40.9834 257.297 38.7582 257.297 38.7582V57.7625C246.448 59.2597 234.666 53.6667 230.788 40.9834C229.543 36.9122 223.76 36.9122 222.515 40.9834C215.577 63.6717 183.35 63.6717 176.412 40.9834C175.167 36.9122 169.384 36.9122 168.139 40.9834C164.338 53.4132 152.947 59.0333 142.282 57.8438Z" fill="#05070F"/>
<path d="M42.8835 0H63.8723V68.1311C63.8723 77.2917 61.104 84.6906 55.5674 90.3279C50.0308 95.8644 41.8265 98.6327 30.9546 98.6327C21.1901 98.6327 13.5898 96.0658 8.15391 90.9318C2.71797 85.6972 0 77.8957 0 67.5271V57.2592H19.0258V66.4701C19.0258 71.6041 19.9318 75.4293 21.7437 77.946C23.5557 80.3619 26.626 81.5699 30.9546 81.5699C35.7866 81.5699 38.9576 80.4123 40.4675 78.097C42.0782 75.681 42.8835 71.7047 42.8835 66.1681V0Z" fill="#05070F"/>
<path d="M115.529 58.7692C114.522 59.7759 113.063 60.5812 111.15 61.1852C109.237 61.7892 106.469 62.4435 102.845 63.1482C97.2079 64.2555 93.3323 65.6648 91.2183 67.3761C89.1043 69.0874 88.0473 71.5537 88.0473 74.775C88.0473 80.3116 91.2183 83.0799 97.5602 83.0799C100.077 83.0799 102.392 82.6773 104.506 81.8719C106.721 80.966 108.583 79.8083 110.093 78.399C111.704 76.889 112.962 75.1777 113.868 73.265C114.875 71.2517 115.378 69.1377 115.378 66.9231L115.529 58.7692ZM116.888 95.1598C116.284 93.2471 115.881 91.0325 115.68 88.5159C113.365 91.1332 110.294 93.2471 106.469 94.8578C102.644 96.3678 98.2145 97.1228 93.1813 97.1228C84.6247 97.1228 78.3331 95.2605 74.3065 91.5358C70.3805 87.7105 68.4175 82.7779 68.4175 76.738C68.4175 71.4027 69.2732 67.1748 70.9845 64.0542C72.6958 60.8329 75.0615 58.3162 78.0814 56.5042C81.1014 54.6923 84.675 53.3836 88.8023 52.5783C93.0303 51.6723 97.6105 50.867 102.543 50.1623C107.476 49.4576 110.798 48.5517 112.509 47.4443C114.22 46.2363 115.076 44.3237 115.076 41.7064C115.076 39.2904 113.918 37.4281 111.603 36.1195C109.388 34.7101 106.368 34.0055 102.543 34.0055C98.0132 34.0055 94.7416 35.0121 92.7283 37.0255C90.8156 39.0388 89.6076 41.7064 89.1043 45.0284H70.8335C70.9342 41.2031 71.5382 37.6798 72.6455 34.4585C73.8535 31.2372 75.7158 28.4689 78.2324 26.1536C80.8497 23.8383 84.222 22.0766 88.3493 20.8686C92.4766 19.56 97.5099 18.9057 103.449 18.9057C109.288 18.9057 114.22 19.56 118.247 20.8686C122.374 22.1773 125.646 24.0899 128.062 26.6066C130.579 29.0226 132.39 32.0928 133.498 35.8175C134.605 39.4414 135.159 43.5687 135.159 48.1993V95.1598H116.888Z" fill="#05070F"/>
<path d="M264.245 15.2117V17.8545H260.707V28.7536H257.454V17.8545H253.916V15.2117H264.245Z" fill="#05070F"/>
<path d="M281 15.2117V28.7536H277.747V20.6323L274.761 28.7536H272.136L269.13 20.613V28.7536H265.878V15.2117H269.72L273.467 24.5869L277.177 15.2117H281Z" fill="#05070F"/>
</svg>
